<?xml version="1.0" encoding="UTF-8"?>
<svg id="g-map-Artboard_1-layer8-img" xmlns="http://www.w3.org/2000/svg" baseProfile="tiny" version="1.2" viewBox="0 0 841.68 595.199">
  <!-- Generator: Adobe Illustrator 29.0.1, SVG Export Plug-In . SVG Version: 2.1.0 Build 192)  -->
  <path d="M99.18,459.371c1.047-7.498,5.671-16.159,12.564-19.566,2.999-1.149,6.128-1.854,7.05-5.328,4.222-16.993,13.112-9.908,21.416-18.719,1.316-1.871,1.962-4.583,3.473-6.753,5.645-7.082,16.126-10.755,25.094-9.842,4.228.671,7.382,4.33,10.768,6.678,3.521,2.513,7.886,3.717,11.624,5.861,10.402,5.876,7.807,15.487,22.515,17.542,4.742,1.312,7.451-2.557,9.971-5.865,4.085-3.582,7.063-7.141,8.52-12.352,1.119-3.712,4.494-5.586,6.59-8.562,1.906-2.961.689-7.933,2.587-11.253,1.586-2.593,4.606-3.926,6.593-6.164,2.236-2.202,3.391-4.943,6.236-7.018,11.33-5.731-2.388-16.521,12.153-20.515,5.2-2.103,17.062-1.194,19.225-6.835.882-2.516.449-5.636,1.95-7.984,1.462-3.06,5.731-3.565,8.051-5.11,2.609-1.785,2.564-5.257,4.011-7.848,2.829-5.416,9.548-5.328,14.588-7.296,7.077-2.702,11.841-12.266,20.079-12.347,3.026-.126,6.772,1.666,7.255-.369-.009-1.117-.92-2.563-1.315-3.729-1.572-3.822-1.574-8.897-3.483-12.542-1.681-3.975-5.804-5.971-8.488-9.158-1.845-2.185-2.278-5.265-4.847-6.758-15.288-5.579-6.729-8.225-25.433-5.336-5.805.502-8.905,5.101-13.757,7.832-3.712,2.46-8.186,2.965-12.253,4.338-6.208,3.644-11.004,2.134-17.878,1.149-6.502-1.631-8.897,4.797-14.095,7.321-7.095,3.304-15.476,4.04-22.835,1.106-9.248-3.569-10.403-15.781-7.156-23.911,2.551-4.3,8.025-7.553,12.139-9.576,1.89-.773,4.06-1.517,5.188-3.278,2.788-6.136,6.284-6.111,12.407-7.154,3.91-.629,7.458-1.743,11.239-1.971,4.01-.058,8.08.59,11.978-.247,13.326-2.817-9.127-3.886-11.722-6.137-8.867-3.534-11.785-23.478-6.412-30.247,6.136-6.028,17.293-8.687,24.85-3.918,3.49,1.716,5.54,6.922,8.059,8.124,3.112,1.266,6.337-1.722,9.52-1.894,8.344-1.256,13.764,7.408,18.88,12.443,5.297,2.626,9.458-5.846,8.437-10.131-.962-3.713-3.612-7.078-5.825-10.191-2.59-3.861-7.558-2.118-11.428-3.953-5.966-3.419-13.365-8.628-13.374-16.035,2.528-10.231,15.848-18.743,26.072-14.092,12.897,6.494,7.469,9.336,25.117,14.413,7.374,1.654,11.223,12.641,13.652,5.796,1.037-3,1.658-6.379,3.229-9.224,1.965-3.916,3.143-7.66,5.494-11.283,2.352-3.191,6.433-5.069,8.177-8.673,1.129-2.607.601-5.522.602-8.285.167-4.823.716-9.366-2.054-13.501-3.372-5.976,1.164-12.266,4.679-17.062,2.452-3.337,6.235-5.503,8.313-8.526,2.263-3.354,2.44-7.609,4.486-11.098,3.543-7.576,8.19-7.58,15.139-10.14,3.47-2.103,6.466-5.257,10.222-7.034,7.32-4.114,20.114-5.694,23.458,3.056,4.966,8.578,4.033,23.842-6.092,28.532-10.707,4.427-10.655,4.623-18.248,12.625-5.478,3.744-5.566,8.169-5.184,14.206-.213,4.218-1.725,7.882-1.069,11.918.458,3.852,2.368,8,.865,11.807-1.054,2.788-4.363,4.784-5.284,7.355-1.218,3.987,1.666,8.387-.796,12.262-2.242,4.057-5.071,8.144-7.611,11.829-2.296,3.152-5.63,8.215-2.075,11.591,2.102,1.975,4.782.012,7.396-.106,3.903-.711,6.752,4.293,10.323,3.738,1.924-1.178,3.081-3.807,4.862-5.334,8.758-8.396,12.816.589,20.668-.704,1.994-.672,3.546-2.675,5.056-4.228,5.488-6.179,13.49-9.218,20.976-5.643,8.839,5.084,11.076-7.189,18.479-8.91,2.847-.856,5.759.464,8.267,1.705,7.735,2.471,7.027-7.451,20.174-2.702,21.771,10.087,13.086,9.848,35.32.804,9.228-3.754,16.885-11.96,27.32-11.517,3.534-.202,6.638,2.403,10.002,2.635,2.518.152,4.887-1.62,7.228-2.486,5.691-2.278,11.834,1.318,17.421,2.777,5.814,2.249,22.291-7.478,24.981-1.745,2.857,3.917,4.754,10.698,8.513,14.257,2.986,1.718,6.918-.236,10.266-.104,3.405-.149,6.691.642,9.728,2.128,3.247,1.55,5.983,4.156,9.095,4.532,4.717.099,8.601-3.82,13.458-3.519,9.403-.003,21.249,12.026,16.107,21.215-1.167,2.649-7.495,4.051-11.912,5.536-6.673,2.016-10.271,4.486-16.779.999-3.447-1.076-5.757,1.676-9.557,2.379-1.643.289-3.334.24-4.988.027-20.179-2.931-14.867-15.216-24.803-17.454-6.94-.337-14.109-1.416-19.635-5.713-1.763-1.318-3.71-3.335-5.766-3.582-3.102-.04-5.185,2.696-8.641,3.686-4.536,1.647-9.369-.313-13.969.694-3.088.584-6.304,2.139-9.983,2.216-3.143.133-6.421-.531-9.535-.2-4.59.568-8.926,2.879-13.67,1.878-5.418-.81-10.892-1.915-16.16-3.231-2.48-.578-4.516-.582-6.341,1.021-3.641,4.407-6.995,9.31-11.437,13.088-5.139,5.41-9.443,6.35-15.572,2.651-6.9-2.948-8.096,9.701-15.059,7.825-3.496-.532-6.756-2.959-9.889-3.649-2.449-.563-4.684.84-6.848,1.91-3.933,1.947-8.898,1.786-13.472.759-3.259-.379-6.459-3.232-9.664-2.721-3.821,2.968-1.941,11.438-8.257,14.637-4.283,3.169-9.542,1.943-14.375,1.511-4.534.391-9.552-.564-13.924-.207-3.702.873-6.158,4.136-9.836,5.26-12.668,2.868-13.049,6.431-17.336,17.684-2.201,5.952-1.154,12.025,1.155,17.681,2.852,7.775,5.578,16.654,12.282,21.958,2.737,1.374,6.116-.088,9.054-.426,5.249-.978,10,2.21,12.732,6.726,5.497,10.039,5.119,5.192,13.345,2.874,2.701-.341,5.383,1.361,7.538,1.432,3.944.021,2.748-10.089,8.038-13.375,1.847-1.531,3.54-2.447,4.957-4.464,16.048-28.861,20.629-11.51,38.53-10.674,6.681-1.387,10.722-8.967,17.759-9.948,5.758-1.141,12.51,1.592,16.835,5.607,3.035,2.416,4.377,7.04,7.92,8.675,5.17,1.333,11.232-2.493,16.687-1.328,6.997,1.302,10.473,10.789,11.424,17.379.587,3.13.324,6.715.81,9.926,1.097,7.083,11.866-3.261,20.252-1.518,3.144.273,6.043,2.446,8.577,2.822,4.047.537,7.953-2.204,11.986-.503,4.721,1.514,7.979,5.758,11.977,8.471,5.849,3.431,12.287,4.261,15.731,11.017,2.484,4.536,7.72,6.33,11.949,2.763,6.046-4.984,12.169-6.434,19.792-5.083,6.133.424,12.938-1.152,18.804,1.291,2.54,1.125,4.011,3.447,5.217,5.835,5.778,9.144,7.689,20.584-2.67,27.203-4.086,2.682-9.527,4.288-14.523,4.695-3.398.051-5.265-2.634-8.076-3.138-4.112-.47-7.986,3.142-12.068.501-5.871-3.469-8.128-3.574-13.48,1.276-9.862,7.03-14.665,9.51-24.972,1.549-6.029-4.196-2.153-13.81-7.981-18.358-2.645-1.919-6.155-1.687-9.276-2.061-3.351-.35-6.414-1.827-9.536-2.262-4.758-.866-10.44,1.852-14.648-1.331-3.577-3.14-7.27-10.219-9.061-15.38-1.031-4.998-2.134-9.098-8.248-7.608-20.095,5.069-19.209-3.005-24.575-18.496-3.906-1.977-6.323,8.232-18.055,2.613-3.578-1.392-6.813-3.609-10.267-5.146-6.658-2.624-6.549,9.331-16.232,11.218-2.735.858-6.678,1.598-8.154,3.421-2.782,3.434-.649,10.422-5.328,12.713-4.165,1.871-10.948-1.749-13.996,2.158-1.275,1.833-1.095,5.466-2.674,7.918-4.863,6.711-15.059,6.003-22.176,8.908-11.656,5.485-20.622,4.653-28.427-6.272-1.856-2.412-12.429-7.382-14.396-4.968-2.071,4.311,3.189,9.464,3.038,14.037.503,4.029-1.438,7.46-2.177,11.396-.523,2.918-.101,6.005-.661,8.927-.895,6.405-2.484,12.475-4.443,18.624-.629,3.366.27,6.912-.51,10.639-2.122,6.314-2.36,10.203.708,16.51,1.442,4.19.824,8.699-1.312,12.622-3.092,6.761-7.581,11.927-15.157,12.201-18.698,2.939-23.255-15.748-18.744-30.268.396-3.506-1.324-6.684-1.644-10.136-.627-5.718,1.717-11.82,2.219-17.274,1.171-8.219.62-16.26,2.054-24.34.501-3.205.296-6.474.65-9.824.106-1.577.515-4.094-.588-5.178-4.157-2.7-9.281,2.314-12.817,4.397-2.313,1.497-5.649,2.342-6.898,4.142-3.149,8.05-1.227,10.841-12.151,12.441-4.083,1.282-11.614-.588-13.227,4.12-.9,3.264.45,8.409-1.533,11.83-1.688,3.503-7.507,3.194-9.323,6.575-1.335,2.856-.95,6.529-3.091,9.034-2.335,2.892-4.643,5.871-7.029,8.795-2.077,2.346-5.711,3.939-7.502,6.325-1.935,2.419-2.259,5.547-3.483,8.313-1.167,2.858-3.758,4.999-5.275,7.5-3.127,5.104-3.576,11.558-7.503,16.289-2.52,3.198-5.739,4.801-9.165,7.125-2.927,2.142-6.293,4.294-9.936,4.515-7.527.08-14.364-7.702-21.046-10.686-2.956-1.37-5.719-2.82-8.158-5.011-3.108-2.764-5.477-6.513-9.308-7.303-5.064-.652-10.109,3.275-15.333,2.715-5.675-.128-8.209-7.803-14.251-5.768-16.103.798-7.297,13.962-20.968,16.82-1.957.436-3.835.769-5.083,2.336-2.646,4.348-1.974,10.594-6.082,14.314-5.681,5.429-16.228,8.614-23.183,4.233-3.858-3.344-9.806-8.382-9.658-13.88l.009-.163Z" fill="#09306b" fill-opacity=".65"/>
  <path d="M220.708,299.172c1.131,3.705-1.13,7.796-1.976,11.48-1.926,6.087-4.424,13.532-9.811,17.393-2.568,1.775-5.405,1.562-8.856.788-1.86-.444-4.336-1.123-5.934-.513-1.136.342-2.157,1.522-3.01,2.597-2.288,2.624-4.663,5.943-7.868,7.157-3.222.508-6.647-.822-9.89-1.262-4.874-.63-7.315-2.249-8.694-6.46-2.472-6.857.452-20.187,6.627-24.425,3.415-2.278,7.891,1.081,11.117-1.036,1.288-.857,2.402-2.458,4.112-3.747,2.953-2.122,6.25-3.893,9.433-5.673,3.663-1.813,7.717-4.901,11.601-4.486,2.295.208,4.333,1.437,6.293,2.585,2.329,1.465,5.784,3.029,6.794,5.455l.061.147Z" fill="#09306b" fill-opacity=".65"/>
  <path d="M328.382,199.609c0,1.565-1.269,2.834-2.834,2.834s-2.836-1.269-2.836-2.834,1.269-2.834,2.836-2.834,2.834,1.269,2.834,2.834" vector-effect="non-scaling-stroke" fill="#fff" fill-rule="evenodd" stroke="#232323" stroke-linecap="square" stroke-linejoin="bevel" stroke-width=".24"/>
  <path d="M307.047,184.543c0,1.565-1.269,2.834-2.834,2.834s-2.834-1.269-2.834-2.834,1.267-2.834,2.834-2.834,2.834,1.269,2.834,2.834" vector-effect="non-scaling-stroke" fill="#fff" fill-rule="evenodd" stroke="#232323" stroke-linecap="square" stroke-linejoin="bevel" stroke-width=".24"/>
  <path d="M263.743,226.401c0,1.565-1.267,2.834-2.834,2.834s-2.834-1.269-2.834-2.834,1.269-2.834,2.834-2.834,2.834,1.269,2.834,2.834" vector-effect="non-scaling-stroke" fill="#fff" fill-rule="evenodd" stroke="#232323" stroke-linecap="square" stroke-linejoin="bevel" stroke-width=".24"/>
  <path d="M288.682,235.464c0,1.565-1.269,2.834-2.834,2.834s-2.834-1.269-2.834-2.834,1.269-2.834,2.834-2.834,2.834,1.269,2.834,2.834" vector-effect="non-scaling-stroke" fill="#fff" fill-rule="evenodd" stroke="#232323" stroke-linecap="square" stroke-linejoin="bevel" stroke-width=".24"/>
  <path d="M301.389,241.576c0,1.564-1.269,2.834-2.834,2.834s-2.834-1.269-2.834-2.834,1.269-2.835,2.834-2.835,2.834,1.268,2.834,2.835" vector-effect="non-scaling-stroke" fill="#fff" fill-rule="evenodd" stroke="#232323" stroke-linecap="square" stroke-linejoin="bevel" stroke-width=".24"/>
  <path d="M319.305,247.671c0,1.567-1.269,2.834-2.834,2.834s-2.836-1.267-2.836-2.834,1.269-2.834,2.836-2.834,2.834,1.269,2.834,2.834" vector-effect="non-scaling-stroke" fill="#fff" fill-rule="evenodd" stroke="#232323" stroke-linecap="square" stroke-linejoin="bevel" stroke-width=".24"/>
  <path d="M419.087,224.787c0,1.565-1.267,2.834-2.834,2.834s-2.834-1.269-2.834-2.834,1.269-2.834,2.834-2.834,2.834,1.269,2.834,2.834" vector-effect="non-scaling-stroke" fill="#fff" fill-rule="evenodd" stroke="#232323" stroke-linecap="square" stroke-linejoin="bevel" stroke-width=".24"/>
  <path d="M403.517,227.81c0,1.565-1.269,2.834-2.836,2.834s-2.834-1.269-2.834-2.834,1.269-2.834,2.834-2.834,2.836,1.269,2.836,2.834" vector-effect="non-scaling-stroke" fill="#fff" fill-rule="evenodd" stroke="#232323" stroke-linecap="square" stroke-linejoin="bevel" stroke-width=".24"/>
  <path d="M384.912,231.724c0,1.565-1.269,2.834-2.834,2.834s-2.834-1.269-2.834-2.834,1.269-2.834,2.834-2.834,2.834,1.269,2.834,2.834" vector-effect="non-scaling-stroke" fill="#fff" fill-rule="evenodd" stroke="#232323" stroke-linecap="square" stroke-linejoin="bevel" stroke-width=".24"/>
  <path d="M371.468,234.316c0,1.565-1.267,2.834-2.834,2.834s-2.834-1.269-2.834-2.834,1.269-2.834,2.834-2.834,2.834,1.269,2.834,2.834" vector-effect="non-scaling-stroke" fill="#fff" fill-rule="evenodd" stroke="#232323" stroke-linecap="square" stroke-linejoin="bevel" stroke-width=".24"/>
  <path d="M360.678,228.424c0,1.565-1.269,2.834-2.834,2.834s-2.834-1.269-2.834-2.834,1.267-2.834,2.834-2.834,2.834,1.269,2.834,2.834" vector-effect="non-scaling-stroke" fill="#fff" fill-rule="evenodd" stroke="#232323" stroke-linecap="square" stroke-linejoin="bevel" stroke-width=".24"/>
  <path d="M341.85,211.832c0,1.565-1.267,2.834-2.834,2.834s-2.834-1.269-2.834-2.834,1.269-2.834,2.834-2.834,2.834,1.269,2.834,2.834" vector-effect="non-scaling-stroke" fill="#fff" fill-rule="evenodd" stroke="#232323" stroke-linecap="square" stroke-linejoin="bevel" stroke-width=".24"/>
  <path d="M332.077,259.526c0,1.564-1.269,2.834-2.834,2.834s-2.836-1.269-2.836-2.834,1.269-2.836,2.836-2.836,2.834,1.269,2.834,2.836" vector-effect="non-scaling-stroke" fill="#fff" fill-rule="evenodd" stroke="#232323" stroke-linecap="square" stroke-linejoin="bevel" stroke-width=".24"/>
  <path d="M345.375,270.938c0,1.567-1.269,2.836-2.834,2.836s-2.834-1.269-2.834-2.836,1.269-2.834,2.834-2.834,2.834,1.269,2.834,2.834" vector-effect="non-scaling-stroke" fill="#fff" fill-rule="evenodd" stroke="#232323" stroke-linecap="square" stroke-linejoin="bevel" stroke-width=".24"/>
  <path d="M357.276,284.734c0,1.564-1.269,2.834-2.834,2.834s-2.834-1.269-2.834-2.834,1.269-2.834,2.834-2.834,2.834,1.269,2.834,2.834" vector-effect="non-scaling-stroke" fill="#fff" fill-rule="evenodd" stroke="#232323" stroke-linecap="square" stroke-linejoin="bevel" stroke-width=".24"/>
  <path d="M377.961,182.823c0,1.565-1.269,2.834-2.836,2.834s-2.834-1.269-2.834-2.834,1.269-2.834,2.834-2.834,2.836,1.269,2.836,2.834" vector-effect="non-scaling-stroke" fill="#fff" fill-rule="evenodd" stroke="#232323" stroke-linecap="square" stroke-linejoin="bevel" stroke-width=".24"/>
  <path d="M372.798,193.315c0,1.565-1.269,2.834-2.834,2.834s-2.834-1.269-2.834-2.834,1.269-2.834,2.834-2.834,2.834,1.269,2.834,2.834" vector-effect="non-scaling-stroke" fill="#fff" fill-rule="evenodd" stroke="#232323" stroke-linecap="square" stroke-linejoin="bevel" stroke-width=".24"/>
  <path d="M369.388,220.51c0,1.565-1.269,2.834-2.834,2.834s-2.836-1.269-2.836-2.834,1.269-2.834,2.836-2.834,2.834,1.269,2.834,2.834" vector-effect="non-scaling-stroke" fill="#fff" fill-rule="evenodd" stroke="#232323" stroke-linecap="square" stroke-linejoin="bevel" stroke-width=".24"/>
  <path d="M371.557,234.475c0,1.565-1.269,2.834-2.834,2.834s-2.834-1.269-2.834-2.834,1.269-2.834,2.834-2.834,2.834,1.269,2.834,2.834" vector-effect="non-scaling-stroke" fill="#fff" fill-rule="evenodd" stroke="#232323" stroke-linecap="square" stroke-linejoin="bevel" stroke-width=".24"/>
  <path d="M366.718,242.572c0,1.564-1.269,2.834-2.834,2.834s-2.836-1.269-2.836-2.834,1.269-2.834,2.836-2.834,2.834,1.27,2.834,2.834" vector-effect="non-scaling-stroke" fill="#fff" fill-rule="evenodd" stroke="#232323" stroke-linecap="square" stroke-linejoin="bevel" stroke-width=".24"/>
  <path d="M361.352,256.659c0,1.567-1.269,2.834-2.834,2.834s-2.834-1.267-2.834-2.834,1.269-2.834,2.834-2.834,2.834,1.269,2.834,2.834" vector-effect="non-scaling-stroke" fill="#fff" fill-rule="evenodd" stroke="#232323" stroke-linecap="square" stroke-linejoin="bevel" stroke-width=".24"/>
  <path d="M359.203,270.851c0,1.564-1.269,2.834-2.834,2.834s-2.834-1.269-2.834-2.834,1.269-2.836,2.834-2.836,2.834,1.269,2.834,2.836" vector-effect="non-scaling-stroke" fill="#fff" fill-rule="evenodd" stroke="#232323" stroke-linecap="square" stroke-linejoin="bevel" stroke-width=".24"/>
  <path d="M368.599,204.481c0,1.565-1.269,2.834-2.834,2.834s-2.834-1.269-2.834-2.834,1.267-2.834,2.834-2.834,2.834,1.269,2.834,2.834" vector-effect="non-scaling-stroke" fill="#fff" fill-rule="evenodd" stroke="#232323" stroke-linecap="square" stroke-linejoin="bevel" stroke-width=".24"/>
  <path d="M352.883,221.706c0,1.565-1.269,2.834-2.836,2.834s-2.834-1.269-2.834-2.834,1.269-2.834,2.834-2.834,2.836,1.269,2.836,2.834" vector-effect="non-scaling-stroke" fill="#fff" fill-rule="evenodd" stroke="#232323" stroke-linecap="square" stroke-linejoin="bevel" stroke-width=".24"/>
  <path d="M335.763,230.741c0,1.565-1.269,2.834-2.834,2.834s-2.836-1.269-2.836-2.834,1.269-2.834,2.836-2.834,2.834,1.269,2.834,2.834" vector-effect="non-scaling-stroke" fill="#fff" fill-rule="evenodd" stroke="#232323" stroke-linecap="square" stroke-linejoin="bevel" stroke-width=".24"/>
  <path d="M299.076,254.562c0,1.564-1.269,2.834-2.834,2.834s-2.834-1.269-2.834-2.834,1.269-2.834,2.834-2.834,2.834,1.269,2.834,2.834" vector-effect="non-scaling-stroke" fill="#fff" fill-rule="evenodd" stroke="#232323" stroke-linecap="square" stroke-linejoin="bevel" stroke-width=".24"/>
  <path d="M425.769,90.216c0,1.565-1.267,2.834-2.834,2.834s-2.834-1.269-2.834-2.834,1.269-2.834,2.834-2.834,2.834,1.269,2.834,2.834" vector-effect="non-scaling-stroke" fill="#fff" fill-rule="evenodd" stroke="#232323" stroke-linecap="square" stroke-linejoin="bevel" stroke-width=".24"/>
  <path d="M415.353,104.596c0,1.565-1.269,2.834-2.836,2.834s-2.834-1.269-2.834-2.834,1.269-2.834,2.834-2.834,2.836,1.269,2.836,2.834" vector-effect="non-scaling-stroke" fill="#fff" fill-rule="evenodd" stroke="#232323" stroke-linecap="square" stroke-linejoin="bevel" stroke-width=".24"/>
  <path d="M400.014,115.658c0,1.565-1.269,2.834-2.834,2.834s-2.834-1.269-2.834-2.834,1.267-2.834,2.834-2.834,2.834,1.269,2.834,2.834" vector-effect="non-scaling-stroke" fill="#fff" fill-rule="evenodd" stroke="#232323" stroke-linecap="square" stroke-linejoin="bevel" stroke-width=".24"/>
  <path d="M385.951,136.351c0,1.565-1.269,2.834-2.834,2.834s-2.834-1.269-2.834-2.834,1.269-2.834,2.834-2.834,2.834,1.269,2.834,2.834" vector-effect="non-scaling-stroke" fill="#fff" fill-rule="evenodd" stroke="#232323" stroke-linecap="square" stroke-linejoin="bevel" stroke-width=".24"/>
  <path d="M385.752,149.919c0,1.565-1.269,2.834-2.834,2.834s-2.834-1.269-2.834-2.834,1.267-2.834,2.834-2.834,2.834,1.269,2.834,2.834" vector-effect="non-scaling-stroke" fill="#fff" fill-rule="evenodd" stroke="#232323" stroke-linecap="square" stroke-linejoin="bevel" stroke-width=".24"/>
  <path d="M385.538,163.788c0,1.565-1.269,2.834-2.834,2.834s-2.834-1.269-2.834-2.834,1.267-2.834,2.834-2.834,2.834,1.269,2.834,2.834" vector-effect="non-scaling-stroke" fill="#fff" fill-rule="evenodd" stroke="#232323" stroke-linecap="square" stroke-linejoin="bevel" stroke-width=".24"/>
  <path d="M306.013,354.861c0,1.564-1.269,2.834-2.834,2.834s-2.836-1.269-2.836-2.834,1.269-2.834,2.836-2.834,2.834,1.269,2.834,2.834" vector-effect="non-scaling-stroke" fill="#fff" fill-rule="evenodd" stroke="#232323" stroke-linecap="square" stroke-linejoin="bevel" stroke-width=".24"/>
  <path d="M318.905,340.923c0,1.567-1.267,2.836-2.834,2.836s-2.834-1.269-2.834-2.836,1.269-2.834,2.834-2.834,2.834,1.269,2.834,2.834" vector-effect="non-scaling-stroke" fill="#fff" fill-rule="evenodd" stroke="#232323" stroke-linecap="square" stroke-linejoin="bevel" stroke-width=".24"/>
  <path d="M337.759,329.19c0,1.567-1.269,2.834-2.836,2.834s-2.834-1.267-2.834-2.834,1.269-2.834,2.834-2.834,2.836,1.269,2.836,2.834" vector-effect="non-scaling-stroke" fill="#fff" fill-rule="evenodd" stroke="#232323" stroke-linecap="square" stroke-linejoin="bevel" stroke-width=".24"/>
  <path d="M258.399,268.471c0,1.564-1.269,2.834-2.834,2.834s-2.836-1.269-2.836-2.834,1.269-2.834,2.836-2.834,2.834,1.267,2.834,2.834" vector-effect="non-scaling-stroke" fill="#fff" fill-rule="evenodd" stroke="#232323" stroke-linecap="square" stroke-linejoin="bevel" stroke-width=".24"/>
  <path d="M244.029,268.692c0,1.564-1.267,2.834-2.834,2.834s-2.833-1.269-2.833-2.834,1.269-2.834,2.833-2.834,2.834,1.269,2.834,2.834" vector-effect="non-scaling-stroke" fill="#fff" fill-rule="evenodd" stroke="#232323" stroke-linecap="square" stroke-linejoin="bevel" stroke-width=".24"/>
  <path d="M231.946,278.563c0,1.567-1.269,2.836-2.834,2.836s-2.834-1.269-2.834-2.836,1.269-2.834,2.834-2.834,2.834,1.269,2.834,2.834" vector-effect="non-scaling-stroke" fill="#fff" fill-rule="evenodd" stroke="#232323" stroke-linecap="square" stroke-linejoin="bevel" stroke-width=".24"/>
  <path d="M276.687,266.254c0,1.564-1.269,2.834-2.834,2.834s-2.834-1.269-2.834-2.834,1.269-2.834,2.834-2.834,2.834,1.267,2.834,2.834" vector-effect="non-scaling-stroke" fill="#fff" fill-rule="evenodd" stroke="#232323" stroke-linecap="square" stroke-linejoin="bevel" stroke-width=".24"/>
  <path d="M203.233,308.028c0,1.564-1.269,2.834-2.834,2.834s-2.834-1.269-2.834-2.834,1.269-2.834,2.834-2.834,2.834,1.269,2.834,2.834" vector-effect="non-scaling-stroke" fill="#fff" fill-rule="evenodd" stroke="#232323" stroke-linecap="square" stroke-linejoin="bevel" stroke-width=".24"/>
  <path d="M281.385,373.008c0,1.567-1.269,2.834-2.836,2.834s-2.834-1.267-2.834-2.834,1.269-2.834,2.834-2.834,2.836,1.269,2.836,2.834" vector-effect="non-scaling-stroke" fill="#fff" fill-rule="evenodd" stroke="#232323" stroke-linecap="square" stroke-linejoin="bevel" stroke-width=".24"/>
  <path d="M183.036,322.489c0,1.564-1.269,2.834-2.834,2.834s-2.834-1.269-2.834-2.834,1.269-2.834,2.834-2.834,2.834,1.269,2.834,2.834" vector-effect="non-scaling-stroke" fill="#fff" fill-rule="evenodd" stroke="#232323" stroke-linecap="square" stroke-linejoin="bevel" stroke-width=".24"/>
  <path d="M499.788,206.449c0,1.565-1.269,2.834-2.834,2.834s-2.836-1.269-2.836-2.834,1.269-2.834,2.836-2.834,2.834,1.269,2.834,2.834" vector-effect="non-scaling-stroke" fill="#fff" fill-rule="evenodd" stroke="#232323" stroke-linecap="square" stroke-linejoin="bevel" stroke-width=".24"/>
  <path d="M477.229,211.932c0,1.565-1.269,2.834-2.834,2.834s-2.834-1.269-2.834-2.834,1.269-2.834,2.834-2.834,2.834,1.269,2.834,2.834" vector-effect="non-scaling-stroke" fill="#fff" fill-rule="evenodd" stroke="#232323" stroke-linecap="square" stroke-linejoin="bevel" stroke-width=".24"/>
  <path d="M451.512,217.44c0,1.565-1.269,2.834-2.834,2.834s-2.834-1.269-2.834-2.834,1.269-2.834,2.834-2.834,2.834,1.269,2.834,2.834" vector-effect="non-scaling-stroke" fill="#fff" fill-rule="evenodd" stroke="#232323" stroke-linecap="square" stroke-linejoin="bevel" stroke-width=".24"/>
  <path d="M504.971,296.047c0,1.564-1.269,2.834-2.836,2.834s-2.834-1.269-2.834-2.834,1.269-2.834,2.834-2.834,2.836,1.269,2.836,2.834" vector-effect="non-scaling-stroke" fill="#fff" fill-rule="evenodd" stroke="#232323" stroke-linecap="square" stroke-linejoin="bevel" stroke-width=".24"/>
  <path d="M377.366,318.616c0,1.564-1.269,2.834-2.834,2.834s-2.834-1.269-2.834-2.834,1.269-2.836,2.834-2.836,2.834,1.269,2.834,2.836" vector-effect="non-scaling-stroke" fill="#fff" fill-rule="evenodd" stroke="#232323" stroke-linecap="square" stroke-linejoin="bevel" stroke-width=".24"/>
  <path d="M395.683,325.095c0,1.564-1.269,2.834-2.834,2.834s-2.834-1.269-2.834-2.834,1.267-2.836,2.834-2.836,2.834,1.269,2.834,2.836" vector-effect="non-scaling-stroke" fill="#fff" fill-rule="evenodd" stroke="#232323" stroke-linecap="square" stroke-linejoin="bevel" stroke-width=".24"/>
  <path d="M411.351,337.571c0,1.567-1.269,2.834-2.834,2.834s-2.834-1.267-2.834-2.834,1.267-2.834,2.834-2.834,2.834,1.269,2.834,2.834" vector-effect="non-scaling-stroke" fill="#fff" fill-rule="evenodd" stroke="#232323" stroke-linecap="square" stroke-linejoin="bevel" stroke-width=".24"/>
  <path d="M428.476,335.803c0,1.564-1.269,2.834-2.834,2.834s-2.834-1.269-2.834-2.834,1.267-2.834,2.834-2.834,2.834,1.267,2.834,2.834" vector-effect="non-scaling-stroke" fill="#fff" fill-rule="evenodd" stroke="#232323" stroke-linecap="square" stroke-linejoin="bevel" stroke-width=".24"/>
  <path d="M453.626,318.376c0,1.567-1.269,2.836-2.834,2.836s-2.834-1.269-2.834-2.836,1.269-2.834,2.834-2.834,2.834,1.269,2.834,2.834" vector-effect="non-scaling-stroke" fill="#fff" fill-rule="evenodd" stroke="#232323" stroke-linecap="square" stroke-linejoin="bevel" stroke-width=".24"/>
  <path d="M464.229,301.696c0,1.567-1.269,2.836-2.834,2.836s-2.834-1.269-2.834-2.836,1.267-2.834,2.834-2.834,2.834,1.269,2.834,2.834" vector-effect="non-scaling-stroke" fill="#fff" fill-rule="evenodd" stroke="#232323" stroke-linecap="square" stroke-linejoin="bevel" stroke-width=".24"/>
  <path d="M377.366,318.616c0,1.564-1.269,2.834-2.834,2.834s-2.834-1.269-2.834-2.834,1.269-2.836,2.834-2.836,2.834,1.269,2.834,2.836" vector-effect="non-scaling-stroke" fill="#fff" fill-rule="evenodd" stroke="#232323" stroke-linecap="square" stroke-linejoin="bevel" stroke-width=".24"/>
  <path d="M361.931,295.983c0,1.564-1.267,2.834-2.834,2.834s-2.834-1.269-2.834-2.834,1.269-2.834,2.834-2.834,2.834,1.267,2.834,2.834" vector-effect="non-scaling-stroke" fill="#fff" fill-rule="evenodd" stroke="#232323" stroke-linecap="square" stroke-linejoin="bevel" stroke-width=".24"/>
  <path d="M369.522,311.576c0,1.564-1.267,2.834-2.834,2.834s-2.834-1.269-2.834-2.834,1.269-2.834,2.834-2.834,2.834,1.269,2.834,2.834" vector-effect="non-scaling-stroke" fill="#fff" fill-rule="evenodd" stroke="#232323" stroke-linecap="square" stroke-linejoin="bevel" stroke-width=".24"/>
  <path d="M369.522,311.576c0,1.564-1.267,2.834-2.834,2.834s-2.834-1.269-2.834-2.834,1.269-2.834,2.834-2.834,2.834,1.269,2.834,2.834" vector-effect="non-scaling-stroke" fill="#fff" fill-rule="evenodd" stroke="#232323" stroke-linecap="square" stroke-linejoin="bevel" stroke-width=".24"/>
  <path d="M365.95,331.28c0,1.567-1.267,2.834-2.834,2.834s-2.834-1.267-2.834-2.834,1.269-2.834,2.834-2.834,2.834,1.269,2.834,2.834" vector-effect="non-scaling-stroke" fill="#fff" fill-rule="evenodd" stroke="#232323" stroke-linecap="square" stroke-linejoin="bevel" stroke-width=".24"/>
  <path d="M363.997,355.195c0,1.567-1.269,2.836-2.834,2.836s-2.834-1.269-2.834-2.836,1.267-2.834,2.834-2.834,2.834,1.269,2.834,2.834" vector-effect="non-scaling-stroke" fill="#fff" fill-rule="evenodd" stroke="#232323" stroke-linecap="square" stroke-linejoin="bevel" stroke-width=".24"/>
  <path d="M361.657,371.338c0,1.564-1.267,2.834-2.834,2.834s-2.834-1.269-2.834-2.834,1.269-2.834,2.834-2.834,2.834,1.269,2.834,2.834" vector-effect="non-scaling-stroke" fill="#fff" fill-rule="evenodd" stroke="#232323" stroke-linecap="square" stroke-linejoin="bevel" stroke-width=".24"/>
  <path d="M358.891,385.816c0,1.567-1.269,2.834-2.834,2.834s-2.834-1.267-2.834-2.834,1.267-2.834,2.834-2.834,2.834,1.269,2.834,2.834" vector-effect="non-scaling-stroke" fill="#fff" fill-rule="evenodd" stroke="#232323" stroke-linecap="square" stroke-linejoin="bevel" stroke-width=".24"/>
  <path d="M349.773,330.112c0,1.567-1.269,2.834-2.834,2.834s-2.834-1.267-2.834-2.834,1.269-2.834,2.834-2.834,2.834,1.269,2.834,2.834" vector-effect="non-scaling-stroke" fill="#fff" fill-rule="evenodd" stroke="#232323" stroke-linecap="square" stroke-linejoin="bevel" stroke-width=".24"/>
  <path d="M648.193,209.801c0,1.565-1.269,2.834-2.834,2.834s-2.834-1.269-2.834-2.834,1.267-2.834,2.834-2.834,2.834,1.269,2.834,2.834" vector-effect="non-scaling-stroke" fill="#fff" fill-rule="evenodd" stroke="#232323" stroke-linecap="square" stroke-linejoin="bevel" stroke-width=".24"/>
  <path d="M616.692,191.713c0,1.565-1.269,2.834-2.834,2.834s-2.834-1.269-2.834-2.834,1.269-2.834,2.834-2.834,2.834,1.269,2.834,2.834" vector-effect="non-scaling-stroke" fill="#fff" fill-rule="evenodd" stroke="#232323" stroke-linecap="square" stroke-linejoin="bevel" stroke-width=".24"/>
  <path d="M588.372,188.128c0,1.565-1.269,2.834-2.834,2.834s-2.836-1.269-2.836-2.834,1.269-2.834,2.836-2.834,2.834,1.269,2.834,2.834" vector-effect="non-scaling-stroke" fill="#fff" fill-rule="evenodd" stroke="#232323" stroke-linecap="square" stroke-linejoin="bevel" stroke-width=".24"/>
  <path d="M561.47,193.701c0,1.565-1.269,2.834-2.834,2.834s-2.834-1.269-2.834-2.834,1.267-2.834,2.834-2.834,2.834,1.269,2.834,2.834" vector-effect="non-scaling-stroke" fill="#fff" fill-rule="evenodd" stroke="#232323" stroke-linecap="square" stroke-linejoin="bevel" stroke-width=".24"/>
  <path d="M540.352,197.171c0,1.565-1.269,2.834-2.834,2.834s-2.834-1.269-2.834-2.834,1.267-2.834,2.834-2.834,2.834,1.269,2.834,2.834" vector-effect="non-scaling-stroke" fill="#fff" fill-rule="evenodd" stroke="#232323" stroke-linecap="square" stroke-linejoin="bevel" stroke-width=".24"/>
  <path d="M673.428,213.62c0,1.565-1.269,2.834-2.834,2.834s-2.834-1.269-2.834-2.834,1.269-2.834,2.834-2.834,2.834,1.269,2.834,2.834" vector-effect="non-scaling-stroke" fill="#fff" fill-rule="evenodd" stroke="#232323" stroke-linecap="square" stroke-linejoin="bevel" stroke-width=".24"/>
  <path d="M537.802,310.086c0,1.564-1.269,2.834-2.834,2.834s-2.836-1.269-2.836-2.834,1.269-2.834,2.836-2.834,2.834,1.267,2.834,2.834" vector-effect="non-scaling-stroke" fill="#fff" fill-rule="evenodd" stroke="#232323" stroke-linecap="square" stroke-linejoin="bevel" stroke-width=".24"/>
  <path d="M664.435,354.849c0,1.564-1.269,2.834-2.834,2.834s-2.836-1.269-2.836-2.834,1.269-2.834,2.836-2.834,2.834,1.267,2.834,2.834" vector-effect="non-scaling-stroke" fill="#fff" fill-rule="evenodd" stroke="#232323" stroke-linecap="square" stroke-linejoin="bevel" stroke-width=".24"/>
  <path d="M644.318,354.25c0,1.564-1.267,2.834-2.834,2.834s-2.834-1.269-2.834-2.834,1.269-2.834,2.834-2.834,2.834,1.269,2.834,2.834" vector-effect="non-scaling-stroke" fill="#fff" fill-rule="evenodd" stroke="#232323" stroke-linecap="square" stroke-linejoin="bevel" stroke-width=".24"/>
  <path d="M618.378,360.718c0,1.567-1.269,2.834-2.834,2.834s-2.834-1.267-2.834-2.834,1.269-2.834,2.834-2.834,2.834,1.269,2.834,2.834" vector-effect="non-scaling-stroke" fill="#fff" fill-rule="evenodd" stroke="#232323" stroke-linecap="square" stroke-linejoin="bevel" stroke-width=".24"/>
  <path d="M570.249,333.252c0,1.564-1.269,2.834-2.834,2.834s-2.834-1.269-2.834-2.834,1.267-2.834,2.834-2.834,2.834,1.267,2.834,2.834" vector-effect="non-scaling-stroke" fill="#fff" fill-rule="evenodd" stroke="#232323" stroke-linecap="square" stroke-linejoin="bevel" stroke-width=".24"/>
  <path d="M550.377,322.326c0,1.564-1.269,2.834-2.834,2.834s-2.834-1.269-2.834-2.834,1.269-2.834,2.834-2.834,2.834,1.267,2.834,2.834" vector-effect="non-scaling-stroke" fill="#fff" fill-rule="evenodd" stroke="#232323" stroke-linecap="square" stroke-linejoin="bevel" stroke-width=".24"/>
  <path d="M590.757,336.976c0,1.564-1.267,2.834-2.834,2.834s-2.834-1.269-2.834-2.834,1.269-2.834,2.834-2.834,2.834,1.269,2.834,2.834" vector-effect="non-scaling-stroke" fill="#fff" fill-rule="evenodd" stroke="#232323" stroke-linecap="square" stroke-linejoin="bevel" stroke-width=".24"/>
  <path d="M607.74,345.941c0,1.564-1.269,2.834-2.834,2.834s-2.834-1.269-2.834-2.834,1.267-2.834,2.834-2.834,2.834,1.269,2.834,2.834" vector-effect="non-scaling-stroke" fill="#fff" fill-rule="evenodd" stroke="#232323" stroke-linecap="square" stroke-linejoin="bevel" stroke-width=".24"/>
  <path d="M122.701,456.495c0,1.564-1.269,2.834-2.834,2.834s-2.834-1.269-2.834-2.834,1.269-2.834,2.834-2.834,2.834,1.267,2.834,2.834" vector-effect="non-scaling-stroke" fill="#fff" fill-rule="evenodd" stroke="#232323" stroke-linecap="square" stroke-linejoin="bevel" stroke-width=".24"/>
  <path d="M139.316,436.232c0,1.567-1.269,2.834-2.834,2.834s-2.834-1.267-2.834-2.834,1.269-2.834,2.834-2.834,2.834,1.269,2.834,2.834" vector-effect="non-scaling-stroke" fill="#fff" fill-rule="evenodd" stroke="#232323" stroke-linecap="square" stroke-linejoin="bevel" stroke-width=".24"/>
  <path d="M163.733,417.771c0,1.567-1.269,2.834-2.834,2.834s-2.834-1.267-2.834-2.834,1.269-2.834,2.834-2.834,2.834,1.269,2.834,2.834" vector-effect="non-scaling-stroke" fill="#fff" fill-rule="evenodd" stroke="#232323" stroke-linecap="square" stroke-linejoin="bevel" stroke-width=".24"/>
  <path d="M185.509,424.706c0,1.564-1.269,2.834-2.834,2.834s-2.834-1.269-2.834-2.834,1.269-2.834,2.834-2.834,2.834,1.269,2.834,2.834" vector-effect="non-scaling-stroke" fill="#fff" fill-rule="evenodd" stroke="#232323" stroke-linecap="square" stroke-linejoin="bevel" stroke-width=".24"/>
  <path d="M210.319,441.9c0,1.567-1.269,2.834-2.834,2.834s-2.834-1.267-2.834-2.834,1.269-2.834,2.834-2.834,2.834,1.269,2.834,2.834" vector-effect="non-scaling-stroke" fill="#fff" fill-rule="evenodd" stroke="#232323" stroke-linecap="square" stroke-linejoin="bevel" stroke-width=".24"/>
  <path d="M231.525,445.386c0,1.564-1.269,2.834-2.834,2.834s-2.834-1.269-2.834-2.834,1.269-2.834,2.834-2.834,2.834,1.269,2.834,2.834" vector-effect="non-scaling-stroke" fill="#fff" fill-rule="evenodd" stroke="#232323" stroke-linecap="square" stroke-linejoin="bevel" stroke-width=".24"/>
  <path d="M241.937,435.532c0,1.564-1.267,2.834-2.833,2.834s-2.834-1.269-2.834-2.834,1.269-2.834,2.834-2.834,2.833,1.269,2.833,2.834" vector-effect="non-scaling-stroke" fill="#fff" fill-rule="evenodd" stroke="#232323" stroke-linecap="square" stroke-linejoin="bevel" stroke-width=".24"/>
  <path d="M359.037,427.748c0,1.567-1.267,2.836-2.834,2.836s-2.834-1.269-2.834-2.836,1.269-2.834,2.834-2.834,2.834,1.269,2.834,2.834" vector-effect="non-scaling-stroke" fill="#fff" fill-rule="evenodd" stroke="#232323" stroke-linecap="square" stroke-linejoin="bevel" stroke-width=".24"/>
  <path d="M358.144,405.297c0,1.564-1.269,2.834-2.834,2.834s-2.834-1.269-2.834-2.834,1.267-2.834,2.834-2.834,2.834,1.269,2.834,2.834" vector-effect="non-scaling-stroke" fill="#fff" fill-rule="evenodd" stroke="#232323" stroke-linecap="square" stroke-linejoin="bevel" stroke-width=".24"/>
  <path d="M250.738,418.937c0,1.564-1.269,2.834-2.836,2.834s-2.834-1.269-2.834-2.834,1.269-2.834,2.834-2.834,2.836,1.269,2.836,2.834" vector-effect="non-scaling-stroke" fill="#fff" fill-rule="evenodd" stroke="#232323" stroke-linecap="square" stroke-linejoin="bevel" stroke-width=".24"/>
  <path d="M261.797,402.341c0,1.567-1.269,2.834-2.834,2.834s-2.834-1.267-2.834-2.834,1.267-2.834,2.834-2.834,2.834,1.269,2.834,2.834" vector-effect="non-scaling-stroke" fill="#fff" fill-rule="evenodd" stroke="#232323" stroke-linecap="square" stroke-linejoin="bevel" stroke-width=".24"/>
  <path d="M270.943,389.878c0,1.564-1.269,2.834-2.836,2.834s-2.834-1.269-2.834-2.834,1.269-2.834,2.834-2.834,2.836,1.269,2.836,2.834" vector-effect="non-scaling-stroke" fill="#fff" fill-rule="evenodd" stroke="#232323" stroke-linecap="square" stroke-linejoin="bevel" stroke-width=".24"/>
  <rect x="52.009" y="97.791" width="236.673" height="71.453" fill="#fff" fill-opacity=".24"/>
  <rect x="411.406" y="397.397" width="272.275" height="49.273" fill="#fff" fill-opacity=".24"/>
<style>
#g-map-Artboard_1-layer8-img rect, #g-map-Artboard_1-layer8-img circle, #g-map-Artboard_1-layer8-img path, #g-map-Artboard_1-layer8-img line, #g-map-Artboard_1-layer8-img polyline, #g-map-Artboard_1-layer8-img polygon { vector-effect: non-scaling-stroke; }
</style>
</svg>
