<?xml version="1.0" encoding="UTF-8"?>
<svg id="g-map-Artboard_1-layer10-img" xmlns="http://www.w3.org/2000/svg" baseProfile="tiny" version="1.2" viewBox="0 0 841.68 595.199">
  <!-- Generator: Adobe Illustrator 29.0.1, SVG Export Plug-In . SVG Version: 2.1.0 Build 192)  -->
  <path d="M504.72,240.719c-2.095.599.958,3.457,1.393,4.367,1.442,3.016,2.176,10.476-.785,12.608-4.888,3.52-9.799-1.477-13.861-3.722-1.518-.839-3.448-1.101-5.08-2.12-5.195-3.244-5.57-8.056-8.4-12.72-3.254-5.362-7.871-11.719-11.503-16.807-1.165-1.632-4.562-7.595-7.063-6.022-.769.484-.641,11.338-2.931,14.106-3.741,4.522-10.517,1.518-15.376,2.384-3.356,7.299-8.962,14.292-17.574,15.084-5.656.52-9.616-7.369-13.145-10.752-1.719-1.648-4.571-2.666-6.498-.749-.224.223-1.932,3.415-2.02,3.739-.797,2.902.944,3.473,1.822,5.626,1.495,3.667,1.207,8.555-.353,12.164-2.635,6.095-9.411,9.852-12.157,16.161-.466,1.071-1.082,2.567-.467,3.705.254.47.878.557,1.127.92.407.593.517,1.305.994,1.917.442.568,1.603.756,1.729,1.25,1.221,4.796-6.995,6.641-7.713.882-.597-4.792,4.27-5.484-2.316-9.203-4.498-2.54-12.996-4.27-14.355,2.57-.842,4.237-.862,15.294.83,19.115,1.048,2.366,3.694,3.965,5.21,6.31,1.911,2.957,1.845,5.21,3.083,7.957,2.875,6.382,11.246,7.954,7.462,16.803-1.676,3.918-5.731,5.449-8.306,8.495-4.087,4.834-7.482,13.147-9.833,19.021,2.179,7.995,3.398,16.554.685,24.629-1.531,4.556-6.566,5.547-6.939,13.231-.212,4.375,2.644,6.725,3.266,10.686.609,3.88.103,6.325-1.554,9.736-2.048,4.217-3.703,3.918-3.079,9.78.184,1.733,1.212,3.71,1.348,5.39.329,4.069-5.214,15.988-8.902,17.879-2.167,1.111-7.422,1.025-8.162-1.853-.242-.94.586-1.356.737-2.213.781-4.422,1.294-8.919,2.005-13.354.391-2.44,1.61-5.313,1.416-8.188-.275-4.068-2.424-4.019-4.174-6.174-.432-.532-3.003-5.399-3.017-5.836-.066-2.077,5.047-10.712,5.621-14.034.591-3.424-1.403-6.863-.633-9.272.744-2.332,5.317-4.416,5.82-7.141.322-6.124-1.377-12.417.831-18.372,1.032-2.782,4.569-7.14,4.393-10.053-.211-3.51-2.937-6.377-5.813-8.013l-13.775-3.406c-7.837,1.049-6.039,7.139-7.846,12.351-.688,1.985-9.58,12.588-11.328,13.87-.634.465-6.898,2.935-7.751,3.051-3.223.441-4.758-.526-7.262-.944-.862-.144-4.171-.652-4.69-.474-1.982.68-.425,7.254-.81,9.294-.578,3.063-3.356,3.867-6.095,4.466-5.576,1.219-15.818,1.431-20.034,4.926-.739.612-5.629,6.139-5.797,6.682-.756,2.434.246,4.306.285,6.487.215,11.844-4.886,23.577-14.667,30.492-1.563,1.105-5.73,2.471-6.374,4.666-1.704,5.809,3.645,14.557,1.079,19.798-.923,1.885-6.979,3.922-9.097,3.903-4.093-.037-14.763-3.028-18.511-5.048-6.439-3.47-4.584-10.446-.929-15.263,2.107-2.778,7.161-5.515,10.525-6.404,2.918-.771,6.993-.002,8.894-3.106,1.213-1.981.834-4.608,1.36-6.8.166-.694.79-1.375.993-2.367.363-1.776,1.594-6.798,1.179-8.223-1.065-3.653-6.634-.156-9.017.384-2.608.592-5.699.959-8.361.656-7.433-.844-9.794-8.564-6.958-14.914,1.482-3.316,8.52-14.162,11.338-16.251,3.358-2.489,9.744-3.411,11.759-7.789,1.38-3-.315-6.119-.112-9.225.219-3.342,2.335-7.838,2.86-11.071,1.136-6.997-.846-10.598,3.066-17.073,5.23-8.657,5.004-15.85,9.943-24.054,1.402-2.329,4.496-4.786,4.274-7.754-.12-1.599-3.366-7.304-4.802-8.195-1.496-.928-2.961-.651-4.428-1.332-2.656-1.231-8.827-5.805-11.532-5.157-.31.074-.283.687-.725.895-.477.224-1.146.067-1.794.505-2.736,1.852-4.43,7.243-8.614,7.268-.57.003-2.722-.341-3.014-.632-.332-.331-1.233-7.523-1.704-9.096-1.128-3.77-3.974-6.49-4.998-9.398-2.433-6.909,3.425-6.292,7.35-7.755,5.869-2.189,6.815-8.285,11.003-11.557,7.752-6.058,15.097-4.179,16.072-16.568.177-2.244-.342-5.095.032-7.168.777-4.3,3.933-10.942,7.01-14.127,3.143-3.254,8.18-4.648,6.656-10.635-.806-3.168-4.146-6.78-5.491-9.49-2.779-5.6.876-4.615,2.565-7.807,2.308-4.363,1.877-8.195,6.204-12.276,4.483-4.229,7.201-3.326,12.51-4.049,5.43-.739,6.535-6.494,11.179-7.543,4.782-1.08,7.865,1.318,11.961,1.758,7.153.769,13.432-4.238,20.504-1.302,2.278.946,10.37,6.577,12.619,8.268,1.136.854,2.48,3.057,3.661,3.824,4.129,2.682,6.286.242,10.191-.172,10.14-1.074,26.431,5.637,25.702-11.298-.209-4.844-2.429-16.899-4.107-21.33-2.022-5.339-5.616-10.635-5.983-16.576-.339-5.485,1.525-12.89.955-18.237-.529-4.964-3.037-9.457-3.382-14.857-.155-2.427-.572-5.475,1.698-6.979,2.301-1.524,5.43-1.127,7.864-.184,3.311,1.282,12.564,11.336,13.035,14.802.658,4.846-2.043,5.984-2.373,9.684-.261,2.926,1.382,4.279,3.159,6.359,2.699,3.16,7.674,6.615,10.024,9.619,1.173,1.499,1.926,5.173,1.061,6.904-.346.693-1.033.72-1.338,1.173-4.827,7.189-10.003,12.093-10.541,21.489-.122,2.124.523,3.983.441,5.685-.111,2.309-2.486,4.596-1.541,6.888,1.11,2.693,4.051,2.197,6.19,2.943,1.897.661,2.963,3.581,4.618,4.509,1.348.756,3.394.881,4.776,1.476,1.488.64,12.46,8.881,13.364,10.153.705.992.717,2.342,1.405,3.398,3.183,4.888,7.159,8.197,8.119,14.441.646,4.201.232,7.931,2.36,12.04.37.715,5.423,6.272,5.981,6.498,5.227,2.107,2.604-1.392,2.299-3.258-.342-2.088-.236-4.866-.567-7.114-.342-2.323-1.852-5.961-1.168-8.014.512-1.538,5.266-3.918,6.88-4.164,3.047-.465,15.25-.118,16.77-1.232,3.284-2.407,2.765-13.164,8.831-15.888,1.376-.618,5.994-2.029,7.294-1.709.313.077.286.683.725.889.397.186,1.11.054,1.492.317,2.808,1.94,5.193,6.406,9.303,5.482.152-.034,2.187-2,2.276-2.127.819-1.166,2.786-5.201,2.159-6.495-.992-2.049-8.49-1.498-10.92-5.902-4.693-8.508,2.238-11.482,5.268-17.497,2.271-4.508,3.376-13.667,10.404-12.579,2.378.368,5.19,5.735,5.52,7.925.446,2.968-.022,6.151-.972,8.95-.824,2.429-3.017,6.562-3.753,8.916-.431,1.379-1.285,4.818-.535,6.002.542.856,8.506,2.401,10.091,2.98,1.082.395,4.803,2.544,5.264,3.499.821,1.701.558,4.028,1.837,6.2,1.508,2.561,3.654,3.162,6.56,3.027.696-.032,4.068-1.422,4.117-1.691.143-.771-.097-1.297-.476-1.939-1.569-2.657-7.257-3.238-7.726-6.67-.537-3.926,2.152-10.696,4.158-14.132,1.774-3.039,4.071-5.263,7.667-5.773,6.958-.986,18.014,5.01,15.532,13.136-1.002,3.281-5.631,7.369-5.726,10.158-.107,3.119,6.635,6.484,4.337,12.929-2.217,6.217-10.093,7.653-14.891,11.027-.422.297-3.766,4.129-3.831,4.414-.433,1.897.265,5.045,1.265,6.72,1.497,2.506,4.962,2.383,3.771,6.394-.996,3.354-5.135,6.89-8.412,7.908-.899.279-6.601,1.673-6.967,1.673-1.744,0-6.441-.355-7.68,0ZM380.984,125.616c-.75.164-2.657,1.473-3.241,2.046-3.42,3.362-2.819,8.728-1.294,12.847,2.074,5.603,6.205,10.05,11.882,4.94,3.765-3.389,6.027-10.592,3.086-15.108-1.889-2.902-6.938-5.492-10.433-4.725ZM533.597,173.2c-1.358-1.155-4.021-1.323-5.728-1.004-3.44.643-5.556,6.824-3.908,9.924,1.726,3.249,7.215,2.63,9.29.146,2.327-2.786,3.587-6.309.346-9.066ZM324.789,176.09c-5.552-5.252-9.585-2.963-15.909-3.006-5.572-.038-11.463-2.202-16.277,2.407-.709.678-.62,1.429-.905,1.724-.179.185-4.066,2.208-4.562,2.4-5.88,2.281-12.477-1.183-15.806,5.794-4.416,9.256,5.157,16.377,13.575,13.576,2.007-.668,4.128-2.848,6.582-2.344,1.988.408,2.591,2.462,3.716,3.515,1.758,1.645,8.497,4.812,10.93,5.39,1.83.434,7.115.548,8.134,1.226.321.214.445.99.817,1.333,1.929,1.78,2.028,2.708,3.625,4.544,3.15,3.621,7.932,4.726,9.472,9.724,1.812,5.882-2.808,4.797-6.148,8.462-12.584,5.172-27.261,8.326-38.652,15.566-2.393,1.521-7.198,2.938-10,2.454-.73-.126-1.281-.828-1.964-.914-1.786-.224-5.84-.512-7.395.246-1.92.936-3.266,4.961-4.854,6.182-4.328,3.328-11.687,2.378-16.039,6.02-1.583,1.325-6.231,7.151-7.364,8.977-5.306,8.556,2.727,7.839,8.749,9.317,4.383,1.076,7.96,5.908,11.565,8.597,1.309.976,4.444,2.157,5.329,3.041,1.574,1.572,5.861,9.442,5.864,11.598.001.861-.47,2.131-.786,2.972-1.924,5.13-7.837,6.149-10.258,11.819-1.728,4.045-.814,8.567-1.961,12.439-1.114,3.762-5.108,6.916-6.467,10.333-1.721,4.329-2.261,17.238-.701,21.578.795,2.211,3.526,4.028,2.903,6.047-3.638,3.243-7.07,6.702-10.497,10.162-4.307,4.348-3.633,3.557-8.779,6.581-8.015,4.708-14.931,22.218.396,20.555,6.302-.684,8.358-5.368,11.98-9.139,3.972-4.135,6.229-.487,9.096-.951,6.729-1.087,10.738-8.109,9.838-14.591-.66-4.759-5.073-7.572-6.312-10.978-.929-2.555,2.583-3.293,4.441-4.897,3.832-3.31,7.166-7.621,8.607-12.513.684-2.321.696-5,1.448-7.197,1.546-4.52,9.956-6.506,13.74-8.871l7.397,2.412c.157-2.315-2.361-3.927-1.201-6.253.068-.136,2.028-2.056,2.163-2.125.91-.465,1.961-.142,2.9-.478,8.393-3.001,10.647-23.471,6.226-30.268-4.556-7.004-14.376-4.073-20.598-7.242-4.419-2.251-8.225-7.508-8.681-12.439-.325-3.521-.971-8.885,2.961-9.984,3.882-1.085,4.123-.63,7.643-2.896,3.011-1.939,7.101-5.483,10.762-5.615,2.828-.101,10.635,3.51,13.087,5.176,2,1.358,3.978,5.447,5.889,6.579,2.378,1.408,5.86,1.45,8.396,2.163,1.278.359,8.46,3.758,9.659,4.507.873.545,2.977,3.073,3.88,3.682,5.289,3.564,11.069,5.905,14.912,11.36,1.65,2.342,1.947,5.443,3.731,7.309,1.891,1.978,5.81,2.32,6.775,5.225.937,2.821.895,8.861-.891,11.314-1.058,1.453-6.06,4.107-7.831,4.649-2.626.804-17.146,2.684-9.143,8.143,2.722,1.857,5.195,1.419,7.891,2.189,2.463.704,5.981,4.258,8.731,5.669,4.958,2.544,8.73,3.462,12.566-1.265,4.663-5.746,7.052-14.897,2.244-21.224-2.494-3.281-7.906-9.693-9.142-13.418-1.545-4.658.201-7.194.53-11.536.52-6.86-1.266-13.273,1.059-20.061,1.299-3.793,5.304-7.892,6.445-11.315,1.112-3.336.739-7.04,1.63-10.37.805-3.008,5.549-12.155,7.342-14.988.097-.153,2.442-2.45,2.61-2.519,4.771-1.95,7.247,1.657,10.319.898.324-.08.356-.696.508-.755,4.914-1.918,5.101-3.553,8.708-6.429,4.623-3.685,5.019-2.449,8.317-8.004,2.125-3.58,4.194-6.062,2.753-10.739-.687-2.232-3.611-3.504-5.185-4.767-6.705-5.383-10.225-8.948-19.799-8.16-1.8.148-8.549,2.435-9.001,2.326-2.397-.575-5.143-4.405-7.113-5.901-6.335-4.809-12.774-5.81-20.394-3.179-2.892.999-6.426,4.084-9.574,4.08-1.942-.002-11.817-3.825-13.23-5.223-1.669-1.65-2.251-6.701-5.42-9.699ZM512.512,230.991c1.155-.932,1.335-4.823.97-6.236-.678-2.626-6.554-6.437-9.009-7.309-2.494-.885-5.303-.609-7.679-1.441-9.361-3.279-8.23-11.796-16.289-15.871-.658-.333-5.705-2.123-6.024-2.124-.224,0-3.851,1.501-4.108,1.774-.764.81-2.901,6.48-3.117,7.792-1.436,8.733,5.755,19.835,13.516,23.494,1.691.797,4.265,1.799,6.062,1.362,1.962-.476,6.948-3.614,8.325-3.725.888-.071,2.03.914,3.142,1.15,2.721.578,12.292,2.683,14.21,1.134ZM309.3,215.572c-.296-.22-.343-.82-.995-1.14-6.183-3.042-13.88-.482-20.565-.573-3.808-.052-6.76-1.916-8.962,2.999-1.338,2.986-2.103,7.263-3.655,10.745-1.256,2.817-4.305,6.227-1.954,9.947,2.537,4.014,6.69-.972,8.64-1.821.532-.231,4.719-1.582,5.09-1.637.338-.05,5.145,1.241,6.625,1.343,6.278.433,16.374-.904,20.4-6.47,3.099-4.283-1.055-10.744-4.625-13.392ZM418.704,233.373c3.787,2.758,5.956-1.305,3.625-5.303-4.367-7.49-7.472,2.501-3.625,5.303ZM295.064,267.758c-4.352-1.62-8.308,2.94-11.675,4.59-4.749,2.328-10.221,1.259-6.048,9.03,5.966,11.11,16.792,3.452,25.134,7.986,9.368,5.091,5.41,19.009,6.173,27.427.203,2.245,1.076,5.255,2.896,6.704.733.583,3.569,1.768,4.538,1.766.513,0,6.177-1.478,6.955-1.746,2.431-.84,4.303-2.709,6.393-3.687,3.813-1.785,11.578-2.488,13.811-5.898.909-1.388-.447-1.788-.857-3.035-2.227-6.773.388-15.194-7.834-18.085-4.381-1.54-6.7-.097-11.468-2.932-2.917-1.735-4.317-4.421-6.438-5.796-2.663-1.727-6.968-2.849-9.683-4.963-4.688-3.65-4.745-7.989-11.386-10.602-.391-.154-.403-.719-.511-.759ZM303.523,359.115c2.056,1.88,5.759,3.19,8.502,2.346,4.642-1.43,5.074-4.217,7.665-7.211,5.452-6.299,9.257-9.083,9.012-18.735-.158-6.22-8.562-5.365-13.041-4.974-4.258.372-7.789,1.378-10.624,4.736-.948,1.123-1.311,2.482-1.99,3.308-1.079,1.313-3.162,2.544-3.94,4.203-1.812,3.864.284,10.258,2.399,13.784.256.426,1.678,2.234,2.017,2.544ZM294.237,359.757c.694-2.747-6.767-8.22-5.061-3.334.7,2.006,3.154,2.86,5.061,3.334ZM288.81,371.138c3.813-4.776-9.585-10.218-8.468-1.578.536,4.147,6.449,4.107,8.468,1.578ZM359.803,409.494c3.855-5.198-2.332-13.783-7.732-9.904-2.436,1.75-2.894,7.676-1.407,10.066,2.179,3.502,6.899,2.859,9.139-.162ZM254.75,404.003c-4.32.915-11.034,15.16-6.261,16.621,6.965,2.133,13.35-13.137,8.585-16.258-.833-.545-1.374-.564-2.324-.363ZM230.763,433.805c-7.646,1.006-12.434,10.509-4.393,14.705,8.475,4.422,19.673.158,14.304-10.464-1.912-3.783-5.944-4.763-9.911-4.241Z" fill="#deebf7"/>
  <path d="M478.254,279.419c.83.59,2.165.651,2.906,1.658,2.065,2.809-1.38,5.776-1.908,8.573-.854,4.525.272,6.042-2.119,10.841-1.985,3.985-4.833,8.901-9.487,9.713-7.653,1.335-6.378-4.383-12.128-6.363-3.008-1.036-4.141-.152-6.479-.24-4.306-.161-9.593-1.948-11.442,3.914-1.015,3.218,2.155,10.712,3.91,13.697,2.267,3.855,10.148,11.072,3.42,15.234-3.493,2.161-15.441,2.702-13.793,8.093,1.452,4.75,11.561,2.139,15.916,4.73,2.776,1.651,5.26,6.146,5.622,9.275.272,2.346-2.202,6.767-2.405,9.684-.33,4.74,2.675,9.792-2.447,13.351-2.63,1.827-4.587,1.824-7.359.199-3.127-1.833-3.49-5.493-5.583-7.858-1.379-1.558-3.706-2.483-5.055-4.065-1.295-1.52-2.021-3.729-3.1-5.412-.477-.743-1.999-1.577-2.608-2.8-1.035-2.079-1.576-6.105-1.261-8.389.391-2.837,3.188-6.988.481-9.565-2.344-2.232-5.89-4.394-8.36-6.505-9.68-8.272-2.146-16.001-3.194-25.138-.368-3.214-6.008-5.971-6.928-10.34-.687-3.258-.262-8.386,1.084-11.449.877-1.995,3.1-4.122,5.455-3.732,1.078.179,5.524,3.087,6.647,3.915,4.894,3.609,6.858,8.245,14.177,6.897,2.138-.394,4.343-3.671,6.018-5.023,6.327-5.107,15.689-5.879,21.842-11.259,2.516-2.2,1.013-4.454,1.913-6.266.509-1.025,4.53-2.083,5.734-1.887,3.318.539,7.841,4.605,10.53,6.518ZM421.787,322.417c-4.23.955-2.748,10.802,3.52,8.805,4.798-1.529,1.087-9.844-3.52-8.805Z" fill="#deebf7"/>
  <path d="M194.702,192.902c2.787,1.799,3.468,4.196,1.618,7.128-1.957,3.101-7.103,6.612-9.137,9.361-3.221,4.353-1.027,9.753-2.03,14.162-.175.767-2.527,6.761-2.927,7.404-.068.11-1.756,1.722-1.875,1.772-2.831,1.198-4.899-2.851-5.144-5.217-.504-4.86,1.673-8.414,3.387-12.831.194-.5,1.237-.241.865-.997-1.312-1.795-1.53-5.227-2.616-7.007-2.779-4.551-11.291-6.179-13.417-12.026-2.644-7.273-5.301-24.284,1.933-29.292,3.547-2.455,9.628.326,11.97,3.391,3.625,4.743,1.162,10.101,4.119,15.561,3.558,6.57,8.459,5.496,13.254,8.591ZM169.484,181.246c-.647.427-.937,3.833.43,4.521,4.056,2.042,2.446-6.422-.43-4.521Z" fill="#deebf7"/>
  <path d="M229.776,147.746c.174.123,2.545,2.941,2.743,3.254,1.433,2.271,2.09,6.009,3.633,8.369,4.481,3.248,9.615,2.672,13.878,6.761,5.711,5.478,5.074,15.055,6.319,22.481.132.788.795,1.334.956,2.401,1.016,6.745-4.316,5.82-9.266,7.02-.392.095-.35.833-.693.914-4.625,1.096-18.486-4.254-22.269-7.396-2.669-2.217-5.267-8.533-5.108-11.903.188-3.981,5.684-10.405,4.272-14.57-.121-.356-2.547-2.831-3.016-3.244-3.368-2.965-8.341-5.139-11.236-8.942-4.822-6.335-.41-12.511,6.928-9.807,1.792.66,3.982,2.582,5.892,3.227,1.752.592,5.872.663,6.967,1.436ZM230.1,187.73c3.061,2.152,10.76,2.844,14.17,1.339,5.438-2.399,7.149-12.201,4.771-17.15-2.973-6.187-11.748-8.08-17.331-4.511-2.419,1.546-5.671,9.338-5.676,12.111-.004,2.047,2.372,7.02,4.067,8.211Z" fill="#deebf7"/>
  <path d="M176.491,361.83c.418.314,4.184,4.522,4.667,5.171.59.792,1.633,2.139,1.703,3.096.253,3.442-4.357,10.97-3.257,14.31.313.952,5.551,3.764,6.824,5.164,4.999,5.502,3.228,15.084-3.385,18.591-3.779,2.004-5.822,1.047-8.311-2.095-2.955-3.732-3.255-7.229-2.185-11.761.765-3.239,3.587-6.466,2.561-9.737-.482-1.538-7.086-3.578-8.525-7.794-1.684-4.934-1.294-16.371,5.984-16.101.871.032,3.299.685,3.924,1.155Z" fill="#deebf7"/>
  <path d="M461.149,153.971c2.596,1.705,1.345,6.644.372,8.989-1.534,3.697-7.467,12.293-10.031,15.648-5.915,7.741-13.153,3.258-16.288-4.21-.548-1.305-1.797-5.492-1.776-6.857.013-.806.332-1.767.639-2.52,4.984-3.782,10.074-7.376,15.921-9.757,2.712-1.105,8.556-3.006,11.164-1.293Z" fill="#deebf7"/>
  <path d="M428.827,93.072c-2.786,2.661-6.367,4.148-10.153,4.962-3.081.662-6.406.824-9.377-.95-4.736-2.828-5.21-9.082-2.176-13.504,5.702-8.309,14.746-4.741,23.189-5.09,5.387,1.951,2.772,9.426.455,12.913-.593.893-1.287,1.047-1.938,1.669Z" fill="#deebf7"/>
  <path d="M293.085,495.415c-3.33,4.018-11.726,4.042-15.888,1.147-5.585-3.884-4.801-8.584-.962-13.449,1.734-2.198,10.031-9.181,12.521-9.59,3.207-.526,6.818,4.277,7.29,7.071.824,4.877.288,10.902-2.96,14.821Z" fill="#deebf7"/>
  <path d="M322.707,410.951c-2.995-1.191.225-4.549.301-4.933.309-1.573-4.752-2.914-5.589-3.674-.408-.371-.527-1.401-1.091-2.031-2.969-3.317-11.511-11.228-7.705-15.851,1.127-1.37,6.545-3.015,8.398-3.118,4.261-.238,10.545,1.805,12.026,6.247,1.471,4.409-.675,12.839-2.643,17.025,9.197,3.351,2.951,8.98-3.697,6.335Z" fill="#deebf7"/>
  <path d="M439.86,256.252c1.917-3.512,6.966-6.954,11.101-6.934,3.129.015,4.563,1.026,6.073,3.567,3.166,5.327,1.742,10.534,1.821,16.416.031,2.341,1.512,4.428-2.165,4.994-2.296.353-8.715-2.182-11.095-3.25-2.048-.919-5.783-2.698-6.813-4.707-1.323-2.581-.286-7.585,1.079-10.086Z" fill="#deebf7"/>
  <path d="M214.734,341.819c-1.498-1.01-6.975-5.778-7.867-7.247-2.998-4.938,1.648-16.419,8.303-15.026,3.064.642,8.075,6.115,9.338,8.904,1.451,3.203,2.103,10.818,1.544,14.241-.911,5.574-8.664.917-11.318-.872Z" fill="#deebf7"/>
  <path d="M229.296,469.822c.146.191,1.342,3.166,1.45,3.591,1.243,4.867,1.619,10.293,1.55,15.208-.031,2.237.972,8.626-1.673,8.903-2.415.252-1.912-1.457-2.822-2.447-3.615-3.931-8.673-7.388-10.44-12.613-2.31-6.83-3.408-18.721,7.682-15.347.446.136,4.081,2.481,4.253,2.706Z" fill="#deebf7"/>
  <path d="M741.452,114.624c1.342,1.742,1.292,4.14,2.451,5.954-1.492,4.554-4.223,7.755-9.321,8.24-8.93.848-17.858-5.32-16.456-15.016.941-6.512,11.303-6.382,16.06-4.627,1.907.703,6.046,3.865,7.267,5.45ZM727.538,114.58c-4.229,1.25-2.065,7.394,3.734,7.603,8.161.294,2.738-9.516-3.734-7.603Z" fill="#deebf7"/>
  <path d="M678.238,334.316c-3.388-.755-8.128.003-9.635,3.566-.416.985-.963,5.108-.965,6.279-.006,3.895,2.021,8.509-2.587,11.29-2.944,1.777-11.613.102-12.964-2.9-.879-1.953.202-8.87.851-11.134,2.035-7.093,5.566-4.646,10.602-7.157,3.582-1.786,2.882-4.384,8.095-3.654.787.11,8.197,2.302,6.602,3.711Z" fill="#deebf7"/>
  <path d="M610.842,265.972c-1.129,2.372-4.158,6.438-6.572,7.576-2.371,1.117-3.672,1.241-5.187-1.057-3.464-5.257-3.445-10.139-1.189-15.878,1.284-3.266,3.244-6.807,7.147-6.813,8.861-.014,8.691,10.103,5.801,16.172Z" fill="#deebf7"/>
  <path d="M711.187,184.257c.439.235,2.298,2.489,2.451,3.06,1.63,6.087-8.847,10.709-8.552,16.199.085,1.582,1.568,3.15.993,5.044-1.351,1.331-7.551-3.782-8.044-5.637-1.114-4.195.116-11.824,2.311-15.571,2.026-3.458,7.198-5.043,10.84-3.095Z" fill="#deebf7"/>
  <path d="M773.955,219.406c-.302-.217-2.804-2.711-2.994-2.987-4.548-6.578,1.028-15.265,8.586-12.926,1.483.459,5.462,5.041,5.947,6.533.892,2.74-.336,6.861-1.631,9.356-2.123,4.09-7.084,2.049-9.908.024Z" fill="#deebf7"/>
  <path d="M418.908,260.026c3.509-.337,11.131,3.977,11.936,7.547,1.068,4.734-4.965,10.566-9.537,9.536-2.362-.532-6.351-4.136-6.95-6.508-.843-3.34.261-10.164,4.551-10.576Z" fill="#deebf7"/>
  <path d="M180.176,420.889c2.095-3.419,9.991-1.997,13.363-.989,4.388,1.312,7.305,4.338,3.999,8.517-3.008,3.802-10.59,5.274-14.625,2.59-1.429-.951-3.965-4.244-4.274-5.858-.058-.305,1.291-3.857,1.537-4.259Z" fill="#deebf7"/>
  <path d="M428.805,167.925c-1.07,1.078-2.517,2.758-3.867,3.552-3.871,2.274-4.82,1.843-7.545-1.831-2.539-3.423-3.804-6.795-.984-10.517.947-1.25,5.136-2.666,6.681-2.394,2.034.358,7.128,5.647,7.746,7.649.762,2.472-.865,2.366-2.031,3.54Z" fill="#deebf7"/>
  <path d="M247.483,138.676c-1.675-1.68-2.772-2.803-2.47-5.507.08-.715,1.439-4.137,1.848-4.635,3.276-3.988,10.5,2.421,12.548,5.177,7.253,9.759-6.615,10.29-11.925,4.965Z" fill="#deebf7"/>
  <path d="M200.489,360.87c2.449,2.558,1.823,7.364.253,10.271-1.777,3.29-4.587,2.501-7.513,3.048-.841.157-1.382.86-2.451.981-.248.028-3.45-1.547-3.609-1.697-1.997-1.881-.147-4.407,1.448-5.815.587-.518,1.44-.611,1.886-1.019,2.302-2.108,6.865-9.028,9.985-5.769Z" fill="#deebf7"/>
  <path d="M141.324,431.558c2.736,2.186,3.547,4.656,2.232,8.156-1.507,4.011-7.843,7.241-10.548,2.798-.107-.176-1.361-3.687-1.392-3.891-.031-.2,1.078-3.504,1.24-3.846,1.371-2.895,4.027-5.487,7.479-4.37.547.177.648.881.99,1.154Z" fill="#deebf7"/>
  <path d="M337.794,49.817c1.175.479,1.92,3.177,2.036,4.428.439,4.718-.664,12.709-7.338,10.699-2.265-.682-2.988-9.26-2.493-11.429.783-3.43,4.578-5.009,7.795-3.698Z" fill="#deebf7"/>
  <path d="M293.588,144.431c.448.222,1.549,1.776,1.713,2.324,3.104,10.375-18.404,5.987-16.832.229,1.008-3.692,12.338-3.928,15.119-2.553Z" fill="#deebf7"/>
  <path d="M160.147,230.475c-.074.116-1.509,2.016-1.607,2.112-2.469,2.412-6.773,1.095-8.24-1.769-2.371-4.629,1.783-11.34,6.916-10.773,2.784.308,4.955,5.273,4.326,7.722-.161.626-.996,2.081-1.395,2.708Z" fill="#deebf7"/>
  <path d="M587.403,331.799c-.184.171-4.54,1.527-4.787,1.48-1.325-.25-5.129-2.191-5.56-3.621-1.624-5.393,9.044-13.625,11.777-6.973,1.019,2.479.561,7.263-1.431,9.113Z" fill="#deebf7"/>
  <path d="M364.644,66.152c3.07,3.636-.113,10.127-4.504,10.785-.391.059-3.513-1.581-4.005-2.033-.736-.677-2.419-3.924-2.423-4.825-.003-.673,2.092-4.485,2.583-4.9,2.178-1.841,6.559-1.147,8.349.973Z" fill="#deebf7"/>
  <path d="M319.525,65.207c1.038.619,3.179,3.271,3.233,4.551.165,3.887-3.147,5.162-6.563,4.284-1.541-.396-6.695-3.717-7.316-5.171-3.145-7.357,6.742-5.993,10.646-3.665Z" fill="#deebf7"/>
  <path d="M304.463,420.555c-.092-.032-.814-1.132-1.618-1.091-3.628-6,9.376-10.729,12.26-7.369,1.149,1.339,1.153,5.753-.239,6.93-1.114.941-8.932,2.038-10.403,1.53Z" fill="#deebf7"/>
  <path d="M482.266,77.653c2.255,1.466,1.231,6.101-.522,7.85-1.113,1.11-5.253,2.872-6.659,2.479-6.406-1.789-2.627-10.559,3.78-10.915.689-.038,2.916.27,3.401.586Z" fill="#deebf7"/>
  <path d="M460.544,69.584c-2.197,1.887-8.407,2.203-8.89-1.404-1.2-8.959,12.388-8.6,10.485-.6-.257,1.082-.854,1.367-1.595,2.004Z" fill="#deebf7"/>
  <path d="M572.046,203.165c-.389.389-1.488.606-2.055.615-7.302.109-9.689-12.461-3.447-11.452,3.055.494,7.886,8.454,5.502,10.837Z" fill="#deebf7"/>
  <path d="M147.229,484.157c2.865-.817,9.992,3.623,7.072,7.104-3.421,4.079-11.409-1.077-8.882-5.528.209-.368,1.404-1.461,1.81-1.577Z" fill="#deebf7"/>
  <path d="M670.371,213.548c-.485-.484-1.068-.377-1.257-1.373-.375-1.978-.139-5.874,2.277-6.4,5.887-1.281,6.75,8.348,1.772,9.007-2.137.283-1.743-.188-2.792-1.235Z" fill="#deebf7"/>
  <path d="M391.518,357.433c5.152-1.746,5.704,8.599,2.726,9.474-3.857,1.133-6.028-8.355-2.726-9.474Z" fill="#dfebf7"/>
  <path d="M376.2,381.965c2.77,2.687,1.049,8.307-2.93,6.992-.272-.09-2.313-2.414-2.446-2.815-1.218-3.694,3.546-5.952,5.375-4.177Z" fill="#dfecf7"/>
  <path d="M144.069,125.586c2.156-1.166,11.276-.997,7.862,2.827-2.853,3.196-8.923,2.228-7.862-2.827Z" fill="#dfebf7"/>
  <path d="M638.882,355.917c1.844,5.663-8.016,8.428-6.622,2.267.678-2.996,4.287-2.205,6.622-2.267Z" fill="#dfebf7"/>
  <path d="M535.064,225.923c4.26-1.266,4.089,6.484.369,6.469-.187,0-2.012-1.241-2.186-1.479-1.224-1.674.035-4.461,1.816-4.99Z" fill="#dfebf7"/>
  <path d="M118.384,399.904c.568-.573.47-1.557,1.771-1.209,4.591,1.228-1.923,6.604-3.006,3.025-.387-1.28.688-1.264,1.235-1.816Z" fill="#e1edf8"/>
  <path d="M136.833,117.326c-.942-.818-.286-4.173,1.916-2.635,1.706,1.191-.701,3.69-1.916,2.635Z" fill="#e2edf8"/>
  <rect x="253.438" y="103.442" width="2.404" height="1.915" fill="#e5eff9"/>
  <path d="M324.789,176.09c3.17,2.999,3.752,8.049,5.42,9.699,1.413,1.398,11.288,5.221,13.23,5.223,3.147.004,6.682-3.081,9.574-4.08,7.62-2.632,14.059-1.631,20.394,3.179,1.97,1.496,4.715,5.326,7.113,5.901.452.108,7.202-2.178,9.001-2.326,9.574-.788,13.095,2.777,19.799,8.16,1.574,1.264,4.497,2.536,5.185,4.767,1.441,4.677-.628,7.16-2.753,10.739-3.298,5.555-3.693,4.318-8.317,8.004-3.608,2.876-3.794,4.511-8.708,6.429-.152.059-.184.675-.508.755-3.071.759-5.548-2.848-10.319-.898-.168.069-2.513,2.366-2.61,2.519-1.794,2.834-6.537,11.98-7.342,14.988-.891,3.331-.518,7.034-1.63,10.37-1.141,3.424-5.145,7.522-6.445,11.315-2.325,6.788-.539,13.201-1.059,20.061-.329,4.342-2.075,6.878-.53,11.536,1.236,3.725,6.648,10.137,9.142,13.418,4.809,6.327,2.419,15.478-2.244,21.224-3.836,4.727-7.607,3.809-12.566,1.265-2.75-1.411-6.268-4.965-8.731-5.669-2.696-.77-5.169-.332-7.891-2.189-8.003-5.459,6.517-7.339,9.143-8.143,1.771-.542,6.773-3.195,7.831-4.649,1.786-2.453,1.828-8.493.891-11.314-.964-2.905-4.884-3.247-6.775-5.225-1.784-1.866-2.081-4.967-3.731-7.309-3.843-5.454-9.624-7.795-14.912-11.36-.903-.609-3.008-3.137-3.88-3.682-1.199-.749-8.382-4.148-9.659-4.507-2.536-.713-6.018-.755-8.396-2.163-1.911-1.132-3.889-5.221-5.889-6.579-2.452-1.665-10.259-5.277-13.087-5.176-3.662.131-7.751,3.676-10.762,5.615-3.52,2.266-3.761,1.811-7.643,2.896-3.931,1.099-3.286,6.463-2.961,9.984.455,4.932,4.262,10.188,8.681,12.439,6.222,3.17,16.041.238,20.598,7.242,4.421,6.797,2.167,27.266-6.226,30.268-.939.336-1.99.013-2.9.478-.135.069-2.095,1.99-2.163,2.125-1.16,2.325,1.357,3.937,1.201,6.253l-7.397-2.412c-3.784,2.365-12.194,4.351-13.74,8.871-.751,2.197-.764,4.875-1.448,7.197-1.441,4.892-4.775,9.202-8.607,12.513-1.857,1.604-5.37,2.342-4.441,4.897,1.239,3.407,5.652,6.22,6.312,10.978.9,6.482-3.109,13.504-9.838,14.591-2.867.463-5.124-3.184-9.096.951-3.622,3.771-5.678,8.455-11.98,9.139-15.326,1.663-8.411-15.846-.396-20.555,5.147-3.023,4.472-2.233,8.779-6.581,3.427-3.46,6.859-6.918,10.497-10.162.622-2.019-2.108-3.835-2.903-6.047-1.561-4.34-1.021-17.248.701-21.578,1.358-3.417,5.353-6.571,6.467-10.333,1.147-3.872.233-8.394,1.961-12.439,2.422-5.67,8.334-6.689,10.258-11.819.315-.84.787-2.11.786-2.972-.003-2.155-4.29-10.026-5.864-11.598-.885-.883-4.02-2.064-5.329-3.041-3.605-2.689-7.182-7.521-11.565-8.597-6.022-1.478-14.055-.761-8.749-9.317,1.132-1.826,5.78-7.652,7.364-8.977,4.353-3.642,11.712-2.692,16.039-6.02,1.588-1.221,2.934-5.246,4.854-6.182,1.555-.758,5.61-.47,7.395-.246.684.086,1.234.787,1.964.914,2.802.484,7.606-.933,10-2.454,11.391-7.24,26.068-10.394,38.652-15.566,3.341-3.665,7.96-2.58,6.148-8.462-1.54-4.998-6.322-6.103-9.472-9.724-1.597-1.836-1.697-2.764-3.625-4.544-.372-.343-.496-1.119-.817-1.333-1.019-.679-6.305-.792-8.134-1.226-2.433-.578-9.173-3.744-10.93-5.39-1.125-1.053-1.728-3.107-3.716-3.515-2.454-.503-4.575,1.676-6.582,2.344-8.418,2.801-17.991-4.319-13.575-13.576,3.328-6.977,9.925-3.513,15.806-5.794.496-.192,4.383-2.215,4.562-2.4.285-.295.197-1.046.905-1.724,4.814-4.609,10.705-2.445,16.277-2.407,6.324.043,10.357-2.246,15.909,3.006ZM300.848,176.047c-1.76.396-5.104,2.606-5.545,4.533-1.111,4.844,4.517,13.324,9.47,14.328,3.99.808,6.821.503,9.613-2.442,3.424-3.612,8.581-11.702,2.117-15.049-3.126-1.619-12.257-2.134-15.655-1.369ZM278.737,186.557c-3.284.995-1.493,6.925,2.546,4.961,2.951-1.434.428-5.862-2.546-4.961ZM375.181,240.547c2.3-4.209,6.205-15.536,5.348-20.118-.241-1.288-1.176-2.207-1.469-3.33-.828-3.184-1.005-6.52-2.483-9.517-1.65-3.347-4.736-5.169-6.967-7.913-2.723-3.347-4.481-9.613-9.86-5.517-.815.621-.922,1.532-1.805,2.078-1.62,1.002-3.417.53-4.856,1.339-1.968,1.106-2.842,5.019-6.297,5.26-3.362.234-10.105-5.069-14.249-5.933-4.706-.982-8.27-.115-7,5.562.638,2.851,3.744,2.389,5.018,3.863,2.909,3.367,3.234,9.166,4.141,13.377.163.754.923,1.551,1.171,2.669.806,3.641-.043,11.835,3.139,13.661,2.513.983,12.973,3.754,14.024,5.656,1.356,2.453-.521,7-1.771,9.261-2.191,3.964-4.907,6.45-8.794,2.263-3.829-4.124-3.382-7.559-4.765-12.515-.347-1.245-.866-2.501-1.344-3.699l-15.46-2.053c-6.36.628-12.359,2.039-17.971,5.11-8.139,4.453-13.392,11.068-2.863,17.161,3.622,2.096,5.046,1.068,8.217,1.863,4.126,1.033,10.983,8.972,14.645,11.86,6.698,5.284,16.119,11.644,23.538,15.337,3.409,1.697,9.539,6.208,12.501,2.137,2.556-3.513,2.489-14.911,3.952-20.048.905-3.178,3.269-7.123,4.069-10.331.613-2.458.359-5.272,1.393-7.745,1.149-2.748,5.301-6.997,6.799-9.736ZM391.482,223.159c2.295,2.056,3.678,2.296,6.678.76,1.409-.721,6.422-5.589,7.44-6.961,4.066-5.481,2.502-9.838-2.148-14.17-2.588-2.411-8.48-5.376-11.985-4.757-2.92.516-5.622,2.311-6.046,5.467-.577,4.292,2.833,16.77,6.061,19.661ZM279.232,261.231c.388-.313,1.156-2.392,1.103-2.972-.304-3.321-7.255-2.987-7.192,1.382.037,2.629,4.733,2.682,6.09,1.59ZM251.771,278.389c1.259,1.355,7.333,6.297,8.846,6.753,2.337.703,6.146.439,6.728-2.438.697-3.449.355-9.767-.045-13.365-1.104-9.929-10.051-5.531-16.969-6.049-3.388,1.25-3.588,5.222-3.1,8.358.248,1.592,3.324,5.433,4.54,6.741ZM296.829,301.015c-3.186-3.544-6.104-2.592-10.459-3.707-2.572-.659-12.073-4.248-13.983-2.362-1.342,1.326-.327,6.933-1.082,9.478-2.103,7.087-9.448,7.363-12.191,12.769-2.929,5.774-.334,13.316-3.454,17.909-.785,1.156-3.689,3.138-4.462,4.177-1.974,2.656-1.495,5.535-2.088,8.152-.082.362-.852.29-.94.657-.417,1.73.884,7.531,1.575,9.364,1.39,3.685,6.019,5.122,9.142,2.716,1.65-1.271,4.309-4.219,5.376-6.145.604-1.09,1.692-4.075,1.918-5.281.721-3.835-.669-7.4,2.961-9.979,3.384-2.404,7.27-3.267,10.922-6.379,2.082-1.775,3.484-4.085,5.272-5.768,3.921-3.69,8.534-5.428,12.077-10.235,3.183-4.32,2.977-11.403-.585-15.366ZM368.026,325.326c-2.828-2.724-10.167-.48-9.978,3.944.183,4.283,7.464,6.487,10.037,2.337.965-1.556,1.278-4.992-.059-6.281ZM255.693,374.309c-6.872-5.66-15.891,4.654-15.243,11.64.091.982-.002,1.345.704,2.176,1.51,1.776,9.589,2.154,11.93,1.759,7.141-1.203,7.502-11.544,2.609-15.575ZM235.551,389.676c-3.457-1.111-7.591,2.449-7.593,5.853-.003,5.162,7.705,1.528,8.578-2.028.274-1.115.212-3.44-.984-3.825Z" fill="#c6dbef"/>
  <path d="M512.512,230.991c-1.919,1.549-11.49-.555-14.21-1.134-1.112-.236-2.254-1.222-3.142-1.15-1.378.11-6.364,3.249-8.325,3.725-1.797.436-4.371-.565-6.062-1.362-7.761-3.659-14.952-14.761-13.516-23.494.216-1.311,2.352-6.982,3.117-7.792.257-.273,3.885-1.774,4.108-1.774.319,0,5.366,1.791,6.024,2.124,8.058,4.075,6.928,12.592,16.289,15.871,2.376.832,5.185.556,7.679,1.441,2.455.871,8.331,4.683,9.009,7.309.365,1.413.185,5.304-.97,6.236ZM481.174,207.374c-1.975-1.527-3.747-2.939-6.414-1.412-7.621,4.365.251,19.307,7.716,18.647,1.333-.118,3.489-1.417,3.996-2.619,1.523-3.615-2.34-12.33-5.297-14.616Z" fill="#c6dbef"/>
  <path d="M303.523,359.115c-.338-.309-1.761-2.117-2.017-2.544-2.115-3.526-4.211-9.919-2.399-13.784.778-1.659,2.86-2.89,3.94-4.203.679-.826,1.042-2.185,1.99-3.308,2.835-3.357,6.366-4.364,10.624-4.736,4.479-.391,12.883-1.246,13.041,4.974.245,9.652-3.56,12.436-9.012,18.735-2.591,2.993-3.023,5.781-7.665,7.211-2.743.845-6.446-.466-8.502-2.346ZM308.766,355.285c2.147.704,4.002-.821,5.594-2.046,3.715-2.858,12.459-12.89,7.218-17.218-2.467-2.038-7.563-1.425-9.527.989-1.619,1.99-4.962,9.949-5.311,12.466-.185,1.335.817,5.412,2.025,5.809Z" fill="#c6dbef"/>
  <path d="M380.984,125.616c3.495-.767,8.544,1.823,10.433,4.725,2.941,4.517.679,11.719-3.086,15.108-5.677,5.11-9.808.663-11.882-4.94-1.525-4.119-2.125-9.486,1.294-12.847.583-.573,2.491-1.882,3.241-2.046ZM382.906,131.84c-4.058,1.197-2.744,10.453,2.641,7.964,4.288-1.982,1.455-9.173-2.641-7.964Z" fill="#c6dbef"/>
  <path d="M230.763,433.805c3.967-.522,7.999.458,9.911,4.241,5.369,10.623-5.83,14.887-14.304,10.464-8.041-4.196-3.253-13.699,4.393-14.705ZM235.072,439.567c-3.981-3.231-9.618,3.613-4.221,5.426,4.444,1.492,6.873-3.273,4.221-5.426Z" fill="#c6dbef"/>
  <path d="M254.75,404.003c.951-.201,1.492-.182,2.324.363,4.765,3.121-1.62,18.391-8.585,16.258-4.773-1.462,1.941-15.706,6.261-16.621Z" fill="#c6dbef"/>
  <path d="M359.803,409.494c-2.241,3.021-6.961,3.663-9.139.162-1.487-2.39-1.029-8.316,1.407-10.066,5.4-3.879,11.587,4.707,7.732,9.904Z" fill="#c6dbef"/>
  <path d="M533.597,173.2c3.241,2.757,1.981,6.28-.346,9.066-2.075,2.485-7.564,3.103-9.29-.146-1.647-3.1.468-9.282,3.908-9.924,1.706-.319,4.37-.151,5.728,1.004Z" fill="#c6dbef"/>
  <path d="M288.81,371.138c-2.019,2.529-7.932,2.568-8.468-1.578-1.117-8.639,12.281-3.197,8.468,1.578Z" fill="#c6dbef"/>
  <path d="M418.704,233.373c-3.846-2.802-.742-12.793,3.625-5.303,2.331,3.998.161,8.061-3.625,5.303Z" fill="#c6dbef"/>
  <path d="M421.787,322.417c4.607-1.04,8.318,7.276,3.52,8.805-6.269,1.997-7.75-7.85-3.52-8.805Z" fill="#c6dbef"/>
  <path d="M169.484,181.246c2.876-1.901,4.486,6.563.43,4.521-1.367-.688-1.077-4.094-.43-4.521Z" fill="#c8dcf0"/>
  <path d="M230.1,187.73c-1.695-1.192-4.071-6.165-4.067-8.211.005-2.772,3.257-10.564,5.676-12.111,5.584-3.569,14.358-1.676,17.331,4.511,2.378,4.95.668,14.751-4.771,17.15-3.41,1.505-11.109.813-14.17-1.339ZM243.218,170.304c-3.819-2.721-10.415.154-11.961,4.313-2.749,7.395,3.802,13.229,10.757,10.377,2.189-.897,4.813-6.291,4.606-8.698-.125-1.454-2.302-5.209-3.402-5.992Z" fill="#c6dbef"/>
  <path d="M727.538,114.58c6.471-1.913,11.895,7.897,3.734,7.603-5.799-.209-7.963-6.353-3.734-7.603Z" fill="#c6dbef"/>
  <path d="M375.181,240.547c-1.497,2.74-5.65,6.989-6.799,9.736-1.034,2.473-.78,5.287-1.393,7.745-.8,3.208-3.164,7.153-4.069,10.331-1.463,5.137-1.396,16.536-3.952,20.048-2.962,4.071-9.092-.44-12.501-2.137-7.419-3.692-16.84-10.053-23.538-15.337-3.661-2.888-10.519-10.827-14.645-11.86-3.171-.794-4.596.233-8.217-1.863-10.529-6.093-5.276-12.708,2.863-17.161,5.613-3.071,11.612-4.482,17.971-5.11l15.46,2.053c.478,1.198.997,2.454,1.344,3.699,1.382,4.956.936,8.39,4.765,12.515,3.887,4.187,6.603,1.701,8.794-2.263,1.25-2.261,3.126-6.808,1.771-9.261-1.051-1.903-11.511-4.673-14.024-5.656-3.182-1.826-2.333-10.02-3.139-13.661-.248-1.119-1.008-1.915-1.171-2.669-.907-4.21-1.232-10.01-4.141-13.377-1.273-1.474-4.38-1.012-5.018-3.863-1.27-5.677,2.293-6.543,7-5.562,4.144.864,10.887,6.167,14.249,5.933,3.455-.241,4.329-4.154,6.297-5.26,1.439-.809,3.236-.337,4.856-1.339.883-.546.99-1.457,1.805-2.078,5.379-4.096,7.137,2.169,9.86,5.517,2.232,2.743,5.318,4.565,6.967,7.913,1.478,2.998,1.655,6.333,2.483,9.517.292,1.123,1.227,2.042,1.469,3.33.858,4.582-3.048,15.91-5.348,20.118ZM367.016,203.954c-4.645-1.873-6.728.518-10.97,1.851-3.954,1.243-11.672,2.598-14.586,4.863-3.736,2.904-3.179,12.836-1.765,16.995,1.031,3.03,3.797,5.88,6.532,7.388,3.461,1.908,10.41,3.664,12.053,7.63.728,1.758.666,6.19,3.879,6.193,1.637.002,9.082-6.965,10.284-8.562,3.741-4.971,6.609-14.327,5.264-20.421s-4.607-13.483-10.692-15.937ZM330.559,239.932c-7.809-5.116-20.563-3.229-27.424,2.704-4.104,3.548-5.564,8.488-.202,11.711,2.9,1.743,6.155,2.595,9.08,4.829,11.187,8.54,23.673,21.95,37.781,25.59,6.156,1.588,8.08-3.362,9.113-8.418.96-4.698.062-8.934.655-13.265.411-3.005,3.035-4.718,1.512-8.318-1.776-4.196-5.155,1.909-7.074,3.236-1.74,1.204-3.149,1.138-5.229.904-9.441-1.064-11.478-14.56-18.212-18.972Z" fill="#9ecae1"/>
  <path d="M296.829,301.015c3.562,3.963,3.768,11.046.585,15.366-3.542,4.807-8.155,6.545-12.077,10.235-1.788,1.683-3.19,3.994-5.272,5.768-3.651,3.112-7.537,3.974-10.922,6.379-3.63,2.579-2.24,6.144-2.961,9.979-.227,1.206-1.314,4.192-1.918,5.281-1.067,1.925-3.726,4.874-5.376,6.145-3.123,2.405-7.753.969-9.142-2.716-.692-1.834-1.993-7.634-1.575-9.364.088-.366.858-.295.94-.657.593-2.617.115-5.496,2.088-8.152.772-1.039,3.676-3.02,4.462-4.177,3.12-4.594.525-12.135,3.454-17.909,2.743-5.406,10.088-5.683,12.191-12.769.755-2.545-.26-8.152,1.082-9.478,1.91-1.886,11.411,1.703,13.983,2.362,4.355,1.115,7.273.162,10.459,3.707ZM292.532,305.304c-1.781-1.865-8.503-4.264-11.151-4.492-3.887-.336-4.048,2.636-5.651,4.677-2.266,2.884-4.932,5.777-7.909,7.931-1.399,1.012-4.251,1.921-5.582,3.298-1.004,1.039-3.035,6.295-3.094,7.75.72,2.034,1.505,8.577,2.699,9.848,2.009,2.138,8.893.469,11.294-.699,1.046-.509,3.823-2.263,4.725-2.973,1.365-1.073,13.732-15.085,14.381-16.321.359-.684,2.029-5.175,2.037-5.673.023-1.504-.858-2.413-1.748-3.346ZM252,353.999c.418.908.132.663.96,1.44,2.905,2.726,6.113.743,8.16-1.92.788-1.025,1-.693,1.44-2.4.721-2.8,1.077-11.336-2.663-11.998-7.603-1.346-10.532,9.153-7.897,14.878Z" fill="#9ecae1"/>
  <path d="M251.771,278.389c-1.216-1.308-4.292-5.149-4.54-6.741-.488-3.136-.288-7.108,3.1-8.358,6.918.518,15.865-3.88,16.969,6.049.4,3.597.742,9.915.045,13.365-.582,2.877-4.391,3.142-6.728,2.438-1.513-.455-7.587-5.398-8.846-6.753ZM260.022,271.583c-.934-.754-4.148-1.171-4.6.164-1.005,2.969,3.306,6.685,4.99,4.98,1.158-1.172.858-4.138-.39-5.145Z" fill="#9ecae1"/>
  <path d="M300.848,176.047c3.399-.764,12.529-.25,15.655,1.369,6.463,3.347,1.307,11.437-2.117,15.049-2.792,2.945-5.624,3.251-9.613,2.442-4.953-1.004-10.581-9.483-9.47-14.328.442-1.926,3.785-4.137,5.545-4.533ZM303.514,187.762c5.314,4.468,11.382-4.263,7.671-6.471-1.695-1.008-6.922-1.661-8.508-.536-2.312,1.64-.969,5.489.837,7.007Z" fill="#9ecae1"/>
  <path d="M391.482,223.159c-3.229-2.892-6.638-15.369-6.061-19.661.424-3.156,3.126-4.951,6.046-5.467,3.505-.619,9.397,2.346,11.985,4.757,4.65,4.332,6.214,8.689,2.148,14.17-1.017,1.371-6.031,6.239-7.44,6.961-3,1.536-4.382,1.296-6.678-.76ZM398.12,217.892c2.51-1.276,4.537-3.391,4.975-6.334.762-5.129-6.924-10.561-11.393-8.013-1.446.824-1.114,4.606-.974,6.206.352,4.033,1.647,10.086,6.849,8.866.334-.078.377-.641.543-.726Z" fill="#9ecae1"/>
  <path d="M255.693,374.309c4.893,4.03,4.532,14.372-2.609,15.575-2.341.394-10.42.016-11.93-1.759-.706-.83-.613-1.194-.704-2.176-.648-6.986,8.371-17.3,15.243-11.64ZM249.48,376.67c-2.013.532-4.809,4.255-4.667,6.342.339,4.988,11.983,6.227,10.514-2.825-.369-2.273-3.756-4.069-5.847-3.517Z" fill="#9ecae1"/>
  <path d="M368.026,325.326c1.338,1.289,1.024,4.725.059,6.281-2.573,4.15-9.854,1.946-10.037-2.337-.189-4.424,7.15-6.668,9.978-3.944Z" fill="#9ecae1"/>
  <path d="M235.551,389.676c1.197.385,1.258,2.71.984,3.825-.872,3.556-8.581,7.19-8.578,2.028.002-3.403,4.136-6.964,7.593-5.853Z" fill="#9fcae1"/>
  <path d="M279.232,261.231c-1.357,1.092-6.052,1.039-6.09-1.59-.062-4.369,6.888-4.703,7.192-1.382.053.58-.715,2.659-1.103,2.972Z" fill="#9fcae1"/>
  <path d="M278.737,186.557c2.974-.901,5.497,3.527,2.546,4.961-4.039,1.963-5.831-3.966-2.546-4.961Z" fill="#a0cbe2"/>
  <path d="M481.174,207.374c2.957,2.286,6.821,11.001,5.297,14.616-.507,1.203-2.662,2.501-3.996,2.619-7.464.66-15.337-14.282-7.716-18.647,2.667-1.527,4.439-.115,6.414,1.412Z" fill="#9ecae1"/>
  <path d="M308.766,355.285c-1.209-.396-2.21-4.473-2.025-5.809.349-2.517,3.692-10.476,5.311-12.466,1.964-2.414,7.06-3.027,9.527-.989,5.241,4.328-3.503,14.36-7.218,17.218-1.592,1.225-3.448,2.749-5.594,2.046Z" fill="#9ecae1"/>
  <path d="M382.906,131.84c4.096-1.209,6.93,5.982,2.641,7.964-5.385,2.489-6.699-6.767-2.641-7.964Z" fill="#9fcae1"/>
  <path d="M235.072,439.567c2.652,2.152.223,6.918-4.221,5.426-5.397-1.812.241-8.656,4.221-5.426Z" fill="#9fcae1"/>
  <path d="M243.218,170.304c1.099.783,3.277,4.539,3.402,5.992.207,2.407-2.417,7.801-4.606,8.698-6.955,2.852-13.506-2.982-10.757-10.377,1.546-4.16,8.142-7.034,11.961-4.313ZM236.769,180.564c6.062,1.936,7.033-7.849.692-5.982-2.413.71-2.327,5.46-.692,5.982Z" fill="#9ecae1"/>
  <path d="M330.559,239.932c6.734,4.412,8.771,17.908,18.212,18.972,2.08.234,3.489.3,5.229-.904,1.918-1.327,5.298-7.432,7.074-3.236,1.523,3.599-1.101,5.313-1.512,8.318-.593,4.332.305,8.568-.655,13.265-1.033,5.056-2.957,10.006-9.113,8.418-14.108-3.64-26.594-17.05-37.781-25.59-2.926-2.233-6.18-3.085-9.08-4.829-5.361-3.222-3.901-8.163.202-11.711,6.861-5.932,19.615-7.82,27.424-2.704ZM329.566,241.391c-6.469-4.737-17.255-3.871-23.178,1.399-4.72,4.2-2.432,8.384,1.547,11.833,8.835,7.658,19.107,16.321,29.163,22.219,4.824,2.829,8.554,4.91,14.512,4.206,5.728-.677,6.111-11.559,3.511-15.532-2.13-3.254-9.609-4.711-12.649-7.511-4.525-4.167-7.633-12.754-12.906-16.615Z" fill="#6baed6"/>
  <path d="M367.016,203.954c6.085,2.454,9.344,9.834,10.692,15.937s-1.523,15.449-5.264,20.421c-1.202,1.597-8.647,8.564-10.284,8.562-3.214-.003-3.151-4.435-3.879-6.193-1.643-3.965-8.591-5.721-12.053-7.63-2.735-1.508-5.502-4.358-6.532-7.388-1.414-4.158-1.972-14.09,1.765-16.995,2.914-2.265,10.632-3.62,14.586-4.863,4.242-1.334,6.325-3.724,10.97-1.851ZM367.976,207.791c-1.63-.82-4.424-1.568-6.202-1.137-.345.084-.298.81-.693.912-8.261,2.119-19.728,1.802-20.233,12.827-.228,4.976,1.339,8.509,4.981,11.697,3.377,2.956,6.126,3.2,9.8,5.08,4.814,2.465,7.586,7.393,13.503,2.839,9.345-7.192,9.574-26.824-1.155-32.219Z" fill="#6baed6"/>
  <path d="M292.532,305.304c.891.932,1.771,1.841,1.748,3.346-.008.498-1.678,4.989-2.037,5.673-.649,1.237-13.016,15.249-14.381,16.321-.903.71-3.679,2.464-4.725,2.973-2.401,1.168-9.285,2.837-11.294.699-1.194-1.271-1.979-7.814-2.699-9.848.059-1.455,2.09-6.711,3.094-7.75,1.331-1.378,4.183-2.286,5.582-3.298,2.977-2.154,5.643-5.047,7.909-7.931,1.603-2.041,1.764-5.012,5.651-4.677,2.648.229,9.37,2.628,11.151,4.492ZM279.184,325.997l6.804-14.118c.271-2.956-3.107-3.351-5.323-2.892-2.105.437-13.45,6.885-15.583,8.414-7.111,5.101-3.094,17.987,7.75,13.51,1.356-.56,5.485-3.734,6.352-4.914Z" fill="#6baed6"/>
  <path d="M262.56,351.119l-1.44,2.4c-2.047,2.663-5.255,4.646-8.16,1.92l-.96-1.44c-2.635-5.725.294-16.224,7.897-14.878,3.74.662,3.384,9.199,2.663,11.998ZM258.603,345.469c-2.004-2.169-5.654,3.96-2.766,5.423,2.818,1.428,4.409-3.645,2.766-5.423Z" fill="#6baed6"/>
  <path d="M261.12,353.519l1.44-2.4c-.44,1.707-.652,1.375-1.44,2.4Z" fill="#84bddc"/>
  <path d="M252.96,355.439c-.828-.777-.542-.532-.96-1.44l.96,1.44Z" fill="#84bddc"/>
  <path d="M260.022,271.583c1.248,1.006,1.548,3.973.39,5.145-1.684,1.704-5.996-2.012-4.99-4.98.452-1.336,3.666-.918,4.6-.164Z" fill="#6dafd6"/>
  <path d="M303.514,187.762c-1.806-1.518-3.149-5.367-.837-7.007,1.585-1.124,6.813-.472,8.508.536,3.712,2.207-2.356,10.938-7.671,6.471Z" fill="#6caed6"/>
  <path d="M398.12,217.892c-.166.084-.209.647-.543.726-5.202,1.219-6.497-4.833-6.849-8.866-.14-1.601-.472-5.382.974-6.206,4.468-2.547,12.155,2.884,11.393,8.013-.437,2.943-2.465,5.058-4.975,6.334Z" fill="#6baed6"/>
  <path d="M249.48,376.67c2.091-.552,5.478,1.244,5.847,3.517,1.469,9.052-10.175,7.812-10.514,2.825-.142-2.087,2.654-5.81,4.667-6.342Z" fill="#6caed6"/>
  <path d="M236.769,180.564c-1.635-.522-1.72-5.272.692-5.982,6.341-1.867,5.37,7.918-.692,5.982Z" fill="#6cafd6"/>
  <path d="M329.566,241.391c5.273,3.862,8.382,12.448,12.906,16.615,3.04,2.8,10.519,4.257,12.649,7.511,2.6,3.973,2.217,14.855-3.511,15.532-5.957.704-9.688-1.377-14.512-4.206-10.056-5.898-20.329-14.561-29.163-22.219-3.979-3.449-6.267-7.633-1.547-11.833,5.923-5.27,16.709-6.137,23.178-1.399ZM335.229,250.138c-3.009-3.994-5.771-8.727-11.034-10.334-7.561-2.308-22.286,3.058-15.955,12.595,1.57,2.366,9.571,9.256,12.155,11.367,5.223,4.266,19.66,14.436,25.996,14.828,5.667.35,7.942-3.02,7.365-8.353-.523-4.837-7.754-7.486-11.141-10.323-2.27-1.901-5.414-7.16-7.387-9.779Z" fill="#4292c6"/>
  <path d="M367.976,207.791c10.729,5.395,10.501,25.026,1.155,32.219-5.917,4.554-8.688-.374-13.503-2.839-3.674-1.881-6.422-2.125-9.8-5.08-3.642-3.187-5.209-6.721-4.981-11.697.505-11.025,11.972-10.708,20.233-12.827.395-.101.347-.828.693-.912,1.778-.432,4.572.317,6.202,1.137ZM368.476,210.65c-1.439-.882-4.642-1.888-6.291-1.585-3.054.561-8.969,1.656-11.791,2.609-7.876,2.659-10.172,10.847-5.273,17.635,2.136,2.96,15.783,9.425,19.437,9.53,7.289.21,11.214-10.428,10.296-16.574-.17-1.137-1.852-6.57-2.42-7.554-.142-.246-3.718-3.912-3.959-4.06Z" fill="#4292c6"/>
  <path d="M279.184,325.997c-.867,1.18-4.996,4.354-6.352,4.914-10.844,4.477-14.861-8.409-7.75-13.51,2.132-1.53,13.477-7.978,15.583-8.414,2.215-.459,5.594-.064,5.323,2.892l-6.804,14.118ZM276.857,317.14c-1.676-1.227-7.777.321-9.35,1.488-.35.26-.609,1.108-1.069,1.559-1.492,1.467-2.545,1.189-2.222,4.079.907,8.112,12.81,3.996,13.617-3.275.088-.79-.488-3.494-.976-3.851Z" fill="#4292c6"/>
  <path d="M258.603,345.469c1.643,1.778.052,6.851-2.766,5.423-2.888-1.463.762-7.591,2.766-5.423Z" fill="#4393c6"/>
  <path d="M335.229,250.138c1.973,2.619,5.117,7.878,7.387,9.779,3.387,2.838,10.618,5.487,11.141,10.323.577,5.333-1.698,8.704-7.365,8.353-6.336-.392-20.773-10.561-25.996-14.828-2.584-2.111-10.585-9.001-12.155-11.367-6.331-9.537,8.394-14.903,15.955-12.595,5.263,1.606,8.025,6.34,11.034,10.334ZM331.2,246.479c-3.262-4.685-7.888-6.373-13.628-5.708-4.066.471-9.281,3.167-8.963,7.861.076,1.127.568,1.866,1.074,2.803,1.597,2.957,6.217,7.088,9.037,8.964.412.769,1.035,1.352,1.696,1.905,4.553,3.812,18,12.972,23.508,13.446,4.625.399,8.52-1.158,6.512-6.51-1.23-3.279-3.683-3.835-6.023-5.974-2.963-2.708-3.589-4.147-5.711-7.017-1.95-2.638-3.889-5.373-6.062-7.85-.058-.132.055-.339,0-.48-.325-.825-.392-1.702-1.44-1.44Z" fill="#2171b5"/>
  <path d="M368.476,210.65c.242.148,3.818,3.815,3.959,4.06.568.984,2.25,6.417,2.42,7.554.918,6.146-3.007,16.784-10.296,16.574-3.655-.105-17.301-6.57-19.437-9.53-4.899-6.789-2.603-14.976,5.273-17.635,2.822-.953,8.737-2.047,11.791-2.609,1.649-.303,4.852.703,6.291,1.585ZM349.122,230.947c2.051,1.381,10.289,5.122,12.598,5.412,3.026.38,5.466.294,7.843-1.678,4.34-3.601,4.376-10.854,2.998-15.882-1.028-3.751-4.529-7.006-8.461-7.378-3.899-.37-9.716.797-13.427,1.971-5.596,1.77-7.786,8.159-5.265,13.358.305.628,3.155,3.822,3.714,4.198Z" fill="#2171b5"/>
  <path d="M276.857,317.14c.489.358,1.064,3.061.976,3.851-.806,7.271-12.71,11.387-13.617,3.275-.323-2.891.73-2.612,2.222-4.079.459-.452.718-1.299,1.069-1.559,1.573-1.167,7.675-2.714,9.35-1.488Z" fill="#2171b5"/>
  <path d="M332.64,248.399c2.173,2.477,4.112,5.211,6.062,7.85,2.122,2.87,2.748,4.31,5.711,7.017,2.34,2.139,4.793,2.696,6.023,5.974,2.008,5.352-1.887,6.909-6.512,6.51-5.508-.475-18.955-9.635-23.508-13.446-.661-.553-1.284-1.136-1.696-1.905.479.318.971.629,1.44.96,2.409,1.7,6.069,4.111,8.874,5.766,3.449,2.035,14.119,7.906,17.507,5.018,3.365-2.869-4.859-8.71-6.624-11.101-2.027-2.747-5.76-9.062-7.277-12.163-.062-.127.06-.344,0-.48Z" fill="#08519c"/>
  <path d="M318.72,260.399c-2.82-1.876-7.44-6.007-9.037-8.964-.506-.937-.998-1.675-1.074-2.803-.318-4.695,4.897-7.39,8.963-7.861,5.74-.665,10.367,1.023,13.628,5.708.416.598.68,1.164,1.44,1.44.055.141-.058.348,0,.48.06.136-.062.353,0,.48-2.921-2.841-5.637-6.428-9.966-7.074-4.522-.675-12.045.681-12.163,6.341-.112,5.392,7.23,9.044,9.649,13.213-.469-.331-.961-.642-1.44-.96Z" fill="#0a519a"/>
  <path d="M331.2,246.479c1.048-.262,1.115.615,1.44,1.44-.76-.276-1.024-.842-1.44-1.44Z" fill="#08519c"/>
  <path d="M349.122,230.947c-.559-.376-3.409-3.57-3.714-4.198-2.521-5.199-.332-11.588,5.265-13.358,3.71-1.173,9.527-2.34,13.427-1.971,3.932.373,7.433,3.627,8.461,7.378,1.378,5.028,1.342,12.282-2.998,15.882-2.377,1.972-4.817,2.058-7.843,1.678-2.309-.29-10.547-4.031-12.598-5.412ZM349.167,228.994c3.22,2.778,13.489,7.33,17.534,5.706.362-.145,2.574-1.968,2.908-2.372,3.364-4.075,2.936-10.156.742-14.68-3.385-6.983-14.212-5.424-19.905-2.563-5.855,2.942-6.024,9.816-1.278,13.909Z" fill="#09519c"/>
  <path d="M332.64,248.879c1.517,3.101,5.25,9.416,7.277,12.163,1.764,2.391,9.988,8.232,6.624,11.101-3.388,2.888-14.058-2.983-17.507-5.018-2.805-1.655-6.465-4.066-8.874-5.766-2.42-4.17-9.761-7.821-9.649-13.213.118-5.66,7.641-7.016,12.163-6.341,4.329.646,7.045,4.233,9.966,7.074Z" fill="#08306b"/>
  <path d="M349.167,228.994c-4.745-4.093-4.577-10.968,1.278-13.909,5.693-2.86,16.52-4.42,19.905,2.563,2.193,4.524,2.622,10.605-.742,14.68-.334.405-2.547,2.227-2.908,2.372-4.045,1.624-14.313-2.929-17.534-5.706Z" fill="#08306b"/>
  <path d="M99.18,459.371c1.047-7.498,5.671-16.159,12.564-19.566,2.999-1.149,6.128-1.854,7.05-5.328,4.222-16.993,13.112-9.908,21.416-18.719,1.316-1.871,1.962-4.583,3.473-6.753,5.645-7.082,16.126-10.755,25.094-9.842,4.228.671,7.382,4.33,10.768,6.678,3.521,2.513,7.886,3.717,11.624,5.861,10.402,5.876,7.807,15.487,22.515,17.542,4.742,1.312,7.451-2.557,9.971-5.865,4.085-3.582,7.063-7.141,8.52-12.352,1.119-3.712,4.494-5.586,6.59-8.562,1.906-2.961.689-7.933,2.587-11.253,1.586-2.593,4.606-3.926,6.593-6.164,2.236-2.202,3.391-4.943,6.236-7.018,11.33-5.731-2.388-16.521,12.153-20.515,5.2-2.103,17.062-1.194,19.225-6.835.882-2.516.449-5.636,1.95-7.984,1.462-3.06,5.731-3.565,8.051-5.11,2.609-1.785,2.564-5.257,4.011-7.848,2.829-5.416,9.548-5.328,14.588-7.296,7.077-2.702,11.841-12.266,20.079-12.347,3.026-.126,6.772,1.666,7.255-.369-.009-1.117-.92-2.563-1.315-3.729-1.572-3.822-1.574-8.897-3.483-12.542-1.681-3.975-5.804-5.971-8.488-9.158-1.845-2.185-2.278-5.265-4.847-6.758-15.288-5.579-6.729-8.225-25.433-5.336-5.805.502-8.905,5.101-13.757,7.832-3.712,2.46-8.186,2.965-12.253,4.338-6.208,3.644-11.004,2.134-17.878,1.149-6.502-1.631-8.897,4.797-14.095,7.321-7.095,3.304-15.476,4.04-22.835,1.106-9.248-3.569-10.403-15.781-7.156-23.911,2.551-4.3,8.025-7.553,12.139-9.576,1.89-.773,4.06-1.517,5.188-3.278,2.788-6.136,6.284-6.111,12.407-7.154,3.91-.629,7.458-1.743,11.239-1.971,4.01-.058,8.08.59,11.978-.247,13.326-2.817-9.127-3.886-11.722-6.137-8.867-3.534-11.785-23.478-6.412-30.247,6.136-6.028,17.293-8.687,24.85-3.918,3.49,1.716,5.54,6.922,8.059,8.124,3.112,1.266,6.337-1.722,9.52-1.894,8.344-1.256,13.764,7.408,18.88,12.443,5.297,2.626,9.458-5.846,8.437-10.131-.962-3.713-3.612-7.078-5.825-10.191-2.59-3.861-7.558-2.118-11.428-3.953-5.966-3.419-13.365-8.628-13.374-16.035,2.528-10.231,15.574-18.087,26.072-14.092,13.693,5.21,9.054,6.779,25.117,14.413,6.826,3.244,11.223,12.641,13.652,5.796,1.037-3,1.658-6.379,3.229-9.224,1.965-3.916,3.143-7.66,5.494-11.283,2.352-3.191,6.433-5.069,8.177-8.673,1.129-2.607.601-5.522.602-8.285.167-4.823.716-9.366-2.054-13.501-3.372-5.976,1.164-12.266,4.679-17.062,2.452-3.337,6.235-5.503,8.313-8.526,2.263-3.354,2.44-7.609,4.486-11.098,3.543-7.576,8.19-7.58,15.139-10.14,3.47-2.103,6.466-5.257,10.222-7.034,7.32-4.114,20.114-5.694,23.458,3.056,4.966,8.578,4.033,23.842-6.092,28.532-10.707,4.427-10.655,4.623-18.248,12.625-5.478,3.744-5.566,8.169-5.184,14.206-.213,4.218-1.725,7.882-1.069,11.918.458,3.852,2.368,8,.865,11.807-1.054,2.788-4.363,4.784-5.284,7.355-1.218,3.987,1.666,8.387-.796,12.262-2.242,4.057-5.071,8.144-7.611,11.829-2.296,3.152-5.63,8.215-2.075,11.591,2.102,1.975,4.782.012,7.396-.106,3.903-.711,6.752,4.293,10.323,3.738,1.924-1.178,3.081-3.807,4.862-5.334,8.758-8.396,12.816.589,20.668-.704,1.994-.672,3.546-2.675,5.056-4.228,5.488-6.179,13.49-9.218,20.976-5.643,8.839,5.084,11.076-7.189,18.479-8.91,2.847-.856,5.759.464,8.267,1.705,7.735,2.471,7.027-7.451,20.174-2.702,21.771,10.087,13.086,9.848,35.32.804,9.228-3.754,16.885-11.96,27.32-11.517,3.534-.202,6.638,2.403,10.002,2.635,2.518.152,4.887-1.62,7.228-2.486,5.691-2.278,11.834,1.318,17.421,2.777,5.814,2.249,22.291-7.478,24.981-1.745,2.857,3.917,4.754,10.698,8.513,14.257,2.986,1.718,6.918-.236,10.266-.104,3.405-.149,6.691.642,9.728,2.128,3.247,1.55,5.983,4.156,9.095,4.532,4.717.099,8.601-3.82,13.458-3.519,9.403-.003,21.249,12.026,16.107,21.215-1.167,2.649-7.495,4.051-11.912,5.536-6.673,2.016-10.271,4.486-16.779.999-3.447-1.076-5.757,1.676-9.557,2.379-1.643.289-3.334.24-4.988.027-20.179-2.931-14.867-15.216-24.803-17.454-6.94-.337-14.109-1.416-19.635-5.713-1.763-1.318-3.71-3.335-5.766-3.582-3.102-.04-5.185,2.696-8.641,3.686-4.536,1.647-9.369-.313-13.969.694-3.088.584-6.304,2.139-9.983,2.216-3.143.133-6.421-.531-9.535-.2-4.59.568-8.926,2.879-13.67,1.878-5.418-.81-10.892-1.915-16.16-3.231-2.48-.578-4.516-.582-6.341,1.021-3.641,4.407-6.995,9.31-11.437,13.088-5.139,5.41-9.443,6.35-15.572,2.651-6.9-2.948-8.096,9.701-15.059,7.825-3.496-.532-6.756-2.959-9.889-3.649-2.449-.563-4.684.84-6.848,1.91-3.933,1.947-8.898,1.786-13.472.759-3.259-.379-6.459-3.232-9.664-2.721-3.821,2.968-1.941,11.438-8.257,14.637-4.283,3.169-9.542,1.943-14.375,1.511-4.534.391-9.552-.564-13.924-.207-3.702.873-6.158,4.136-9.836,5.26-12.668,2.868-13.049,6.431-17.336,17.684-2.201,5.952-1.154,12.025,1.155,17.681,2.852,7.775,5.578,16.654,12.282,21.958,2.737,1.374,6.116-.088,9.054-.426,5.249-.978,10,2.21,12.732,6.726,5.497,10.039,5.119,5.192,13.345,2.874,2.701-.341,5.383,1.361,7.538,1.432,3.944.021,2.748-10.089,8.038-13.375,1.847-1.531,3.54-2.447,4.957-4.464,16.048-28.861,20.629-11.51,38.53-10.674,6.681-1.387,10.722-8.967,17.759-9.948,5.758-1.141,12.51,1.592,16.835,5.607,3.035,2.416,4.377,7.04,7.92,8.675,5.17,1.333,11.232-2.493,16.687-1.328,6.997,1.302,10.473,10.789,11.424,17.379.587,3.13.324,6.715.81,9.926,1.097,7.083,11.866-3.261,20.252-1.518,3.144.273,6.043,2.446,8.577,2.822,4.047.537,7.953-2.204,11.986-.503,4.721,1.514,7.979,5.758,11.977,8.471,5.849,3.431,12.287,4.261,15.731,11.017,2.484,4.536,7.72,6.33,11.949,2.763,6.046-4.984,12.169-6.434,19.792-5.083,6.133.424,12.938-1.152,18.804,1.291,2.54,1.125,4.011,3.447,5.217,5.835,5.778,9.144,7.689,20.584-2.67,27.203-4.086,2.682-9.527,4.288-14.523,4.695-3.398.051-5.265-2.634-8.076-3.138-4.112-.47-7.986,3.142-12.068.501-5.871-3.469-8.128-3.574-13.48,1.276-9.862,7.03-14.665,9.51-24.972,1.549-6.029-4.196-2.153-13.81-7.981-18.358-2.645-1.919-6.155-1.687-9.276-2.061-3.351-.35-6.414-1.827-9.536-2.262-4.758-.866-10.44,1.852-14.648-1.331-3.577-3.14-7.27-10.219-9.061-15.38-1.031-4.998-2.134-9.098-8.248-7.608-20.095,5.069-19.209-3.005-24.575-18.496-3.906-1.977-6.323,8.232-18.055,2.613-3.578-1.392-6.813-3.609-10.267-5.146-6.658-2.624-6.549,9.331-16.232,11.218-2.735.858-6.678,1.598-8.154,3.421-2.782,3.434-.649,10.422-5.328,12.713-4.165,1.871-10.948-1.749-13.996,2.158-1.275,1.833-1.095,5.466-2.674,7.918-4.863,6.711-15.059,6.003-22.176,8.908-11.656,5.485-20.622,4.653-28.427-6.272-1.856-2.412-12.429-7.382-14.396-4.968-2.071,4.311,3.189,9.464,3.038,14.037.503,4.029-1.438,7.46-2.177,11.396-.523,2.918-.101,6.005-.661,8.927-.895,6.405-2.484,12.475-4.443,18.624-.629,3.366.27,6.912-.51,10.639-2.122,6.314-2.36,10.203.708,16.51,1.442,4.19.824,8.699-1.312,12.622-3.092,6.761-7.581,11.927-15.157,12.201-18.698,2.939-23.255-15.748-18.744-30.268.396-3.506-1.324-6.684-1.644-10.136-.627-5.718,1.717-11.82,2.219-17.274,1.171-8.219.62-16.26,2.054-24.34.501-3.205.296-6.474.65-9.824.106-1.577.515-4.094-.588-5.178-4.157-2.7-9.281,2.314-12.817,4.397-2.313,1.497-5.649,2.342-6.898,4.142-3.149,8.05-1.227,10.841-12.151,12.441-4.083,1.282-11.614-.588-13.227,4.12-.9,3.264.45,8.409-1.533,11.83-1.688,3.503-7.507,3.194-9.323,6.575-1.335,2.856-.95,6.529-3.091,9.034-2.335,2.892-4.643,5.871-7.029,8.795-2.077,2.346-5.711,3.939-7.502,6.325-1.935,2.419-2.259,5.547-3.483,8.313-1.167,2.858-3.758,4.999-5.275,7.5-3.127,5.104-3.576,11.558-7.503,16.289-2.52,3.198-5.739,4.801-9.165,7.125-2.927,2.142-6.293,4.294-9.936,4.515-7.527.08-14.364-7.702-21.046-10.686-2.956-1.37-5.719-2.82-8.158-5.011-3.108-2.764-5.477-6.513-9.308-7.303-5.064-.652-10.109,3.275-15.333,2.715-5.675-.128-8.209-7.803-14.251-5.768-16.103.798-7.297,13.962-20.968,16.82-1.957.436-3.835.769-5.083,2.336-2.646,4.348-1.974,10.594-6.082,14.314-5.681,5.429-16.228,8.614-23.183,4.233-3.858-3.344-9.806-8.382-9.658-13.88l.009-.163Z" fill="none" stroke="#09306b" stroke-miterlimit="10"/>
  <path d="M219.708,299.172c1.131,3.705-1.13,7.796-1.976,11.48-1.926,6.087-4.424,13.532-9.811,17.393-2.568,1.775-5.405,1.562-8.856.788-1.86-.444-4.336-1.123-5.934-.513-1.136.342-2.157,1.522-3.01,2.597-2.288,2.624-4.663,5.943-7.868,7.157-3.222.508-6.647-.822-9.89-1.262-4.874-.63-7.315-2.249-8.694-6.46-2.472-6.857.452-20.187,6.627-24.425,3.415-2.278,7.891,1.081,11.117-1.036,1.288-.857,2.402-2.458,4.112-3.747,2.953-2.122,6.25-3.893,9.433-5.673,3.663-1.813,7.717-4.901,11.601-4.486,2.295.208,4.333,1.437,6.293,2.585,2.329,1.465,5.784,3.029,6.794,5.455l.061.147Z" fill="none" stroke="#09306b" stroke-miterlimit="10"/>
  <rect x="20.267" y="199.225" width="198.309" height="84.422" fill="#fff" fill-opacity=".24"/>
  <rect x="397.954" y="391.722" width="330.005" height="67.663" fill="#fff" fill-opacity=".24"/>
<style>
#g-map-Artboard_1-layer10-img rect, #g-map-Artboard_1-layer10-img circle, #g-map-Artboard_1-layer10-img path, #g-map-Artboard_1-layer10-img line, #g-map-Artboard_1-layer10-img polyline, #g-map-Artboard_1-layer10-img polygon { vector-effect: non-scaling-stroke; }
</style>
</svg>
