<?xml version="1.0" encoding="UTF-8"?>
<svg id="g-map-Artboard_1-layer6-img" xmlns="http://www.w3.org/2000/svg" baseProfile="tiny" version="1.2" viewBox="0 0 841.68 595.199">
  <!-- Generator: Adobe Illustrator 29.0.1, SVG Export Plug-In . SVG Version: 2.1.0 Build 192)  -->
  <g id="_x32_007">
    <path d="M500.16,506.639c.454.065,1.005-.078,1.44,0,3.608,2.671,9.028,2.392,13.44,2.88,1.08.119,2.275-.11,3.36,0,.988,1.708,3.708.772,5.461,1.019,1.818.256,3.396.737,5.099,1.381.144.055.352-.058.48,0,5.289,4.535,6.974,10.414,8.781,16.899l2.259,4.701c.041.149-.038.329,0,.48.425,1.7,1.239,2.878,1.44,4.56.282,2.362.127,5.312-.96,7.44h-24c-1.483-5.443-1.644-12.245-6.236-16.084-4.614-3.856-8.736-1.214-13.841-2.479-9.63-2.387-10.161-14.581-3.923-20.797.131-.049.321.04.48,0,3.022-.766,3.858-.407,6.72,0ZM521.76,545.519h13.2c2.062,0,.804-10.767.413-12.413-.882-3.708-6.161-13.928-9.669-15.292-3.321-1.291-11.535-.661-11.634,3.928-.07,3.226,1.878,4.869,2.767,7.34,1.832,5.088,1.703,11.572,4.923,16.437Z" display="none" fill="#deebf7"/>
    <path d="M426.24,545.999h-5.28c-4.363-8.947,8.78-10.473,5.28,0Z" display="none" fill="#dfebf7"/>
    <path d="M689.28,49.199v.48c-1.596-.017-3.204.024-4.8,0-4.944-.074-9.935-.048-14.88,0-2.235.022-4.487-.015-6.722-.003.11,1.067-.154,2.346.002,3.363h-.48c-.181-.977.126-2.315,0-3.36l.48-.48h26.4Z" display="none" fill="#eff5fa"/>
    <path d="M287.52,134.159c1.013-.623,4.009-2.508,5.004-2.415,3.47,1.181,5.754,2.08,7.349,5.662,1.977,4.44-.036,6.713.637,10.883.362,2.243,2.762,4.805,3.475,7.565.779,3.018,1.129,10.306,5.136,11.424.148.041.331-.041.48,0,1.03.287,2.765,1.26,3.624,1.411,3.555.623,9.014-2.796,12.58-3.682,5.035-1.25,7.496,4.695,10.929,7.538,5.562,4.606,5.114,2.029,11.031,1.457,1.798-.174,4.919-.18,6.711,0,4.438.448,9.473,4.028,13.663,2.614,3.02-1.019,3.642-4.384,4.998-6.289,1.377-1.934,5.177-7.408,6.691-8.656,3.543-2.922,8.216,2.425,7.214,6.471-.753,3.043-2.698,3.004-2.039,7.496.274,1.867,3.78,10.498,4.812,12.361,2.122,3.832,9.898.712,13.149.402,4.345-.413,8.265-.252,11.511,2.881,1.89,1.824,2.921,5.608,5.045,6.235.138.041.319-.031.48,0,.564.561,1.382,1.389,2.198,1.454.219.018,3.772-1.299,4.138-1.499,1.831-.999,1.879-4.915,5.052-5.622,6.682-1.491,5.112,9.483,10.666,11.212,5.84,1.818,6.863-3.372,10.727-5.645,3.908-2.298,10.666-2.029,12.753,2.429.483,1.031,1.122,5.136,1.783,5.297,4.229-1.177,10.151-1.723,14.076-3.593,2.545-1.213,4.554-4.414,6.809-6.151,7.111-5.477,10.635-2.125,16.758,2.598.1.077.382-.078.48,0,1.787,3.192,5.371,5.327,6.814,8.786,1.068,2.559,1.242,5.923.146,8.494-1.493,3.502-8.417,8.024-8.855,10.825-.385,2.462.574,3.956-1.439,6.241-2.932,3.328-6.335.144-9.146,2.614-.602.084-1.341-.101-1.92,0l-.48.48c-.295.058-.683-.066-.96,0-3.844.919-7.549,1.476-8.12,6.042-.396,3.169.678,4.514-1.71,7.408-.95,1.15-2.261,1.723-3.13,2.87-.131.05-.324-.043-.48,0l-.96.48c-1.216.143-3.579.139-4.8,0l-.96-.48c-.282-.077-.771.095-.96,0-3.033-3.001-4.242-5.444-1.154-9.074.328-.386,2.394-2.482,2.74-2.777,1.414-1.209,4.959-1.969,4.991-4.608.06-4.963-6.387-10.416-7.693-15.304-.538-2.016-.47-9.888-1.742-10.736-2.2-1.467-5.199,2.991-6.735,4.347-1.22,1.076-4.301,3.152-5.145,4.21-1.929,2.418-.653,6.777-5.706,7.5-3.079.441-4.271-.144-6.916-.917-.152-.045-.344.05-.48,0l-.48-.48c-.133-.062-.354.064-.48,0-.591-.966-1.407-1.841-2.4-2.4-.189-.106-.74.104-.96,0-.373-1.017-2.898-2.237-3.84-2.4-.847-.146-3.454-.136-4.32,0-1.28.201-3.019,1.367-3.84,2.4-.123.069-.363-.07-.48,0-.677.403-3.059,2.106-3.392,2.604-1.738,2.605,2.593,6.231,4.832,6.996.143.049.334-.046.48,0,2.431,1.999,5.702,1.38,8.736,2.064,5.156,1.163,7.207,3.919,8.325,8.955.849,3.821,1.347,15.679.59,19.352-.204.989-1.78,3.452-2.515,4.205-1.53,1.568-3.188,1.504-4.576,2.864-1.261.171-2.969-.011-4.32,0-.613-1.492-4.225-1.465-4.8,0-.463.053-1.003-.074-1.44,0l-.96.48c-.303.047-.661-.052-.96,0-4.479.779-3.835,1.265-8.64,0-.151-.04-.335.044-.48,0l-.96-.48c-.14-.056-.349.059-.48,0-.708-1.003-1.902-1.672-2.88-2.4-.103-.077-.382.078-.48,0,.015-.966-2.136-3.189-2.88-3.36-.646-.149-3.087-.102-3.84,0l-.96.48c-.151.036-.332-.04-.48,0-1.267.346-3.996,1.459-4.8,2.4-.264.075-.675-.067-.96,0l-.48.48c-.285.058-.654-.045-.96,0-2.715.402-2.929.587-5.76,0-.295-.061-.714.079-.96,0-.913-1.1-3.442-2.748-4.8-3.36-.131-.059-.342.057-.48,0-1.157-2.013-4.607-2.01-5.76,0-.137.062-.363-.066-.48,0-1.366.776-4.522,4.099-5.296,5.504-.636,1.154-5.186,11.303-5.284,11.991-.976,6.825,7.83,13.775,10.677,19.608,3.777,7.738,3.981,22.973,1.698,31.172-.833,2.992-5.038,9.284-5.187,11.655-.308,4.897,2.151,11.015,2.427,15.835.564,9.809-2.86,14.418-5.431,22.88-1.304,4.294-1.49,6.738-.23,11.1.289,1.001,2.957,2.984,2.802,4.863-.062.752-1.031,1.596-1.334,2.555-.846,2.679-.973,5.833-1.846,8.234-.9,2.475-6.761,10.322-9.032,11.597-2.758,1.548-7.316,2.006-9.611-.547-1.649-1.834-5.276-8.473-5.891-10.908-1.261-4.991.071-6.238.334-10.423.364-5.807-.362-12.773,1.819-18.341,1.104-2.819,4.425-5.881,5.615-9.265.372-1.058,2.223-9.643,2.224-10.309.002-.902-.884-1.876-1.047-3.326-.483-4.297,1.379-7.114,1.292-10.678-.145-5.932-9.969-7.331-13.857-4.005-.972.831-1.808,2.944-2.771,4.079-4.974,5.859-14.98,7.215-19.664,12.619-4.802,5.539-4.174,5.546-10.545,9.972-3.017,2.096-3.469,6.599-7.05,8.79-5.769,3.531-12.069.257-17.479,4.12-1.698,2.475-2.797,5.406-4.787,7.694-2.737,3.147-6.16,4.835-8.538,8.742-2.941,4.832-3.135,10.754-6.144,15.476-2.346,3.682-7.182,5.602-10.282,8.419-1.208,1.098-1.454,1.625-1.901,3.138-.075.253.055.659,0,.96-1.103.337-.928,1.24-.988,2.134-.142,2.12-.122,5.119,0,7.252.051.895-.108,1.799.988,2.134.057.297-.07.69,0,.96.299,1.161,1.399,3.683,2.4,4.32.053.139-.052.339,0,.48l.48.48c.087.25-.085.704,0,.96.584,1.75,1.546,3.262,1.477,5.252l.923.028c.131.675-.055,1.641,0,2.4v1.44c-.04.441.105,1.132,0,1.44-4.691,5.265-12.248,2.271-16.32,9.12-.068.115.065.348,0,.48-2.04,1.046-2.567,5.413-.48,6.72.068.132-.073.378,0,.48.534.753,1.608,1.024,2.4,1.44.125.066.355-.066.48,0,.613,1.385,2.155,1.737,3.36,2.4.195.107.754-.106.96,0l4.32,4.32c.072.111-.069.356,0,.48.721,1.293,1.345,2.251,1.436,4.095.217,4.411-.736,4.428-3.606,6.956-.418.369-1.234.317-1.529.61-.112.111-1.46,2.466-1.581,2.74-.058.132.056.34,0,.48l-.48.48c-.057.37-.052,1.063,0,1.44.215,1.568,1.23,3.06,2.88,3.36.387.07,1.556.08,1.92,0,1.076-.236,2.357-1.422,2.88-2.4.133-.059.343.057.48,0,.906-.38,1.537-.956,2.654-1,3.452-.135,5.263,4.854,4.331,7.747-.895,2.779-4.1,3.224-5.978,4.578-1.931,1.392-3.639,4.393-5.057,5.974-3.19,3.555-7.916,3.06-11.668.579-2.519-1.666-7.624-7.944-9.429-10.497-.257-.364-1.034-.591-1.253-1.141-.063-.127.061-.346,0-.48-.521-1.154-.904-2.771-1.92-3.36-.155-1.21-.216-5.15,0-6.24,1.492-.076,1.537-1.597,2.699-2.341,1.202-.769,3.634-.954,4.674-1.945.518-.494.224-.845.307-.995.067-.12-.064-.349,0-.48.87-.332,1.154-.201,1.485-1.187.658-1.964,2.052-8.01-.143-9.271-2.445-1.404-9.96,2.157-13.115,2.296-3.972.174-12.04-3.183-13.709-6.918-1.278-2.86-.147-4.558.522-7,.041-.15-.045-.335,0-.48,1.991-2.193,2.043-5.676,5.167-7.073,3.183-1.423,10.835-.306,14.744-.614,1.723-.136,5.69-.689,3.61-3.104-1.092-1.268-8.323-3.409-10.372-4.039-2.382-.733-4.532.083-5.681-2.959-.71-1.879-.571-9.609-.162-11.624.417-2.058,2.254-3.79,3.733-5.148.117-.071.364.071.48,0,1.442-.885,3.248-1.618,4.32-2.88.253-.086.708.087.96,0,1.841-.635,3.869-.786,5.524-1.916.995-.679,9.091-8.331,9.577-9.142.513-.856,1.104-2.863,1.219-3.822.136-1.138.161-3.695,0-4.8-.227-1.56-1.712-4.795-3.597-4.788-2.713.011-9.465,6.893-13.453,7.197-3.92.299-5.658-2.232-7.911-4.81-.087-.239.079-.687,0-.96-1.151-3.993-.902-4.269,0-8.16.067-.288-.078-.704,0-.96l.48-.48c.052-.145-.055-.347,0-.48.892-.852,1.633-1.919,2.4-2.88.078-.098-.079-.389,0-.48,1.221-.634,2.739-1.039,3.36-2.4.132-.057.338.055.48,0,2.081-.8,4.792-1.157,6.24-2.4,2.395-.247,5.396.351,7.68,0,1.068-.164,1.721-.821,1.92-1.92.3-1.654.178-6.804,0-8.64-.543-5.612-3.205-9.626,0-15.36.069-.124-.072-.37,0-.48,2.105-1.024,4.259-3.743,5.28-5.76.064-.126-.062-.347,0-.48l.48-.48c.055-.136-.052-.337,0-.48,2.852-3.032,1.523-7.963,2.4-12,.034-.157-.041-.336,0-.48,1.369-1.572,2.508-3.378,3.36-5.28.059-.132-.057-.342,0-.48,1.365-.721,1.664-2.874,1.92-4.32.177-.999-.17-2.351,0-3.36l.48-.48c.147-.865-.169-2.051,0-2.88,1.184-1.175,1.588-3.468,2.4-5.28.061-.136-.064-.356,0-.48,3.707-4.091,11.318-7.821,8.392-14.393l-4.072-7.207c-.063-.129.064-.351,0-.48l-.96-.96c-.064-.128.064-.352,0-.48l-.48-.48c-.106-.206.107-.764,0-.96-.37-.677-1.689-2.426-2.4-2.88-.072-.11.069-.356,0-.48-.744-1.338-2.896-2.078-4.32-2.4-.798-.181-2.018.145-2.88,0l-.48-.48c-1.01-.168-2.321.146-3.36,0-1.601-1.415-5.766-1.885-7.897-1.943-2.372-.064-6.023.345-7.943,1.943-.916.098-2.444.097-3.36,0-.301-1.07-1.278-.851-2.073-1.048-1.719-.426-3.417-.955-5.127-1.352-.415-.097-1.035.101-1.44,0l-.48-.48c-.527-.135-1.403.139-1.92,0-.585-1.325-2.15-1.024-3.195-1.626-.84-.484-1.606-2.545-3.045-2.694-.06-.127.057-.338,0-.48-1.421-3.528-1.25-5.247,0-8.64.054-.147-.059-.356,0-.48,3.468-3.651,7.387-5.227,12.263-2.904,2.804,1.336,4.085,5.012,7.638,4.338,1.88-.356,4.573-5.006,5.539-6.714.068-.12-.067-.354,0-.48,1.235-.974,2.236-2.916,2.88-4.32.061-.132-.061-.348,0-.48,1.591-.995,1.811-3.146,2.4-4.8.051-.142-.053-.34,0-.48,1.152-1.357,1.918-3.469,2.88-5.28.066-.125-.067-.357,0-.48l3.84-4.32c.13-.059.341.057.48,0,8.231-3.355,10.775-.322,17.905,2.504.844.335,2.488,1.244,2.634,1.291,11.318,3.661,10.752-4.327,15.071-11.144,2.814-4.442,6.139-6.954,11.643-6.064,1.934.313,6.795,1.781,9.028,2.406.429.12.395,1.535,2.9.906.319-.08.288-.681.726-.887.479-.225,1.178-.054,1.795-.504,6.849-4.997,2.139-13.642-3.621-17.308-.114-.072-.367.073-.48,0-1.142-1.352-2.681-2.169-4.32-2.88-.135-.058-.346.059-.48,0l-.48-.48c-.133-.059-.344.058-.48,0-.447-1.148-1.97-.982-3.073-1.487-.8-.366-1.443-.992-2.207-1.393-.126-.066-.36.068-.48,0-.567-.874-1.446-1.968-2.4-2.4-.129-.058-.336.054-.48,0-2.423-2.044-8.139-2.044-10.56,0-.151.041-.337-.045-.48,0-4.465,1.404-8.608,7.574-12.686,1.886-3.507-4.89-.716-12.841-5.224-16.613-2.571-2.151-5.501-.599-8.227-.61-2.598-.011-4.897-.623-7.463-.503-1.954-.245-3.968-.227-5.76-.48l-.96-.48c-1.188-.162-2.686.188-3.84,0-2.07-1.632-5.13-1.639-7.68-2.88-.13-.063-.356.065-.48,0l-3.84-3.84c-.077-.102.076-.374,0-.48-.05-.07.095-.469-.134-.823-.194-.3-1.842-1.664-2.266-2.057-.071-.115.069-.358,0-.48-.724-1.268-.998-2.615-2.88-2.4-.078-.064.078-.419,0-.48l-.48-.48c-.196-.111-.816.113-.96,0-.338-1.797-3.099-2.324-4.32-3.84-.065-.117.061-.34,0-.48-1.871-4.297-2.078-8.291,0-12.48.065-.13-.067-.36,0-.48,2.917-3.291,6.625-3.316,10.193-4.927,4.138-1.868,12.281-7.76,16.814-6.966,1.604.281,3.547,1.691,5.527,2.159,4.123.975,8.565.494,12.436,2.444,2.799,1.409,4.927,4.424,4.965,7.56.046,3.833-3.61,8.616,1.144,10.81,3.002,1.386,8.903.913,12.777,2.103,3.033.932,6.064,3.629,9.614,2.444,3.645-1.217,1.058-9.208.911-12.008-.19-3.604.987-13.705.125-15.965-.418-1.095-1.941-2.332-2.285-3.47-1.232-4.071,1.947-6.113,3.139-9.623.102-.075.362.073.48,0ZM245.063,166.065c-3.735-2.092-10.642-3.654-13.713.138-1.754,2.166-1.767,7.227-1.386,9.912.633,4.461,6.71,7.107,10.781,6.544.907-.125,5.977-2.067,6.481-2.634,1.234-1.387,1.167-7.655.893-9.585-.301-2.117-1.302-3.393-3.056-4.375ZM327.664,176.104c-5.605-3.962-11.346.125-16.262-.765-1.202-.218-7.247-3.243-8.468-4.034-1.766-1.143-5.237-5.953-7.211-3.261-.827,1.128-1.173,4.192-1.869,5.809-1.199,2.783-3.746,8.043-5.273,10.567-.741,1.225-2.677,3.596-4.19,2.58-2.385-1.603-4.65-6.052-7.463-7.927-2.997-1.998-7.965-2.143-11.265-.763-1.059.443-.899.968-1.353,1.307-.338.252-1.066.058-1.195.19-.386.399-.116,4.636.38,5.499,2.741,4.772,12.016,8.296,17.316,6.224,1.215-.475,2.705-2.363,3.663-2.519.851-.139,2.596.768,3.786.838,1.832.107,3.399-.549,5.266-.522,2.731.04,5.335.885,7.214,2.895,3.73,3.991,1.017,10.314,6.293,13.867,1.591,1.071,6.556,2.471,7.397,3.29,2.204,2.148,2.743,7.757,3.466,10.808.79,3.334,3.137,6.997,1.246,10.634-.858,1.649-10.017,6.556-12.101,7.098-4.861,1.265-8.073-1.509-11.62-1.059-.737.093-4.486,1.597-5.189,2.011-4.182,2.463-6.374,12.536-3.403,16.224.567.704,5.043,2.064,6.266,2.374,2.269.576,4.687.436,6.904,1.256,10.815,4.002,9.794,12.562,17.586,18.392,4.12,3.082,6.836,2.727,11.131,4.251,9.122,3.238,26.231,16.864,28.265,26.455.31,1.462.776,3.171.646,4.655-.528,6.027-13.232,7.864-10.266,17.445,1.266,4.091,12.159,9.441,16.217,8.687,4.837-.899,8.081-6.133,8.442-10.752.425-5.434.51-18.107-1.105-22.929-1.903-5.68-8.889-10.161-9.835-16.083-.763-4.773,2.667-20.141,4.983-24.545,1.655-3.146,4.863-5.706,6.798-9.039,3.129-5.389,4.026-9.758,8.261-15.134,1.926-2.446,7.397-6.377,6.624-10.095-.283-1.361-2.985-3.361-3.766-4.888-3.134-6.131-2.159-13.45-4.177-18.383-1.03-2.517-4.653-5.879-6.277-8.123-3.414-4.716-5.122-10.623-9.83-14.407-6.174-4.963-15.788-5.497-17.083,3.98-.306,2.24.253,10.593-3.423,10.062-2.958-.427-10.782-8.607-11.586-11.474-1.286-4.586,1.026-7.185-3.937-10.694ZM411.185,218.458c1.88-1.185,3.964-3.753,4.849-5.942,1.576-3.9-1.672-10.125-4.484-13.027-1.416-1.462-5.129-4.113-7.127-4.388-2.194-.301-7.381,1.124-9.498,2.062-3.989,1.768-5.768,6.546-5.188,10.702.352,2.521,2.655,10.785,4.084,12.712.341.46,1.541,1.654,2.036,1.801,3.58,1.061,12.145-1.916,15.328-3.921ZM486.901,212.692c-1.965-1.71-3.895-2.725-6.662-2.733-6.475-.019-9.029,4.734-7.81,10.73.328,1.612,3.333,4.945,4.713,5.847,8.016,5.241,15.113-4.577,11.615-12.093-.465-.998-1.157-1.142-1.856-1.751ZM406.393,249.911c-1.742.571-.238,3.959.952,4.179.635.117,3.698-1.335,3.944-2.179.751-2.57-3.251-2.539-4.896-1.999ZM291.101,325.947c.899.954,3.413,4.597,4.249,4.467s3.702-2.96,4.415-3.769c3.079-3.489,7.78-17.572,8.343-22.378.418-3.569-.217-7.402-2.81-10.046-2.616-2.667-10.114-4.114-13.723-3.607-1.067.15-1.682.872-2.399.961-5.862.728-10.522-.776-13.864-5.768-2.832-4.23-2.396-10.609-2.212-15.588.145-3.92,2.097-6.656-.933-10.066-1.449-1.63-5.231-2.814-7.354-4.166-4.378-2.789-8.388-7.765-14.607-5.304-3.537,1.399-5.897,7.856-5.925,11.4-.013,1.64.719,3.086.502,4.754-.41,3.14-4.653,3.897-3.128,8.473.68,2.042,8.972,4.482,11.286,5.991,5.779,3.767,13.674,13.932,17.024,19.936,1.454,2.606,2.106,6.885.499,9.545-3.069,5.078-9.923,4.68-12.374,13.066-1.375,4.706.143,9.952-.848,13.542-.639,2.314-2.979,5.07-3.655,7.395-1.002,3.445-.125,7.202-1.438,10.562-1.226,3.137-4.932,5.92-6.4,8.96-2.923,6.058-2.53,23.821,7.833,20.793,3.762-1.099,1.812-8.48,1.76-11.161-.119-6.094-.277-9.61,2.719-15.08,2.077-3.793,5.823-6.834,6.367-11.393.26-2.179-.484-6.022.5-7.66,1.156-1.925,11.679-7.058,14.393-9.127,3.062-2.334,4.942-5.806,8.438-7.179,1.413-.12,2.43,1.478,3.344,2.447ZM299.838,270.173c-2.875-1.83-10.867-3.614-14.154-2.729-2.255.608-8.122,5.931-8.624,8.176-.696,3.111,2.848,8.898,5.998,9.637,4.798,1.127,11.622-2.452,17.6-1.758,2.032.236,6.777,2.895,7.4-.367.351-1.838-6.293-11.733-8.221-12.96ZM326.713,300.405c-4.427-4.768-11.486-.597-13.839,4.31-1.001,2.087-3.075,8.609-2.816,10.665.268,2.131,2.743,5.971,4.841,6.68,1.815.614,9.258,1.372,11.21,1.163,4.947-.531,7.935-4.366,6.5-9.276-.819-2.802-4.114-11.624-5.895-13.543ZM312.482,343.441c-4.001.084-8.971-.846-12.012-3.591-2.172-1.961-6.204-9.197-7.553-1.818-.657,3.593.623,4.018,1.296,6.635,1.81,7.042,2.397,15.168,11.804,14.629,7.14-.409,7.952-7.523,8.833-13.255,5.521.551,9.668.823,13.176-4.095,3.654-5.121,2.757-8.855-3.156-11.136-3.84-1.481-8.217-2.231-11.606.693-3.586,3.094-.327,7.993-.781,11.938ZM269.595,355.283c-2.468,3.988-7.703,7.607-9.278,12.554-1.307,4.104-.317,10.696,4.958,10.983,2.002.109,9.973-5.394,11.407-7.098,4.389-5.21-.202-11.459.95-15.335,1.666-5.604,9.919-.981,7.378-8.759-1.419-4.342-4.764-11.772-10.209-8.028-5.318,3.656-2.159,10.761-5.205,15.683ZM364.569,358.907c-2.115-.009-2.261,4.296-.952,4.687,2.217.662,3.134-3.798.952-4.687ZM361.326,376.677c-1.303-1.428-4.789,2.503-5.271,3.856-.7,1.963-.907,6.534,1.833,6.578,3.718.06,5.325-8.366,3.438-10.434ZM227.379,395.383c-2.608.6-4.636,5.224-1.923,6.036,6.879,2.059,9.939-7.881,1.923-6.036ZM255.23,398.752c-11.015,2.004-8.423,22.669,3.26,12.857,5.426-4.557,4.812-14.326-3.26-12.857ZM356.482,402.123c-5.211.173-4.246,10.396,2.256,7.013,3.997-2.079,1.001-7.121-2.256-7.013ZM240.332,433.837c-4.059-2.208-11.047.583-14.59,2.864-1.989,3.364-3.115,8.182,1.165,10.311,2.657,1.322,13.751,2.958,16.116,1.572,2.474-1.45,1.519-9.395.316-11.64-.102-.191-2.817-3.004-3.007-3.107Z" fill="#deebf7"/>
    <path d="M414.24,278.159c3.543-1.197,5.951-1.091,9.465.374,5.632,2.349,5.488,8.762,13.575,11.626.244.086.692-.08.96,0,2.591,2.906,6.128,1.168,9.307,1.495,1.663.171,2.952,1.143,4.133,1.385.291.06.665-.057.96,0l.96.48c.435.083,1.002-.081,1.44,0,1.16,1.837,3.834.556,5.786,1.174,2.357.747,3.868,3.914,3.851,6.269-.024,3.194-3.341,8.988-5.792,11.042-2.173,1.821-9.26,4.409-9.986,6.815-1.175,3.898,4.78,8.599,3.717,14.278-.573,3.061-7.91,6.395-10.775,6.402-3.987.01-8.618-4.431-8.698-8.38-.128-6.248,5.953-9.282,6.516-12.91.246-1.582-.579-8.294-1.23-9.759-1.041-2.342-4.882-5.256-7.589-4.829-3.097.489-3.202,3.686-5.912,5.145-6.07,3.268-8.25-.365-12.837-2.299-3.006-1.268-10.703-2.084-12.018-4.782-1.642-3.369-1.264-9.108.627-12.346,1.497-2.564,5.598-4.452,8.006-6.394,1.671-1.348,3.411-3.316,5.054-4.786.134-.054.332.05.48,0Z" fill="#deebf7"/>
    <path d="M108,186.959c.122.069.366-.071.48,0,7.791,6.212-.013,7.892-.48,12.48-.03.297-.024.66,0,.96.045.574,1.285,5.326,1.51,5.702.106.177.624.067.89.058.09.246-.09.715,0,.96.218.59.918,1.193,1.203,1.913.533,1.347.452,3.226,1.677,3.847.138.707-.14,1.699,0,2.4.524,2.617.822,6.58,3.84,7.68.15.055.364-.062.48,0,.888,1.432,2.967,1.68,4.046,2.914,2.887,3.302,1.837,6.877-1.166,9.566-.127.06-.338-.057-.48,0-3.661,1.47-6.134,1.325-9.6-.48-.128-.067-.366.07-.48,0l-.96-.96c-.066-.131.069-.366,0-.48l-2.4-5.28c-.08-.269.086-.717,0-.96-.769-2.165-3.763-4.565-5.76-5.76-.117-.07-.357.069-.48,0-1.058-1.457-2.271-1.67-3.84-2.4-.131-.061-.349.062-.48,0l-.48-.48c-.135-.059-.349.061-.48,0-.454-1.379-1.876-1.342-2.88-1.92-.323-.186-.768-.349-.96-.48-3.474-3.462-5.967-7.803-10.08-10.56-.154-.166-.327-.315-.48-.48-.386-1.237-1.157-2.012-2.4-2.4-.153-.167-.33-.314-.48-.48-.088-1.256-1.542-1.656-1.931-2.277-2.051-3.271-1.638-6.272-.469-9.723.088-.26-.096-.747,0-.96l2.4-2.4c.124-.056.325.047.48,0,5.68-1.717,8.255,1.602,12.744.979,1.95-.271,4.338-2.15,6.428-2.686,4.089-1.048,7.034-.31,10.588,1.707ZM100.99,212.123c.567-.345,1.423-.295,1.673-.978.969-2.642-1.037-8.812-2.887-10.922-2.013-2.296-8.69-2.731-7.989,2.219.553,3.903,3.187,8.849,7.131,10.162,2.143.714,1.448-.1,2.072-.48Z" display="none" fill="#deebf7"/>
    <path d="M159.48,190.799c-4.067-3.636-2.209-5.803-1.289-11.91.427-2.833.306-8.253,2.563-10.336,2.857-2.636,5.347-7.358,9.977-6.525,1.556.28,4.753,2.025,6.184,2.936.578.368,5.386,3.96,5.605,4.235.078.098-.077.38,0,.48,1.037,1.341,1.559,3.511,3.36,4.32.071.117-.071.363,0,.48.633,1.044,1.272,2.289,2.4,2.88.054.134-.051.335,0,.48l.48.48c.138.494-.103,1.346,0,1.92.536,2.981.76,6.007,1.342,8.976.16.813.042,1.772,1.058,2.064.036.151-.038.33,0,.48l.48.48c.111.39-.118,1.077,0,1.44.383,1.173.8,2.798,1.92,3.36.053.14-.052.339,0,.48l2.88,7.2c.201,1.802.259,6.436,0,8.16-1.236.83-1.593,2.598-2.4,3.84-.071.109.067.348,0,.48-3.15,1.038-4.492.213-6.72-1.92-.067-.114.062-.342,0-.48l-.48-.48c-.077-.259.066-.672,0-.96-.455-1.984-.49-5.393-1.041-6.89-.343-.932-.953-.579-1.359-.79-.684-.356-.8-.31-1.44-.48l-.48-.48c-.797-.178-2.004.131-2.88,0-.769-1.633-3.038-.783-4.512-1.008-1.498-.229-2.968-.838-4.478-1.044l-5.89-7.068c-.064-.127.063-.35,0-.48-1.31-2.713-1.237-2.489-3.84-3.84-.126-.065-.355.066-.48,0l-.48-.48c-.123-.068-.356.067-.48,0ZM173.23,174.653c-.306-.185-3.697-1.603-3.909-1.601-.166.001-2.837,1.084-3.076,1.233-2.111,1.314-3.209,4.498-1.227,6.418.564.546,1.517.595,2.164,1.193,1.068.987,3.886,3.947,4.498,5.082s.438,3.084.904,4.396c1.373,3.866,10.385,8.096,11.346,2.037.967-6.101-2.298-9.752-6.01-13.837-.952-1.047-3.435-4.162-4.691-4.921Z" fill="#deebf7"/>
    <path d="M589.92,454.319c.087.08.391-.079.48,0,7.075,5.442,3.722,14.199-5.04,13.448-2.237-.192-6.465-2.465-7.683-2.458-1.025.006-1.583.847-2.421.987-4.007.67-8.584-.761-12.46,1.939-2.49,1.734-5.618,7.458-8.256,8.061-8.949,2.046-10.589-8.764-5.42-13.818.218-.088.671.069.96,0,1.662-.396,7.532-.185,7.137-2.55-.027-.16-1.49-2.542-1.724-2.755-1.745-1.585-4.348-1.009-6.373-3.704-6.256-8.322.082-18.807,7.2-24.111.129-.06.342.058.48,0l.48-.48c.14-.05.333.046.48,0,14.616-4.604,9.45,2.223,15.841,9.359,1.311,1.464,4.026,3.095,5.532,4.548,3.85,3.715,6.634,7.728,10.787,11.533ZM563.806,456.916c.279.276.277,1.049.695,1.444,2.696,2.553,10.682,2.457,13.369-.012,2.932-2.693,1.348-8.31-.701-11.198-1.968-2.775-9.136-5.557-12.433-6.767-4.599-1.689-9.973-4.009-9.368,3.612.395,4.977,5.102,9.621,8.438,12.921Z" display="none" fill="#deebf7"/>
    <path d="M382.56,151.919c-2.103-1.502-6.013-7.886-7.15-10.37-3.928-8.589-3.803-18.746-1.379-27.678,2.11-7.773,7.165-15.048,16.331-12.715.457.116,4.157,2.843,4.219,3.098.915,3.751-7.199,10.624-7.054,14.711.099,2.772,4.555,9.182,6.092,11.954.152.273.705.337.9.743,2.887,6.032,1.349,10.882-2.828,15.709-1.031,1.191-3.994,3.909-5.291,4.549-.203.1-.711-.094-.96,0l-.48.48c-.285.039-.664.021-.96,0l-.96-.48c-.129-.069-.378.073-.48,0ZM381.27,131.907c-2.063,2.858.295,9.498,4.659,7.297,3.828-1.931-1.359-11.871-4.659-7.297Z" fill="#deebf7"/>
    <path d="M487.2,351.599c.133.062.355-.064.48,0,3.098,2.061,4.838,13.157,7.68,13.92.355.095,1.466.047,1.92,0l.96-.48c.152-.047.347.052.48,0,1.949-.76,3.644-2.678,5.429-3.451,7.24-3.133,15.181,1.747,13.66,9.823-.089.472-1.278,3.37-1.473,3.564-.183.182-4.06,2.2-4.563,2.397-3.585,1.404-7.997,2.22-11.475.248-1.658-.94-3.298-3.399-5.28-3.84-2.887-.643-7.804-.178-10.932-.588-10.134-1.329-20.355-9.579-10.807-19.193.12-.07.368.072.48,0,.987-.635,2.165-1.463,2.88-2.4.127-.061.342.058.48,0,4.294-1.815,5.604-2.081,10.08,0Z" display="none" fill="#deebf7"/>
    <path d="M447.36,503.759c.154.497.589.388.96.48.158.039.345-.047.48,0,2.616,2.352,6.821,3.999,10.328,4.312,3.702.331,7.863-.778,11.272.968.13.067.368-.07.48,0,2.796,1.756,3.532,9.278,1.81,12.149-2.735,2.629-4.672,7.657-9.211,7.029-2.493-.345-6.578-4.316-9.303-5.115-4.007-1.175-8.954.283-12.264-1.655-3.992-2.338-4.713-10.787-2.649-14.503.327-.589,3.341-3.551,3.776-3.664.769-.2,3.317-.056,4.32,0Z" display="none" fill="#deebf7"/>
    <path d="M549.6,79.919c-.191-.127-2.974-3.18-3.087-3.393-.162-.307-1.634-4.263-1.687-4.553-1.041-5.747,1.775-14.018,1.941-20.14.022-.826-.207-1.433-.527-2.154h11.04c.05,0-.177.667.355.941,4.273,2.198,9.689,3.455,13.312,6.751,1.383,1.258,4.418,5.455,4.818,7.183.942,4.069-.855,7.873-3.82,10.592-.98.899-2.324,1.1-3.145,2.373-.13.062-.349-.061-.48,0-1.605.751-3.746,1.337-4.8,2.4-.416.089-.989-.068-1.44,0l-.96.48c-2.519.216-7.121.262-9.6,0l-.96-.48c-.263-.092-.805.103-.96,0ZM558.125,58.925c-11.605,1.68-8.117,19.087,4.464,16.46,5.234-1.093,9.02-7.282,5.732-12.027-2.057-2.968-6.609-4.952-10.196-4.433Z" display="none" fill="#deebf7"/>
    <path d="M388.32,501.359c.467-.155,1.43.15,1.92,0l.48-.48c.388-.108,1.029.1,1.44,0,3.682-.896,10.359-2.999,13.696-.016,2.704,2.417,1.775,10.66-.049,13.423-4.816,7.292-11.243,5.357-18.2,4.797-1.282-.103-2.383.448-3.364.415-5.883-.197-11.283-4.755-6.727-10.463,2.217-2.778,7.624-6.621,10.804-7.676Z" display="none" fill="#deebf7"/>
    <path d="M474.24,456.719c.269.079.711-.085.96,0,2.939,1.554,5.761,3.695,5.314,7.456-.115.969-.736,3.287-.994,4.544-.031.153.029.325,0,.48-3.692,4.22-10.546,5.674-15.969,4.689-3.423-.622-9.021-6.001-9.82-9.379-1.279-5.405,6.34-8.737,10.728-9.171,3.98-.394,6.133.303,9.781,1.381ZM467.447,463.508c-2.068-1.312-5.266,1.668-1.812,2.555,2.467.634,2.678-2.006,1.812-2.555Z" display="none" fill="#deebf7"/>
    <path d="M492.96,169.199c-.233.093-1.505.037-1.92,0l-.48-.48c-.158-.045-.357.055-.48,0-3.009-2.74-3.819-4.065-5.339-7.763-1.628-3.959-2.222-8.654-3.657-13.24-1.145-3.659-1.306-8.034,1.796-10.676.123-.062.338.058.48,0,4.274-1.732,8.617-1.882,9.975,3.225,1.652,6.213,3.094,16.491,2.524,22.955-.141,1.602-1.446,5.404-2.9,5.98Z" fill="#deebf7"/>
    <path d="M669.6,49.679c-2.67,4.827,5.226,17.157,9.459,18.137,9.514,2.202,7.643-12.974,5.421-18.137,1.596.024,3.204-.017,4.8,0-.348,4.475,1.477,8.475,2.64,12.48,2.189,7.539,1.518,10.268-4.56,15.36-.13.058-.336-.054-.48,0-5.243,1.982-8.292.894-11.687-3.415-2.583-3.278-11.799-17.736-12.313-21.065-.157-1.017.107-2.296-.002-3.363,2.235-.012,4.487.025,6.722.003Z" display="none" fill="#deebf7"/>
    <path d="M486.72,437.519c3.769.822,8.886,5.977,10.445,9.475.495,1.109.605,2.036.628,3.238.078,4.149-3.721,10.226-7.411,12.059-2.225,1.105-3.152,1.521-5.201.161-3.868-2.568-5.03-8.905-5.528-13.306-.278-2.456-.653-10.855,2.267-11.627.512-.136,4.22-.126,4.8,0Z" display="none" fill="#deebf7"/>
    <path d="M698.88,456.719c.151.477.553.428.96.48.157.02.327-.029.48,0,3.383,1.374,8.082,4.155,7.721,8.401-.267,3.136-6.83,8.762-9.907,9.332-4.014.743-9.124-2.022-11.972-4.775-4.954-4.787-3.585-7.07,1.678-10.558.137-.056.343.055.48,0,1.916-.773,4.017-1.224,5.76-2.4.153-.032.325.028.48,0,.773-.141.907-.473.96-.48.941-.117,2.373-.057,3.36,0Z" display="none" fill="#deebf7"/>
    <path d="M193.92,420.719c.284.069.701-.078.96,0,3.739,3.18,9.767,4.64,7.2,10.56-.06.139.065.361,0,.48-3.902,3.972-8.996,5.872-14.601,5.239-2.967-.335-3.607-1.982-6.039-2.839-.076-.103.074-.367,0-.48-.431-.656-1.224-1.939-1.468-2.614-.521-1.445.01-3.341-1.412-4.106,0-.162-.038-.372,0-.48.015-.042.612-.135.707-.474.294-1.042.285-2.077.79-3.069,2.407-4.725,9.726-3.227,13.863-2.217Z" fill="#deebf7"/>
    <path d="M734.88,121.679l-2.4,2.4c-.129.057-.332-.052-.48,0l-.48.48c-.272.065-.653-.046-.96,0-2.863.426-3.308.534-6.24,0-.301-.055-.703.074-.96,0-3.376-2.302-6.732-5.372-6.731-9.815,0-2.917,1.819-3.596,2.891-6.025,6.378-3.602,17.664-1.667,17.771,6.984.034,2.77-1.04,3.941-2.411,5.976Z" fill="#deebf7"/>
    <path d="M174.24,265.679c.07.503.062,1.408,0,1.92l-2.4,3.84c-.12.067-.349-.064-.48,0-5.324,2.619-5.519,1.122-10.56,0-.287-.064-.668.059-.96,0-.092-.207-.262-.413-.48-.48-.143-.044-.327.039-.48,0-.874-1.458-3.665-1.281-5.28-1.44-.138-.068-.307-.34-.48-.48-.924-.749-1.261-1.887-2.4-1.92-.087-.368-.094-2.569,0-2.88.055-.183,1.898-3.009,2.079-3.201,1.951-2.065,8.8-3.82,11.607-3.536,1.543.156,6.073,2.78,7.206,3.844,1.367,1.283,1.151,3.303,2.627,4.333Z" fill="#deebf7"/>
    <path d="M444.96,164.879c8.195-4.375,9.799,5.283,9.067,11.227-1.123,9.117-14.299,11.685-15.308,2.455-.635-5.813,1.169-9.454,5.605-12.895.22-.171.111-.754.156-.787.102-.073.351.069.48,0Z" fill="#deebf7"/>
    <path d="M602.88,247.919c.15.047.345-.051.48,0,2.354,2.442,5.321,4.192,5.759,7.92.529,4.512-.752,7.346-4.319,9.84-.134.047-.322-.039-.48,0l-.48.48c-.813.112-2.54.107-3.36,0l-.96-.48c-.142-.06-.366.066-.48,0-3.591-2.063-7.841-8.353-7.094-12.608,1.034-5.89,5.921-6.724,10.934-5.152Z" fill="#deebf7"/>
    <path d="M521.28,89.519c3.479,1.656,3.569,3.066,5.178,6.102,1.186,2.239,2.206,2.464,2.495,5.661.48,5.31-1.05,8.656-5.273,11.756-.129.048-.319-.038-.48,0-.375.087-.807-.014-.96.48-1.174.09-4.327.222-5.28,0-3.571-5.103-.143-9.936.44-14.68.406-3.298-1.309-8.52,3.4-9.32.147-.025.327-.003.48,0Z" display="none" fill="#deebf7"/>
    <path d="M468.48,420.719c.138.059.352-.061.48,0,2.992,2.088,7.255,8.502,6.239,12.132-.046.165-1.776,1.771-2.143,1.829-2.364.371-8.887.063-10.97-1.105-.892-.5-4.561-4.668-4.899-5.641-.753-2.166-.895-7.01,1.242-8.387,3.083-1.986,7.196-.045,10.052,1.172Z" display="none" fill="#deebf7"/>
    <path d="M413.28,329.519c.071.03.108.757,1.196.953,1.132.203,5.927-.667,5.52,1.198-.166.757-4.669,3.82-5.588,4.737-3.741,3.733-6.717,11.844-12.888,11.883-1.828.011-3.219-1.641-3.522-3.305-.04-.22,1.078-3.908,1.258-4.29.466-.991,4.628-6.925,5.369-7.591,1.937-1.741,4.398-2.198,6.741-2.878.342-.099.431-.691.474-.707.147-.053,1.317-.052,1.44,0Z" fill="#deebf7"/>
    <path d="M153.12,345.839c2.42,2.044,3.929,2.187,3.335,5.97-.68,4.33-6.166,4.601-9.209,5.587-.399.129-.362.764-.742.88-1.485.452-3.52,1.041-5.005.899-3.042-.292-7.725-3.957-6.051-7.212,1.333-2.592,4.729-1.535,6.632-3.243.263-.08.692.078.96,0,1.585-.461,4.558-1.888,5.76-2.88.915-.127,3.452-.154,4.32,0Z" display="none" fill="#deebf7"/>
    <path d="M524.64,182.639c-.352-.185-2.159-2.613-2.298-3.221-.77-3.353.615-7.759,3.234-10.004,3.7-3.172,8.748-2.685,10.454,2.078.868,2.425.792,4.484-.015,6.918-.345,1.043-2.304,3.761-3.215,4.228-.121.062-.335-.056-.48,0-2.172.842-4.534.621-6.72,0-.28-.079-.776.096-.96,0Z" fill="#deebf7"/>
    <path d="M470.88,69.359c-.245-.103-3.477-2.179-3.648-2.361-.485-.517-3.077-5.101-3.067-5.568.051-2.437,5.53-3.157,7.433-3.154,5.161.008,10.668,4.491,8.897,9.903-1.345,4.108-5.583,2.279-8.654,1.18-.252-.09-.734.095-.96,0Z" fill="#deebf7"/>
    <path d="M488.16,105.359c-2.271.753-3.875,1.554-6.362.361-3.627-1.74-2.304-8.044-.373-10.699.896-1.233,3.49-3.114,5.058-3.108,5.613.02,8.075,7.027,4.997,11.254-.664.911-2.2.49-2.361,2.192-.215.095-.698-.087-.96,0Z" fill="#deebf7"/>
    <path d="M416.16,94.319c-1.899-1.423-3.857-6.59-1.644-8.123,3.886-2.693,14.82,1.815,14.134,6.897-.537,3.973-9.282,2.897-12.01,1.226-.119-.073-.379.075-.48,0Z" fill="#deebf7"/>
    <path d="M323.52,160.079c-.116-.073-.371.074-.48,0-5.7-3.885-4.575-13.246,1.621-10.018,2.35,1.224,6.442,5.55,6.445,8.338.006,5.604-4.53,3.598-7.586,1.68Z" fill="#deebf7"/>
    <path d="M229.92,329.039c-.045.153.05.346,0,.48l-.48.48c-.061.136.064.356,0,.48-5.672,4.973-15.412.251-8.16-6.72.111-.071.353.068.48,0,1.376-.738,2.199-1.201,4.144-1.376,6.604-.595,5.578,1.349,4.016,6.656Z" fill="#deebf7"/>
    <path d="M703.68,209.999c-.213.072-2.187.072-2.4,0-.201-.068-2.848-2.515-3.079-2.92-2.584-4.517,2.722-12.272,7.367-9.285,1.906,1.226,1.844,6.951,1.257,8.87-.211.69-2.752,3.203-3.145,3.335Z" fill="#deebf7"/>
    <path d="M593.28,65.999c-.107.072-.353-.069-.48,0-6.296,3.392-11.871-.361-7.2-6.72.103-.074.356.07.48,0,3.867-2.197,10.994-2.887,9.496,3.501-.155.661-1.829,2.906-2.296,3.219Z" display="none" fill="#deebf7"/>
    <path d="M216,202.319c.049.129-.039.32,0,.48.948,3.881.379,6.396-4.072,6.471-8.998.151-3.394-12.998,4.072-6.951Z" fill="#deebf7"/>
    <path d="M106.08,376.079c.066.225.254.434.48.48.296.06.718-.08.96,0,5.307,5.439-1.807,11.565-6.72,5.76-.106-.759-.12-2.623,0-3.36l2.4-2.4c.127-.055.326.047.48,0,.337-.104.447-.474.48-.48.468-.081,1.416-.055,1.92,0Z" display="none" fill="#deebf7"/>
    <path d="M306.72,77.039c-.11.064-.329-.056-.48,0-.331.122-.809-.011-.96.48-.851.065-2.041.082-2.88,0-.073-.213-.262-.445-.48-.48-.168-.027-.359.046-.48,0-.499-.876-.819-2.942-.36-3.732.15-.258,3.307-3.058,3.743-3.204,6.647-2.233,6.448,4.278,1.897,6.936Z" fill="#dfebf7"/>
    <path d="M314.4,425.999c.302.051.679-.062.96,0l.48.48c.146.053.35-.056.48,0,1.587,1.501,3.672,5.651.963,6.959-4.484,2.165-9.738-6.761-4.903-7.819,1.156-.253,1.375.272,2.02.38Z" fill="#dfebf7"/>
    <path d="M288,440.399c.593.191,3.928,3.678,3.788,4.491-.064.37-1.474,1.72-1.904,1.949-4.535,2.417-8.986-2.526-5.244-6.44.581-.079,2.964-.127,3.36,0Z" fill="#dfebf7"/>
    <path d="M403.2,169.199c-.23.125-1.033-.091-1.44,0-1.63.367-1.038.187-2.4,0-.555-.076-1.558.144-1.92,0-.146-.058-.774-1.055-.846-1.317-.917-3.374,6.906-4.547,7.516-2.693.243.737-.454,3.763-.91,4.011Z" fill="#dfecf7"/>
    <path d="M521.76,545.519c-3.22-4.865-3.091-11.349-4.923-16.437-.889-2.47-2.837-4.113-2.767-7.34.099-4.589,8.314-5.219,11.634-3.928,3.508,1.364,8.787,11.584,9.669,15.292.392,1.646,1.649,12.413-.413,12.413h-13.2ZM524.468,526.378c-4.528.733-1.841,17.745,4.136,16.666,3.355-.606,2.647-7.568,2.072-10.041-.455-1.958-4.07-6.972-6.208-6.626Z" display="none" fill="#c6dbef"/>
    <path d="M684.48,49.679c2.222,5.163,4.093,20.339-5.421,18.137-4.233-.98-12.13-13.309-9.459-18.137,4.945-.048,9.936-.074,14.88,0ZM680.006,54.147c-2.902-3.949-6.462,2.649-2.114,4.3,2.689,1.021,3.283-2.709,2.114-4.3Z" display="none" fill="#c6dbef"/>
    <path d="M327.664,176.104c4.963,3.509,2.651,6.107,3.937,10.694.804,2.867,8.628,11.047,11.586,11.474,3.675.53,3.116-7.822,3.423-10.062,1.295-9.477,10.909-8.943,17.083-3.98,4.708,3.784,6.416,9.691,9.83,14.407,1.624,2.244,5.248,5.605,6.277,8.123,2.018,4.934,1.043,12.252,4.177,18.383.781,1.527,3.483,3.527,3.766,4.888.773,3.718-4.698,7.65-6.624,10.095-4.235,5.376-5.132,9.745-8.261,15.134-1.935,3.332-5.144,5.892-6.798,9.039-2.316,4.403-5.745,19.772-4.983,24.545.946,5.922,7.932,10.403,9.835,16.083,1.616,4.822,1.53,17.495,1.105,22.929-.361,4.62-3.605,9.854-8.442,10.752-4.058.754-14.95-4.596-16.217-8.687-2.966-9.581,9.737-11.418,10.266-17.445.13-1.484-.336-3.193-.646-4.655-2.034-9.591-19.143-23.217-28.265-26.455-4.295-1.525-7.011-1.169-11.131-4.251-7.792-5.83-6.772-14.39-17.586-18.392-2.217-.82-4.635-.681-6.904-1.256-1.223-.31-5.698-1.67-6.266-2.374-2.97-3.688-.779-13.761,3.403-16.224.703-.414,4.452-1.918,5.189-2.011,3.546-.449,6.759,2.324,11.62,1.059,2.084-.542,11.243-5.449,12.101-7.098,1.892-3.637-.455-7.299-1.246-10.634-.723-3.051-1.262-8.659-3.466-10.808-.84-.819-5.805-2.219-7.397-3.29-5.277-3.552-2.563-9.876-6.293-13.867-1.878-2.01-4.482-2.855-7.214-2.895-1.867-.027-3.434.63-5.266.522-1.189-.07-2.935-.976-3.786-.838-.958.156-2.447,2.044-3.663,2.519-5.3,2.072-14.576-1.452-17.316-6.224-.496-.863-.766-5.1-.38-5.499.128-.133.857.062,1.195-.19.454-.339.294-.864,1.353-1.307,3.3-1.38,8.268-1.235,11.265.763,2.813,1.876,5.077,6.325,7.463,7.927,1.513,1.016,3.449-1.355,4.19-2.58,1.527-2.523,4.074-7.784,5.273-10.567.696-1.616,1.042-4.681,1.869-5.809,1.974-2.692,5.445,2.118,7.211,3.261,1.221.791,7.266,3.816,8.468,4.034,4.916.89,10.657-3.197,16.262.765ZM375.176,243.422c1.164-1.411,4.294-5.723,5.004-7.243,3.042-6.512-.967-22.278-5.09-28.07-2.019-2.836-6.084-5.385-8.099-8.221-1.978-2.782-3.386-8.334-5.766-10.554-2.563-2.392-6.533-3.517-8.526.163-1.979,3.655-1.451,7.527-2.403,11.035-.795,2.928-4.867,5.073-7.778,4.651-2.449-.356-7.073-6.529-9.426-8.364-4.307-3.359-9.674-3.653-14.958-2.529-2.549.542-5.288,1.271-2.317,3.976,1.877,1.709,3.182,2.165,4.816,4.781,3.984,6.378,6.415,12.593,9.441,19.359,1.06,2.369,3.143,7.681,4.488,9.432,3.138,4.085,6.616,3.296,10.392,5.217,1.711.871,8.195,6.695,9.122,8.389.584,1.067,1.502,3.823,1.358,4.946-.267,2.078-3.511,5.348-5.489,5.953-5.349,1.635-11.264-3.322-14.413-7.234-5.276-6.554-5.237-14.192-16.086-13.185-5.742.532-9.596,4.946-15.007,5.633-4.773.606-13.69-1.398-12.625,6.625.687,5.171,7.606,3.571,11.064,4.781,1.842.645,10.542,7.822,12.5,9.582,2.968,2.666,4.9,5.656,7.328,8.273,2.295,2.473,7.73,4.861,10.584,6.936,5.577,4.054,10.964,12.134,18.793,11.472,3.696-.313,5.568-3.57,6.718-6.749,2.886-7.982,1.038-16.005,3.374-23.506,2.669-8.569,8.007-9.49,13.005-15.548ZM356.322,330.317c1.539,1.543,4.663,2.099,6.699,1.502,2.698-.79,2.774-6.155,1.717-8.238-3.002-5.916-13.845,1.295-8.416,6.736Z" fill="#c6dbef"/>
    <path d="M291.101,325.947c-.914-.969-1.931-2.568-3.344-2.447-3.496,1.373-5.375,4.844-8.438,7.179-2.714,2.069-13.237,7.202-14.393,9.127-.984,1.638-.24,5.481-.5,7.66-.545,4.559-4.29,7.6-6.367,11.393-2.996,5.47-2.838,8.987-2.719,15.08.052,2.68,2.003,10.062-1.76,11.161-10.363,3.027-10.756-14.735-7.833-20.793,1.467-3.041,5.174-5.824,6.4-8.96,1.313-3.36.436-7.117,1.438-10.562.676-2.325,3.017-5.081,3.655-7.395.991-3.59-.528-8.836.848-13.542,2.451-8.386,9.306-7.988,12.374-13.066,1.607-2.659.955-6.938-.499-9.545-3.35-6.004-11.245-16.17-17.024-19.936-2.314-1.508-10.605-3.949-11.286-5.991-1.524-4.575,2.719-5.333,3.128-8.473.218-1.668-.515-3.115-.502-4.754.028-3.545,2.388-10.001,5.925-11.4,6.219-2.46,10.23,2.516,14.607,5.304,2.123,1.352,5.905,2.536,7.354,4.166,3.031,3.41,1.078,6.146.933,10.066-.184,4.979-.62,11.357,2.212,15.588,3.342,4.992,8.002,6.496,13.864,5.768.717-.089,1.332-.811,2.399-.961,3.608-.506,11.107.94,13.723,3.607,2.593,2.644,3.228,6.477,2.81,10.046-.563,4.806-5.264,18.888-8.343,22.378-.713.808-3.584,3.639-4.415,3.769s-3.35-3.513-4.249-4.467ZM266.718,264.881c-1.503-1.495-6.96-3.882-8.953-2.795-1.701.928-2.803,10.777-2.191,12.74.118.378,4.142,6.06,4.56,6.479,3.373,3.39,7.463,2.357,8.145-2.468.297-2.098.352-8.945.017-10.973-.135-.815-1.007-2.414-1.578-2.983ZM299.794,313.97c3.549-4.751,5.724-13.44-.298-17.308-4.552-2.924-7.737-.908-12.275-.322-5.708.738-10.79-1.576-9.656,6.895.214,1.599,2.415,8.065,3.455,9.023.446.411,9.09,3.806,10.26,4.149,2.673.784,6.866-.231,8.514-2.437ZM279.206,315.751c-1.925-2.113-8.823-.019-11.216,1.198-11.789,5.994-7.652,23.862,6.102,13.302,3.588-2.755,9.004-10.229,5.115-14.499Z" fill="#c6dbef"/>
    <path d="M312.482,343.441c.455-3.946-2.804-8.845.781-11.938,3.389-2.924,7.766-2.174,11.606-.693,5.913,2.28,6.81,6.014,3.156,11.136-3.509,4.918-7.655,4.647-13.176,4.095-.88,5.733-1.693,12.846-8.833,13.255-9.407.539-9.995-7.587-11.804-14.629-.672-2.616-1.953-3.041-1.296-6.635,1.349-7.379,5.381-.143,7.553,1.818,3.041,2.745,8.012,3.675,12.012,3.591Z" fill="#c6dbef"/>
    <path d="M411.185,218.458c-3.183,2.005-11.748,4.983-15.328,3.921-.495-.147-1.695-1.341-2.036-1.801-1.429-1.927-3.732-10.191-4.084-12.712-.58-4.156,1.199-8.934,5.188-10.702,2.117-.938,7.304-2.364,9.498-2.062,1.998.274,5.711,2.926,7.127,4.388,2.811,2.902,6.06,9.127,4.484,13.027-.885,2.189-2.969,4.757-4.849,5.942ZM408.335,202.942c-4.07-4.508-13.398-1.823-13.308,4.872.036,2.635,2.246,7.386,5.074,7.918,3.09.582,9.154-1.586,9.793-5.038.395-2.137-.055-6.087-1.559-7.753Z" fill="#c6dbef"/>
    <path d="M245.063,166.065c1.754.983,2.755,2.259,3.056,4.375.274,1.931.342,8.198-.893,9.585-.505.567-5.574,2.508-6.481,2.634-4.071.563-10.149-2.083-10.781-6.544-.381-2.686-.368-7.747,1.386-9.912,3.071-3.792,9.979-2.23,13.713-.138Z" fill="#c6dbef"/>
    <path d="M240.332,433.837c.19.103,2.905,2.916,3.007,3.107,1.203,2.244,2.158,10.19-.316,11.64-2.365,1.386-13.459-.25-16.116-1.572-4.28-2.129-3.154-6.947-1.165-10.311,3.543-2.281,10.531-5.072,14.59-2.864Z" fill="#c6dbef"/>
    <path d="M486.901,212.692c.7.609,1.391.753,1.856,1.751,3.499,7.516-3.599,17.334-11.615,12.093-1.379-.902-4.385-4.236-4.713-5.847-1.22-5.996,1.335-10.749,7.81-10.73,2.767.008,4.697,1.023,6.662,2.733Z" fill="#c6dbef"/>
    <path d="M255.23,398.752c8.072-1.468,8.686,8.3,3.26,12.857-11.683,9.812-14.275-10.854-3.26-12.857Z" fill="#c6dbef"/>
    <path d="M361.326,376.677c1.887,2.068.28,10.494-3.438,10.434-2.74-.044-2.534-4.615-1.833-6.578.482-1.353,3.968-5.284,5.271-3.856Z" fill="#c6dbef"/>
    <path d="M356.482,402.123c3.257-.108,6.252,4.934,2.256,7.013-6.501,3.382-7.467-6.841-2.256-7.013Z" fill="#c7dbef"/>
    <path d="M227.379,395.383c8.016-1.844,4.956,8.096-1.923,6.036-2.713-.812-.685-5.436,1.923-6.036Z" fill="#c6dbef"/>
    <path d="M364.569,358.907c2.183.889,1.265,5.348-.952,4.687-1.309-.391-1.164-4.695.952-4.687Z" fill="#cadef0"/>
    <path d="M100.99,212.123c-.624.38.072,1.194-2.072.48-3.944-1.313-6.578-6.259-7.131-10.162-.701-4.949,5.976-4.515,7.989-2.219,1.85,2.11,3.857,8.281,2.887,10.922-.251.683-1.107.633-1.673.978Z" display="none" fill="#c6dbef"/>
    <path d="M173.23,174.653c1.256.759,3.74,3.873,4.691,4.921,3.712,4.086,6.977,7.737,6.01,13.837-.961,6.059-9.973,1.828-11.346-2.037-.466-1.312-.29-3.257-.904-4.396s-3.43-4.095-4.498-5.082c-.647-.598-1.6-.647-2.164-1.193-1.983-1.92-.884-5.103,1.227-6.418.239-.149,2.91-1.231,3.076-1.233.211-.002,3.603,1.416,3.909,1.601Z" fill="#c6dbef"/>
    <path d="M563.806,456.916c-3.336-3.3-8.043-7.943-8.438-12.921-.605-7.621,4.768-5.301,9.368-3.612,3.297,1.211,10.464,3.993,12.433,6.767,2.049,2.888,3.633,8.505.701,11.198-2.687,2.468-10.673,2.564-13.369.012-.417-.395-.415-1.168-.695-1.444ZM571.185,452.865c1.43-.999-1.334-4.668-3.334-2.149.373,1.119,2.194,2.945,3.334,2.149Z" display="none" fill="#c6dbef"/>
    <path d="M381.27,131.907c3.301-4.574,8.487,5.367,4.659,7.297-4.364,2.201-6.722-4.439-4.659-7.297Z" fill="#c6dbef"/>
    <path d="M558.125,58.925c3.587-.519,8.139,1.466,10.196,4.433,3.288,4.745-.497,10.934-5.732,12.027-12.581,2.627-16.07-14.78-4.464-16.46Z" display="none" fill="#c6dbef"/>
    <path d="M467.447,463.508c.866.55.655,3.189-1.812,2.555-3.454-.888-.256-3.868,1.812-2.555Z" display="none" fill="#c8ddf0"/>
    <path d="M286.56,494.639c-4.516,1.213-9.504-5.789-9.141-9.841.285-3.174,3.7-5.659,5.5-7.959,1.908-2.438,2.625-6.984,6.499-4.494,5.942,3.82,4.792,10.505,2.121,15.994-.713,1.464-3.525,5.91-4.979,6.301Z" fill="#deebf7"/>
    <path d="M305.76,413.519c-1.41,1.402-4.422.124-5.066-1.895-1.413-4.428,4.282-8.323,5.81-3.412.385,1.237.072,4.496-.744,5.307Z" fill="#dfebf7"/>
    <path d="M174.24,233.999c-1.504-.259-2.06-1.693-1.964-3.126.223-3.318,9.679-7.092,8.666-.505-.542,3.523-3.587,4.167-6.702,3.631Z" fill="#deebf7"/>
    <path d="M359.04,503.279c-.242-.115-2.36-2.906-2.588-3.41-1.41-3.127-.219-8.409,3.78-7.648,2.621.499,7.087,10.229,1.698,11.321-.397.08-2.672-.16-2.891-.264Z" fill="#deebf7"/>
    <path d="M500.16,412.079c-5.82.649,1.189-5.454,4.321-3.838.618,2.47-2.458,3.63-4.321,3.838Z" display="none" fill="#e0ecf7"/>
    <path d="M267.84,139.919c-.661-.247-1.507-2.528-1.357-3.476.69-4.349,5.204-1.438,5.577.489.507,2.617-2.056,3.796-4.22,2.987Z" fill="#dfecf7"/>
    <path d="M524.468,526.378c2.138-.346,5.753,4.668,6.208,6.626.575,2.473,1.283,9.435-2.072,10.041-5.977,1.079-8.664-15.933-4.136-16.666Z" display="none" fill="#9ecae1"/>
    <path d="M680.006,54.147c1.169,1.591.575,5.321-2.114,4.3-4.348-1.652-.788-8.249,2.114-4.3Z" display="none" fill="#a1cbe2"/>
    <path d="M375.176,243.422c-4.997,6.058-10.336,6.979-13.005,15.548-2.336,7.501-.488,15.524-3.374,23.506-1.15,3.179-3.022,6.436-6.718,6.749-7.828.662-13.215-7.418-18.793-11.472-2.854-2.075-8.289-4.462-10.584-6.936-2.428-2.617-4.36-5.607-7.328-8.273-1.958-1.759-10.657-8.937-12.5-9.582-3.457-1.21-10.377.39-11.064-4.781-1.065-8.024,7.852-6.02,12.625-6.625,5.41-.687,9.265-5.101,15.007-5.633,10.849-1.006,10.811,6.632,16.086,13.185,3.149,3.912,9.064,8.869,14.413,7.234,1.979-.605,5.222-3.875,5.489-5.953.145-1.123-.774-3.879-1.358-4.946-.927-1.695-7.411-7.519-9.122-8.389-3.776-1.921-7.254-1.132-10.392-5.217-1.345-1.751-3.428-7.063-4.488-9.432-3.026-6.766-5.457-12.981-9.441-19.359-1.634-2.616-2.94-3.072-4.816-4.781-2.972-2.706-.233-3.434,2.317-3.976,5.284-1.124,10.652-.83,14.958,2.529,2.354,1.835,6.977,8.008,9.426,8.364,2.911.423,6.983-1.723,7.778-4.651.952-3.508.424-7.38,2.403-11.035,1.993-3.68,5.964-2.555,8.526-.163,2.379,2.22,3.788,7.772,5.766,10.554,2.016,2.835,6.081,5.385,8.099,8.221,4.123,5.792,8.132,21.557,5.09,28.07-.71,1.52-3.84,5.832-5.004,7.243ZM369.4,206.852c-2.66-1.852-6.942-4.314-10.186-4.507-2.121-.126-12.446,5.21-14.891,6.617-6.011,3.461-8.557,5.551-7.337,13.25.775,4.888,3.234,8.599,6.778,11.463,2.796,2.26,6.479,4.21,9.33,6.272,6.38,4.617,7.99,10.05,16.66,4.526,13.6-8.665,11.903-29.086-.355-37.622ZM325.61,240.544c-.392-.266-.412-.926-1.307-1.319-5.173-2.272-11.474.845-15.38,4.2-.252.216-.918.117-1.083.301-2.14,2.383-1.896,4.997-.566,7.718,2.043,4.179,7.989,7.977,11.453,11.108,5.557,5.022,9.91,8.231,15.583,12.737,2.84,2.255,5.072,5.343,8.244,7.595,4.008,2.846,9.501,5.094,13.123.31,3.417-4.513,4.038-12.84.794-17.59-3-4.393-5.759-3.673-10.044-5.311-3.054-1.168-10.009-6.225-12.186-8.695-3.309-3.754-4.033-7.939-8.63-11.054Z" fill="#9ecae1"/>
    <path d="M356.322,330.317c-5.429-5.441,5.414-12.651,8.416-6.736,1.057,2.082.981,7.447-1.717,8.238-2.036.597-5.16.041-6.699-1.502Z" fill="#9ecae1"/>
    <path d="M299.794,313.97c-1.648,2.206-5.841,3.221-8.514,2.437-1.171-.343-9.815-3.738-10.26-4.149-1.039-.958-3.241-7.424-3.455-9.023-1.134-8.471,3.948-6.158,9.656-6.895,4.538-.586,7.723-2.602,12.275.322,6.022,3.868,3.847,12.557.298,17.308ZM291.646,302.442c-.557.482-1.397.716-1.644,1.485-.814,2.533,1.886,5.263,4.433,4.939,5.255-.668,2.577-11.063-2.789-6.424Z" fill="#9ecae1"/>
    <path d="M266.718,264.881c.572.569,1.444,2.168,1.578,2.983.335,2.028.28,8.875-.017,10.973-.682,4.825-4.772,5.858-8.145,2.468-.417-.419-4.442-6.101-4.56-6.479-.612-1.963.49-11.812,2.191-12.74,1.993-1.087,7.451,1.3,8.953,2.795Z" fill="#9ecae1"/>
    <path d="M279.206,315.751c3.889,4.27-1.526,11.744-5.115,14.499-13.754,10.561-17.89-7.307-6.102-13.302,2.394-1.217,9.291-3.311,11.216-1.198ZM272.498,327.46c.128-.119,1.835-2.784,1.862-2.957.825-5.328-5.184-5.842-8.165-1.671-3.555,4.974,3.184,7.543,6.303,4.628Z" fill="#9ecae1"/>
    <path d="M408.335,202.942c1.504,1.666,1.955,5.616,1.559,7.753-.639,3.452-6.703,5.62-9.793,5.038-2.828-.533-5.038-5.283-5.074-7.918-.091-6.696,9.238-9.38,13.308-4.872Z" fill="#9ecae1"/>
    <path d="M571.185,452.865c-1.139.796-2.961-1.03-3.334-2.149,1.999-2.519,4.764,1.15,3.334,2.149Z" display="none" fill="#a2cce2"/>
    <path d="M325.61,240.544c4.597,3.115,5.321,7.3,8.63,11.054,2.178,2.47,9.132,7.527,12.186,8.695,4.284,1.638,7.044.918,10.044,5.311,3.244,4.75,2.623,13.078-.794,17.59-3.622,4.784-9.114,2.536-13.123-.31-3.172-2.252-5.404-5.34-8.244-7.595-5.673-4.506-10.026-7.715-15.583-12.737-3.464-3.131-9.41-6.929-11.453-11.108-1.33-2.721-1.575-5.335.566-7.718.166-.184.831-.085,1.083-.301,3.906-3.355,10.207-6.472,15.38-4.2.895.393.914,1.053,1.307,1.319ZM325.646,243.398c-.442-.367-.601-.927-1.283-1.349-5.391-3.335-15.882.829-14.65,7.438,1.128,6.049,11.98,12.792,16.632,16.506,1.185.946,2.416,2.889,3.615,3.829,1.659,1.3,4.029,1.921,5.676,3.055,1.688,1.162,2.859,3.743,3.921,4.835.995,1.023,6.614,4.87,7.822,5.147,7.865,1.8,10.721-8.812,7.762-14.48-2.166-4.148-7.2-4-10.661-5.659-8.861-4.246-12.498-14.059-18.834-19.322Z" fill="#6baed6"/>
    <path d="M369.4,206.852c12.258,8.536,13.955,28.957.355,37.622-8.67,5.524-10.28.091-16.66-4.526-2.851-2.063-6.534-4.013-9.33-6.272-3.544-2.864-6.003-6.575-6.778-11.463-1.22-7.699,1.325-9.789,7.337-13.25,2.445-1.408,12.77-6.743,14.891-6.617,3.243.193,7.526,2.654,10.186,4.507ZM369.449,209.197c-2.915-1.838-11.408-3.199-14.832-2.418-12.042,2.75-20.355,13.132-11.106,24.286,1.784,2.151,10.55,8.288,13.034,9.632,1.649.893,7.264,3.117,8.837,2.774,15.927-3.478,15.682-26.949,4.067-34.275Z" fill="#6baed6"/>
    <path d="M291.646,302.442c5.366-4.639,8.045,5.756,2.789,6.424-2.548.324-5.247-2.405-4.433-4.939.247-.77,1.086-1.003,1.644-1.485Z" fill="#6dafd6"/>
    <path d="M272.498,327.46c-3.119,2.915-9.858.346-6.303-4.628,2.981-4.171,8.991-3.657,8.165,1.671-.027.173-1.734,2.837-1.862,2.957Z" fill="#6caed6"/>
    <path d="M325.646,243.398c6.335,5.262,9.972,15.076,18.834,19.322,3.461,1.658,8.495,1.511,10.661,5.659,2.959,5.668.104,16.28-7.762,14.48-1.208-.276-6.828-4.124-7.822-5.147-1.062-1.092-2.233-3.673-3.921-4.835-1.647-1.134-4.017-1.754-5.676-3.055-1.199-.94-2.43-2.883-3.615-3.829-4.651-3.714-15.503-10.457-16.632-16.506-1.232-6.609,9.259-10.773,14.65-7.438.682.422.842.982,1.283,1.349ZM323.839,244.263c-3.023-2.029-6.272-1.945-9.211.284-2.184,1.657-2.259,6.029-.927,8.15,2.659,4.233,7.849,6.47,11.482,9.158,2.536,1.878,4.727,4.467,7.387,6.053,1.556.928,3.54,1.25,4.893,2.307,1.572,1.227,3.051,5.094,5.09,6.91.546.486,4.249,2.734,4.833,2.863,2.449.54,5.489-1.681,5.864-4.018.531-3.311-.008-7.042-3.201-8.741-2.014-1.072-4.614-1.044-6.48-1.68-2.117-.72-5.471-3.95-7.26-5.677-4.516-4.36-8.314-12.821-12.47-15.61Z" fill="#4292c6"/>
    <path d="M369.449,209.197c11.615,7.326,11.861,30.797-4.067,34.275-1.572.343-7.187-1.881-8.837-2.774-2.484-1.345-11.25-7.481-13.034-9.632-9.249-11.153-.936-21.536,11.106-24.286,3.424-.782,11.917.579,14.832,2.418ZM374.135,216.991c-8.395-14.876-37.385-8.622-31.871,9.064,1.692,5.427,13.376,12.839,18.6,14.52,6.021,1.938,12.783-2.152,14.851-7.901,1.795-4.989.864-11.352-1.58-15.683Z" fill="#4292c6"/>
    <path d="M323.839,244.263c4.156,2.789,7.954,11.25,12.47,15.61,1.789,1.727,5.142,4.957,7.26,5.677,1.867.635,4.466.608,6.48,1.68,3.193,1.699,3.732,5.429,3.201,8.741-.374,2.337-3.414,4.558-5.864,4.018-.584-.129-4.287-2.377-4.833-2.863-2.039-1.815-3.519-5.682-5.09-6.91-1.353-1.057-3.338-1.379-4.893-2.307-2.66-1.586-4.85-4.176-7.387-6.053-3.632-2.688-8.822-4.925-11.482-9.158-1.332-2.12-1.257-6.493.927-8.15,2.939-2.23,6.187-2.313,9.211-.284ZM324.795,248.085c-4.072-4.644-12.781-1.831-7.512,5.351,2.99,4.076,14.505,10.003,10.913.127-.216-.595-2.996-5.017-3.401-5.479ZM344.948,270.069c-2.496.836.666,5.966,3.036,4.993,3.049-1.253,1.132-6.389-3.036-4.993Z" fill="#2171b5"/>
    <path d="M374.135,216.991c2.444,4.331,3.375,10.694,1.58,15.683-2.068,5.749-8.83,9.839-14.851,7.901-5.224-1.681-16.908-9.093-18.6-14.52-5.515-17.686,23.475-23.939,31.871-9.064ZM354.614,210.613c-3.885.45-8.228,2.75-10.061,6.259-.408.781-1.81,4.291-1.843,4.932-.016.304,1.567,5.287,1.834,5.812,2.433,4.773,14.209,11.626,19.528,11.697,9.822.131,13.859-11.574,10.419-19.564-3.378-7.844-11.982-10.049-19.877-9.135Z" fill="#2171b5"/>
    <path d="M324.795,248.085c.405.462,3.184,4.884,3.401,5.479,3.592,9.875-7.923,3.948-10.913-.127-5.269-7.182,3.44-9.996,7.512-5.351Z" fill="#08519c"/>
    <path d="M344.948,270.069c4.168-1.396,6.085,3.74,3.036,4.993-2.37.974-5.532-4.156-3.036-4.993Z" fill="#09529d"/>
    <path d="M354.614,210.613c7.895-.914,16.499,1.291,19.877,9.135,3.441,7.99-.597,19.696-10.419,19.564-5.319-.071-17.096-6.924-19.528-11.697-.267-.525-1.85-5.507-1.834-5.812.033-.64,1.435-4.151,1.843-4.932,1.833-3.509,6.176-5.809,10.061-6.259ZM353.174,212.053c-6.748,1.355-11.047,8.64-7.496,14.909,2.483,4.383,11.529,9.983,16.51,10.849,4.029.701,9.23-1.501,10.962-5.302.259-.568,1.784-5.639,1.784-5.95-.001-.96-.783-1.554-.98-2.435-1.326-5.947-3.258-10.106-9.797-11.802-2.33-.604-8.627-.743-10.983-.27Z" fill="#0a529b"/>
    <path d="M353.174,212.053c2.356-.473,8.653-.334,10.983.27,6.539,1.696,8.471,5.855,9.797,11.802.196.881.979,1.474.98,2.435,0,.311-1.525,5.382-1.784,5.95-1.732,3.801-6.933,6.003-10.962,5.302-4.981-.867-14.027-6.467-16.51-10.849-3.551-6.269.748-13.554,7.496-14.909Z" fill="#08306b"/>
  </g>
  <path d="M674.512,197.92c-4.857-.301-8.741,3.618-13.458,3.519-3.113-.376-5.848-2.982-9.095-4.532-3.037-1.486-6.323-2.277-9.728-2.128-3.347-.133-7.28,1.822-10.266.104-3.759-3.559-5.656-10.34-8.513-14.257-2.69-5.733-19.167,3.994-24.981,1.745-5.587-1.459-11.73-5.054-17.421-2.777-2.341.867-4.71,2.638-7.228,2.486-3.365-.232-6.469-2.837-10.002-2.635-10.435-.443-18.091,7.763-27.32,11.517-22.234,9.044-13.549,9.283-35.32-.804-13.147-4.749-12.439,5.173-20.174,2.702-2.508-1.242-5.42-2.561-8.267-1.705-7.402,1.721-9.64,13.994-18.479,8.91-7.485-3.576-15.488-.536-20.975,5.643-1.51,1.553-3.062,3.556-5.056,4.228-7.852,1.293-11.911-7.692-20.668.704-1.781,1.527-2.938,4.155-4.862,5.334-3.57.555-6.42-4.449-10.323-3.738-2.615.118-5.294,2.081-7.396.106-3.555-3.376-.221-8.439,2.075-11.591,2.541-3.685,5.369-7.772,7.612-11.829,2.462-3.875-.422-8.275.796-12.262.921-2.57,4.229-4.567,5.284-7.355,1.503-3.806-.407-7.954-.865-11.807-.655-4.036.856-7.7,1.069-11.918-.381-6.037-.293-10.462,5.185-14.206,7.593-8.003,7.541-8.198,18.248-12.625,10.124-4.69,11.058-19.954,6.092-28.532-3.344-8.75-16.138-7.17-23.458-3.056-3.755,1.777-6.752,4.931-10.222,7.034-6.949,2.561-11.596,2.565-15.139,10.14-2.046,3.489-2.223,7.744-4.486,11.098-2.079,3.023-5.861,5.19-8.313,8.526-3.515,4.796-8.051,11.086-4.679,17.062,2.77,4.135,2.22,8.677,2.054,13.501,0,2.763.527,5.679-.602,8.285-1.744,3.604-5.824,5.482-8.177,8.673-2.35,3.623-3.529,7.368-5.494,11.283-1.571,2.845-2.192,6.224-3.229,9.224-2.429,6.845-6.278-4.141-13.652-5.796-17.648-5.077-12.221-7.919-25.117-14.413-10.224-4.651-23.544,3.861-26.072,14.092.008,7.407,7.408,12.616,13.374,16.035,3.87,1.835,7.005,2.523,11.428,3.953,2.809.908,36.934,26.01,36.684,34.204-.062,2.036,8.391,14.78,5.183,14.949-3.731.197-18.884-12.505-21.732-13.917-2.627-2.586-13.677-7.944-21.779-15.504s-15.79-12.463-19.849-11.852c-3.182.172-6.408,3.159-9.52,1.894-2.519-1.202-4.568-6.408-8.059-8.124-7.557-4.768-18.714-2.109-24.85,3.918-5.373,6.769-2.455,26.713,6.412,30.247,2.068,1.794,16.735,2.838,15.862,4.614,4.034,8.902,14.984,7.918,22.957,9.911,0,10,12,9,19,10,.711,2.487,1.932,4.334,3.473,5.783,1.496.848,3.065,2.225,7.065,4.015,1.082.484,2.337.998,3.823,1.54,2.569,1.494,3.003,4.573,4.847,6.758,2.684,3.188,6.807,5.183,8.488,9.159,1.91,3.645,1.911,8.719,3.483,12.542.394,1.165,1.306,2.612,1.315,3.729-.064.269-.188.467-.356.616,2.953,2.984,5.862,6.92,5.862,10.859-1,4-6,6-6,10-1,4,3,6,3,10,.812,4.06-1.672,7.46-2.1,11.272.035.579.012,1.188-.033,1.769-.036.467-.08.913-.106,1.302-.354,3.35-.149,6.619-.65,9.824-1.434,8.08-.883,16.121-2.054,24.34-.501,5.455-2.846,11.556-2.219,17.275.32,3.452,2.039,6.63,1.644,10.136-4.511,14.52.046,33.207,18.744,30.268,7.576-.274,12.066-5.44,15.157-12.201,2.136-3.923,2.754-8.432,1.312-12.622-3.068-6.307-2.83-10.196-.708-16.51.78-3.728-.119-7.273.51-10.639,1.959-6.149,3.548-12.219,4.443-18.624.56-2.922.138-6.009.661-8.927.739-3.935,2.68-7.367,2.177-11.396.15-4.572-5.109-9.726-3.038-14.037.076-.094.187-.156.288-.228,1.115-.794,3.661-.32,6.324.669,4.509.819,6.359-1.258,11.164-1.944,8-1,11.03-5.734,11.03-11.734-.728-4.367,5.576-9.72,4.171-13.316-.487-.693-1.028-1.569-1.647-2.657-.205-.359-.415-.733-.637-1.14-2.733-4.516-7.483-7.704-12.732-6.726-2.938.338-6.317,1.8-9.054.426-6.703-5.304-9.429-14.183-12.282-21.958-2.309-5.656-3.356-11.729-1.155-17.681,4.287-11.253,4.668-14.816,17.336-17.684,3.678-1.124,6.134-4.387,9.836-5.26,4.372-.357,9.391.599,13.924.207,4.833.433,10.092,1.658,14.375-1.511,6.315-3.199,4.436-11.669,8.257-14.637,3.204-.511,6.405,2.342,9.664,2.721,4.575,1.027,9.539,1.188,13.472-.758,2.165-1.069,4.399-2.473,6.848-1.91,3.134.69,6.393,3.117,9.889,3.649,6.963,1.876,8.159-10.773,15.059-7.825,6.129,3.699,10.433,2.759,15.572-2.651,4.442-3.778,7.796-8.681,11.437-13.088,1.824-1.603,3.861-1.599,6.34-1.021,5.268,1.316,10.742,2.42,16.16,3.231,4.745,1.001,9.08-1.31,13.67-1.878,3.114-.331,6.393.332,9.535.2,3.679-.077,6.895-1.633,9.983-2.216,4.6-1.008,9.433.953,13.969-.694,3.457-.99,5.54-3.726,8.641-3.686,2.056.247,4.003,2.263,5.766,3.582,5.525,4.297,12.694,5.376,19.635,5.713,9.936,2.238,4.624,14.523,24.803,17.454,1.654.213,3.344.263,4.988-.027,3.8-.703,6.11-3.455,9.557-2.379,6.508,3.487,10.106,1.017,16.779-.999,4.417-1.485,10.745-2.887,11.912-5.536,5.142-9.189-6.704-21.218-16.107-21.215Z" fill="none" stroke="#09306b" stroke-miterlimit="10" stroke-opacity=".5"/>
  <path id="good" d="M249,436.199c-2-13-14-17-25-13l-.868.868c-2.379,3.127-5.032,6.398-9.448,5.177-14.708-2.055-12.113-11.666-22.515-17.542-3.738-2.143-8.103-3.347-11.624-5.861-3.386-2.348-6.54-6.007-10.768-6.678-8.968-.914-19.448,2.76-25.094,9.842-1.512,2.17-2.157,4.882-3.473,6.753-8.304,8.812-17.194,1.726-21.416,18.719-.922,3.474-4.051,4.178-7.05,5.328-6.893,3.407-11.518,12.068-12.564,19.566l-.009.164c-.148,5.499,5.799,10.536,9.658,13.88,6.954,4.38,17.502,1.196,23.183-4.233,4.108-3.72,3.436-9.966,6.082-14.314,1.248-1.567,3.126-1.9,5.083-2.336,13.672-2.858,4.866-16.022,20.968-16.82,6.042-2.034,8.576,5.641,14.251,5.768,5.224.56,10.269-3.367,15.333-2.715,3.831.79,6.2,4.539,9.308,7.303,2.439,2.19,5.202,3.641,8.158,5.011,6.682,2.984,13.52,10.766,21.046,10.686.306-.019.607-.069.909-.114,8.754-4.385,18.723-14.916,15.85-25.452Z" fill="none" stroke="#09306b" stroke-miterlimit="10" stroke-opacity=".5"/>
  <g>
    <path d="M402.523,326.039c-14.607,6.773-37.157,11.037-51.978,10.691-27.962-.652-44.883-7.529-53.168-13.021" fill="none" stroke="#484943" stroke-linecap="round" stroke-linejoin="round"/>
    <polygon points="299.99 323.316 297.649 323.837 298.172 326.178 296.957 325.406 296.435 323.066 298.775 322.544 299.99 323.316" fill="#484943"/>
  </g>
  <rect x="404.42" y="307.829" width="372.811" height="81.747" fill="#fff" fill-opacity=".24"/>
<style>
#g-map-Artboard_1-layer6-img rect, #g-map-Artboard_1-layer6-img circle, #g-map-Artboard_1-layer6-img path, #g-map-Artboard_1-layer6-img line, #g-map-Artboard_1-layer6-img polyline, #g-map-Artboard_1-layer6-img polygon { vector-effect: non-scaling-stroke; }
</style>
</svg>
