<?xml version="1.0" encoding="UTF-8"?>
<svg id="g-map-Artboard_1-layer2-img" xmlns="http://www.w3.org/2000/svg" baseProfile="tiny" version="1.2" viewBox="0 0 841.68 595.199">
  <!-- Generator: Adobe Illustrator 29.0.1, SVG Export Plug-In . SVG Version: 2.1.0 Build 192)  -->
  <rect id="_x32_" x="444.264" y="253.396" width="368.45" height="68.344" fill="#fff" fill-opacity=".24"/>
  <path style="opacity:0.65;" d="M674.512,197.92c-4.857-.301-8.741,3.618-13.458,3.519-3.113-.376-5.848-2.982-9.095-4.532-3.037-1.486-6.323-2.277-9.728-2.128-3.347-.133-7.28,1.822-10.266.104-3.759-3.559-5.656-10.34-8.513-14.257-2.69-5.733-19.167,3.994-24.981,1.745-5.587-1.459-11.73-5.054-17.421-2.777-2.341.867-4.71,2.638-7.228,2.486-3.365-.232-6.469-2.837-10.002-2.635-10.435-.443-18.091,7.763-27.32,11.517-22.234,9.044-13.549,9.283-35.32-.804-13.147-4.749-12.439,5.173-20.174,2.702-2.508-1.242-5.42-2.561-8.267-1.705-7.402,1.721-9.64,13.994-18.479,8.91-7.485-3.576-15.488-.536-20.975,5.643-1.51,1.553-3.062,3.556-5.056,4.228-7.852,1.293-11.911-7.692-20.668.704-1.781,1.527-2.938,4.155-4.862,5.334-3.57.555-6.42-4.449-10.323-3.738-2.615.118-5.294,2.081-7.396.106-3.555-3.376-.221-8.439,2.075-11.591,2.541-3.685,5.369-7.772,7.612-11.829,2.462-3.875-.422-8.275.796-12.262.921-2.57,4.229-4.567,5.284-7.355,1.503-3.806-.407-7.954-.865-11.807-.655-4.036.856-7.7,1.069-11.918-.381-6.037-.293-10.462,5.185-14.206,7.593-8.003,7.541-8.198,18.248-12.625,10.124-4.69,11.058-19.954,6.092-28.532-3.344-8.75-16.138-7.17-23.458-3.056-3.755,1.777-6.752,4.931-10.222,7.034-6.949,2.561-11.596,2.565-15.139,10.14-2.046,3.489-2.223,7.744-4.486,11.098-2.079,3.023-5.861,5.19-8.313,8.526-3.515,4.796-8.051,11.086-4.679,17.062,2.77,4.135,2.22,8.677,2.054,13.501,0,2.763.527,5.679-.602,8.285-1.744,3.604-5.824,5.482-8.177,8.673-2.35,3.623-3.529,7.368-5.494,11.283-1.571,2.845-2.192,6.224-3.229,9.224-2.429,6.845-6.278-4.141-13.652-5.796-17.648-5.077-12.221-7.919-25.117-14.413-10.224-4.651-23.544,3.861-26.072,14.092.008,7.407,7.408,12.616,13.374,16.035,3.87,1.835,7.005,2.523,11.428,3.953,2.809.908,36.934,26.01,36.684,34.204-.062,2.036,8.391,14.78,5.183,14.949-3.731.197-18.884-12.505-21.732-13.917-2.627-2.586-13.677-7.944-21.779-15.504s-15.79-12.463-19.849-11.852c-3.182.172-6.408,3.159-9.52,1.894-2.519-1.202-4.568-6.408-8.059-8.124-7.557-4.768-18.714-2.109-24.85,3.918-5.373,6.769-2.455,26.713,6.412,30.247,2.068,1.794,16.735,2.838,15.862,4.614,4.034,8.902,14.984,7.918,22.957,9.911,0,10,12,9,19,10,.711,2.487,1.932,4.334,3.473,5.783,1.496.848,3.065,2.225,7.065,4.015,1.082.484,2.337.998,3.823,1.54,2.569,1.494,3.003,4.573,4.847,6.758,2.684,3.188,6.807,5.183,8.488,9.159,1.91,3.645,1.911,8.719,3.483,12.542.394,1.165,1.306,2.612,1.315,3.729-.064.269-.188.467-.356.616,2.953,2.984,5.862,6.92,5.862,10.859-1,4-6,6-6,10-1,4,3,6,3,10,.812,4.06-1.672,7.46-2.1,11.272.035.579.012,1.188-.033,1.769-.036.467-.08.913-.106,1.302-.354,3.35-.149,6.619-.65,9.824-1.434,8.08-.883,16.121-2.054,24.34-.501,5.455-2.846,11.556-2.219,17.275.32,3.452,2.039,6.63,1.644,10.136-4.511,14.52.046,33.207,18.744,30.268,7.576-.274,12.066-5.44,15.157-12.201,2.136-3.923,2.754-8.432,1.312-12.622-3.068-6.307-2.83-10.196-.708-16.51.78-3.728-.119-7.273.51-10.639,1.959-6.149,3.548-12.219,4.443-18.624.56-2.922.138-6.009.661-8.927.739-3.935,2.68-7.367,2.177-11.396.15-4.572-5.109-9.726-3.038-14.037.076-.094.187-.156.288-.228,1.115-.794,3.661-.32,6.324.669,4.509.819,6.359-1.258,11.164-1.944,8-1,11.03-5.734,11.03-11.734-.728-4.367,5.576-9.72,4.171-13.316-.487-.693-1.028-1.569-1.647-2.657-.205-.359-.415-.733-.637-1.14-2.733-4.516-7.483-7.704-12.732-6.726-2.938.338-6.317,1.8-9.054.426-6.703-5.304-9.429-14.183-12.282-21.958-2.309-5.656-3.356-11.729-1.155-17.681,4.287-11.253,4.668-14.816,17.336-17.684,3.678-1.124,6.134-4.387,9.836-5.26,4.372-.357,9.391.599,13.924.207,4.833.433,10.092,1.658,14.375-1.511,6.315-3.199,4.436-11.669,8.257-14.637,3.204-.511,6.405,2.342,9.664,2.721,4.575,1.027,9.539,1.188,13.472-.758,2.165-1.069,4.399-2.473,6.848-1.91,3.134.69,6.393,3.117,9.889,3.649,6.963,1.876,8.159-10.773,15.059-7.825,6.129,3.699,10.433,2.759,15.572-2.651,4.442-3.778,7.796-8.681,11.437-13.088,1.824-1.603,3.861-1.599,6.34-1.021,5.268,1.316,10.742,2.42,16.16,3.231,4.745,1.001,9.08-1.31,13.67-1.878,3.114-.331,6.393.332,9.535.2,3.679-.077,6.895-1.633,9.983-2.216,4.6-1.008,9.433.953,13.969-.694,3.457-.99,5.54-3.726,8.641-3.686,2.056.247,4.003,2.263,5.766,3.582,5.525,4.297,12.694,5.376,19.635,5.713,9.936,2.238,4.624,14.523,24.803,17.454,1.654.213,3.344.263,4.988-.027,3.8-.703,6.11-3.455,9.557-2.379,6.508,3.487,10.106,1.017,16.779-.999,4.417-1.485,10.745-2.887,11.912-5.536,5.142-9.189-6.704-21.218-16.107-21.215Z" fill="#09306b"/>
  <path id="good" style="opacity:0.65;" d="M249,436.199c-2-13-14-17-25-13l-.868.868c-2.379,3.127-5.032,6.398-9.448,5.177-14.708-2.055-12.113-11.666-22.515-17.542-3.738-2.143-8.103-3.347-11.624-5.861-3.386-2.348-6.54-6.007-10.768-6.678-8.968-.914-19.448,2.76-25.094,9.842-1.512,2.17-2.157,4.882-3.473,6.753-8.304,8.812-17.194,1.726-21.416,18.719-.922,3.474-4.051,4.178-7.05,5.328-6.893,3.407-11.518,12.068-12.564,19.566l-.009.164c-.148,5.499,5.799,10.536,9.658,13.88,6.954,4.38,17.502,1.196,23.183-4.233,4.108-3.72,3.436-9.966,6.082-14.314,1.248-1.567,3.126-1.9,5.083-2.336,13.672-2.858,4.866-16.022,20.968-16.82,6.042-2.034,8.576,5.641,14.251,5.768,5.224.56,10.269-3.367,15.333-2.715,3.831.79,6.2,4.539,9.308,7.303,2.439,2.19,5.202,3.641,8.158,5.011,6.682,2.984,13.52,10.766,21.046,10.686.306-.019.607-.069.909-.114,8.754-4.385,18.723-14.916,15.85-25.452Z" fill="#09306b"/>
  <path d="M328.382,199.609c0,1.565-1.269,2.834-2.834,2.834s-2.836-1.269-2.836-2.834,1.269-2.834,2.836-2.834,2.834,1.269,2.834,2.834" vector-effect="non-scaling-stroke" fill="#fff" fill-rule="evenodd" stroke="#232323" stroke-linecap="square" stroke-linejoin="bevel" stroke-width=".24"/>
  <path d="M307.047,184.543c0,1.565-1.269,2.834-2.834,2.834s-2.834-1.269-2.834-2.834,1.267-2.834,2.834-2.834,2.834,1.269,2.834,2.834" vector-effect="non-scaling-stroke" fill="#fff" fill-rule="evenodd" stroke="#232323" stroke-linecap="square" stroke-linejoin="bevel" stroke-width=".24"/>
  <path d="M263.743,226.401c0,1.565-1.267,2.834-2.834,2.834s-2.834-1.269-2.834-2.834,1.269-2.834,2.834-2.834,2.834,1.269,2.834,2.834" vector-effect="non-scaling-stroke" fill="#fff" fill-rule="evenodd" stroke="#232323" stroke-linecap="square" stroke-linejoin="bevel" stroke-width=".24"/>
  <path d="M288.682,235.464c0,1.565-1.269,2.834-2.834,2.834s-2.834-1.269-2.834-2.834,1.269-2.834,2.834-2.834,2.834,1.269,2.834,2.834" vector-effect="non-scaling-stroke" fill="#fff" fill-rule="evenodd" stroke="#232323" stroke-linecap="square" stroke-linejoin="bevel" stroke-width=".24"/>
  <path d="M301.389,241.576c0,1.564-1.269,2.834-2.834,2.834s-2.834-1.269-2.834-2.834,1.269-2.835,2.834-2.835,2.834,1.268,2.834,2.835" vector-effect="non-scaling-stroke" fill="#fff" fill-rule="evenodd" stroke="#232323" stroke-linecap="square" stroke-linejoin="bevel" stroke-width=".24"/>
  <path d="M319.305,247.671c0,1.567-1.269,2.834-2.834,2.834s-2.836-1.267-2.836-2.834,1.269-2.834,2.836-2.834,2.834,1.269,2.834,2.834" vector-effect="non-scaling-stroke" fill="#fff" fill-rule="evenodd" stroke="#232323" stroke-linecap="square" stroke-linejoin="bevel" stroke-width=".24"/>
  <path d="M419.087,224.787c0,1.565-1.267,2.834-2.834,2.834s-2.834-1.269-2.834-2.834,1.269-2.834,2.834-2.834,2.834,1.269,2.834,2.834" vector-effect="non-scaling-stroke" fill="#fff" fill-rule="evenodd" stroke="#232323" stroke-linecap="square" stroke-linejoin="bevel" stroke-width=".24"/>
  <path d="M403.517,227.81c0,1.565-1.269,2.834-2.836,2.834s-2.834-1.269-2.834-2.834,1.269-2.834,2.834-2.834,2.836,1.269,2.836,2.834" vector-effect="non-scaling-stroke" fill="#fff" fill-rule="evenodd" stroke="#232323" stroke-linecap="square" stroke-linejoin="bevel" stroke-width=".24"/>
  <path d="M384.912,231.724c0,1.565-1.269,2.834-2.834,2.834s-2.834-1.269-2.834-2.834,1.269-2.834,2.834-2.834,2.834,1.269,2.834,2.834" vector-effect="non-scaling-stroke" fill="#fff" fill-rule="evenodd" stroke="#232323" stroke-linecap="square" stroke-linejoin="bevel" stroke-width=".24"/>
  <path d="M371.468,234.316c0,1.565-1.267,2.834-2.834,2.834s-2.834-1.269-2.834-2.834,1.269-2.834,2.834-2.834,2.834,1.269,2.834,2.834" vector-effect="non-scaling-stroke" fill="#fff" fill-rule="evenodd" stroke="#232323" stroke-linecap="square" stroke-linejoin="bevel" stroke-width=".24"/>
  <path d="M360.678,228.424c0,1.565-1.269,2.834-2.834,2.834s-2.834-1.269-2.834-2.834,1.267-2.834,2.834-2.834,2.834,1.269,2.834,2.834" vector-effect="non-scaling-stroke" fill="#fff" fill-rule="evenodd" stroke="#232323" stroke-linecap="square" stroke-linejoin="bevel" stroke-width=".24"/>
  <path d="M341.85,211.832c0,1.565-1.267,2.834-2.834,2.834s-2.834-1.269-2.834-2.834,1.269-2.834,2.834-2.834,2.834,1.269,2.834,2.834" vector-effect="non-scaling-stroke" fill="#fff" fill-rule="evenodd" stroke="#232323" stroke-linecap="square" stroke-linejoin="bevel" stroke-width=".24"/>
  <path d="M332.077,259.526c0,1.564-1.269,2.834-2.834,2.834s-2.836-1.269-2.836-2.834,1.269-2.836,2.836-2.836,2.834,1.269,2.834,2.836" vector-effect="non-scaling-stroke" fill="#fff" fill-rule="evenodd" stroke="#232323" stroke-linecap="square" stroke-linejoin="bevel" stroke-width=".24"/>
  <path d="M345.375,270.938c0,1.567-1.269,2.836-2.834,2.836s-2.834-1.269-2.834-2.836,1.269-2.834,2.834-2.834,2.834,1.269,2.834,2.834" vector-effect="non-scaling-stroke" fill="#fff" fill-rule="evenodd" stroke="#232323" stroke-linecap="square" stroke-linejoin="bevel" stroke-width=".24"/>
  <path d="M357.276,284.734c0,1.564-1.269,2.834-2.834,2.834s-2.834-1.269-2.834-2.834,1.269-2.834,2.834-2.834,2.834,1.269,2.834,2.834" vector-effect="non-scaling-stroke" fill="#fff" fill-rule="evenodd" stroke="#232323" stroke-linecap="square" stroke-linejoin="bevel" stroke-width=".24"/>
  <path d="M377.961,182.823c0,1.565-1.269,2.834-2.836,2.834s-2.834-1.269-2.834-2.834,1.269-2.834,2.834-2.834,2.836,1.269,2.836,2.834" vector-effect="non-scaling-stroke" fill="#fff" fill-rule="evenodd" stroke="#232323" stroke-linecap="square" stroke-linejoin="bevel" stroke-width=".24"/>
  <path d="M372.798,193.315c0,1.565-1.269,2.834-2.834,2.834s-2.834-1.269-2.834-2.834,1.269-2.834,2.834-2.834,2.834,1.269,2.834,2.834" vector-effect="non-scaling-stroke" fill="#fff" fill-rule="evenodd" stroke="#232323" stroke-linecap="square" stroke-linejoin="bevel" stroke-width=".24"/>
  <path d="M371.557,234.475c0,1.565-1.269,2.834-2.834,2.834s-2.834-1.269-2.834-2.834,1.269-2.834,2.834-2.834,2.834,1.269,2.834,2.834" vector-effect="non-scaling-stroke" fill="#fff" fill-rule="evenodd" stroke="#232323" stroke-linecap="square" stroke-linejoin="bevel" stroke-width=".24"/>
  <path d="M366.718,242.572c0,1.564-1.269,2.834-2.834,2.834s-2.836-1.269-2.836-2.834,1.269-2.834,2.836-2.834,2.834,1.27,2.834,2.834" vector-effect="non-scaling-stroke" fill="#fff" fill-rule="evenodd" stroke="#232323" stroke-linecap="square" stroke-linejoin="bevel" stroke-width=".24"/>
  <path d="M361.352,256.659c0,1.567-1.269,2.834-2.834,2.834s-2.834-1.267-2.834-2.834,1.269-2.834,2.834-2.834,2.834,1.269,2.834,2.834" vector-effect="non-scaling-stroke" fill="#fff" fill-rule="evenodd" stroke="#232323" stroke-linecap="square" stroke-linejoin="bevel" stroke-width=".24"/>
  <path d="M359.203,270.851c0,1.564-1.269,2.834-2.834,2.834s-2.834-1.269-2.834-2.834,1.269-2.836,2.834-2.836,2.834,1.269,2.834,2.836" vector-effect="non-scaling-stroke" fill="#fff" fill-rule="evenodd" stroke="#232323" stroke-linecap="square" stroke-linejoin="bevel" stroke-width=".24"/>
  <path d="M368.599,204.481c0,1.565-1.269,2.834-2.834,2.834s-2.834-1.269-2.834-2.834,1.267-2.834,2.834-2.834,2.834,1.269,2.834,2.834" vector-effect="non-scaling-stroke" fill="#fff" fill-rule="evenodd" stroke="#232323" stroke-linecap="square" stroke-linejoin="bevel" stroke-width=".24"/>
  <path d="M352.883,221.706c0,1.565-1.269,2.834-2.836,2.834s-2.834-1.269-2.834-2.834,1.269-2.834,2.834-2.834,2.836,1.269,2.836,2.834" vector-effect="non-scaling-stroke" fill="#fff" fill-rule="evenodd" stroke="#232323" stroke-linecap="square" stroke-linejoin="bevel" stroke-width=".24"/>
  <path d="M425.769,90.216c0,1.565-1.267,2.834-2.834,2.834s-2.834-1.269-2.834-2.834,1.269-2.834,2.834-2.834,2.834,1.269,2.834,2.834" vector-effect="non-scaling-stroke" fill="#fff" fill-rule="evenodd" stroke="#232323" stroke-linecap="square" stroke-linejoin="bevel" stroke-width=".24"/>
  <path d="M415.353,104.596c0,1.565-1.269,2.834-2.836,2.834s-2.834-1.269-2.834-2.834,1.269-2.834,2.834-2.834,2.836,1.269,2.836,2.834" vector-effect="non-scaling-stroke" fill="#fff" fill-rule="evenodd" stroke="#232323" stroke-linecap="square" stroke-linejoin="bevel" stroke-width=".24"/>
  <path d="M400.014,115.658c0,1.565-1.269,2.834-2.834,2.834s-2.834-1.269-2.834-2.834,1.267-2.834,2.834-2.834,2.834,1.269,2.834,2.834" vector-effect="non-scaling-stroke" fill="#fff" fill-rule="evenodd" stroke="#232323" stroke-linecap="square" stroke-linejoin="bevel" stroke-width=".24"/>
  <path d="M385.951,136.351c0,1.565-1.269,2.834-2.834,2.834s-2.834-1.269-2.834-2.834,1.269-2.834,2.834-2.834,2.834,1.269,2.834,2.834" vector-effect="non-scaling-stroke" fill="#fff" fill-rule="evenodd" stroke="#232323" stroke-linecap="square" stroke-linejoin="bevel" stroke-width=".24"/>
  <path d="M385.752,149.919c0,1.565-1.269,2.834-2.834,2.834s-2.834-1.269-2.834-2.834,1.267-2.834,2.834-2.834,2.834,1.269,2.834,2.834" vector-effect="non-scaling-stroke" fill="#fff" fill-rule="evenodd" stroke="#232323" stroke-linecap="square" stroke-linejoin="bevel" stroke-width=".24"/>
  <path d="M385.538,163.788c0,1.565-1.269,2.834-2.834,2.834s-2.834-1.269-2.834-2.834,1.267-2.834,2.834-2.834,2.834,1.269,2.834,2.834" vector-effect="non-scaling-stroke" fill="#fff" fill-rule="evenodd" stroke="#232323" stroke-linecap="square" stroke-linejoin="bevel" stroke-width=".24"/>
  <path d="M499.788,206.449c0,1.565-1.269,2.834-2.834,2.834s-2.836-1.269-2.836-2.834,1.269-2.834,2.836-2.834,2.834,1.269,2.834,2.834" vector-effect="non-scaling-stroke" fill="#fff" fill-rule="evenodd" stroke="#232323" stroke-linecap="square" stroke-linejoin="bevel" stroke-width=".24"/>
  <path d="M477.229,211.932c0,1.565-1.269,2.834-2.834,2.834s-2.834-1.269-2.834-2.834,1.269-2.834,2.834-2.834,2.834,1.269,2.834,2.834" vector-effect="non-scaling-stroke" fill="#fff" fill-rule="evenodd" stroke="#232323" stroke-linecap="square" stroke-linejoin="bevel" stroke-width=".24"/>
  <path d="M451.512,217.44c0,1.565-1.269,2.834-2.834,2.834s-2.834-1.269-2.834-2.834,1.269-2.834,2.834-2.834,2.834,1.269,2.834,2.834" vector-effect="non-scaling-stroke" fill="#fff" fill-rule="evenodd" stroke="#232323" stroke-linecap="square" stroke-linejoin="bevel" stroke-width=".24"/>
  <path d="M377.366,318.616c0,1.564-1.269,2.834-2.834,2.834s-2.834-1.269-2.834-2.834,1.269-2.836,2.834-2.836,2.834,1.269,2.834,2.836" vector-effect="non-scaling-stroke" fill="#fff" fill-rule="evenodd" stroke="#232323" stroke-linecap="square" stroke-linejoin="bevel" stroke-width=".24"/>
  <path d="M395.683,325.095c0,1.564-1.269,2.834-2.834,2.834s-2.834-1.269-2.834-2.834,1.267-2.836,2.834-2.836,2.834,1.269,2.834,2.836" vector-effect="non-scaling-stroke" fill="#fff" fill-rule="evenodd" stroke="#232323" stroke-linecap="square" stroke-linejoin="bevel" stroke-width=".24"/>
  <path d="M377.366,318.616c0,1.564-1.269,2.834-2.834,2.834s-2.834-1.269-2.834-2.834,1.269-2.836,2.834-2.836,2.834,1.269,2.834,2.836" vector-effect="non-scaling-stroke" fill="#fff" fill-rule="evenodd" stroke="#232323" stroke-linecap="square" stroke-linejoin="bevel" stroke-width=".24"/>
  <path d="M361.931,295.983c0,1.564-1.267,2.834-2.834,2.834s-2.834-1.269-2.834-2.834,1.269-2.834,2.834-2.834,2.834,1.267,2.834,2.834" vector-effect="non-scaling-stroke" fill="#fff" fill-rule="evenodd" stroke="#232323" stroke-linecap="square" stroke-linejoin="bevel" stroke-width=".24"/>
  <path d="M369.522,311.576c0,1.564-1.267,2.834-2.834,2.834s-2.834-1.269-2.834-2.834,1.269-2.834,2.834-2.834,2.834,1.269,2.834,2.834" vector-effect="non-scaling-stroke" fill="#fff" fill-rule="evenodd" stroke="#232323" stroke-linecap="square" stroke-linejoin="bevel" stroke-width=".24"/>
  <path d="M369.522,311.576c0,1.564-1.267,2.834-2.834,2.834s-2.834-1.269-2.834-2.834,1.269-2.834,2.834-2.834,2.834,1.269,2.834,2.834" vector-effect="non-scaling-stroke" fill="#fff" fill-rule="evenodd" stroke="#232323" stroke-linecap="square" stroke-linejoin="bevel" stroke-width=".24"/>
  <path d="M365.95,331.28c0,1.567-1.267,2.834-2.834,2.834s-2.834-1.267-2.834-2.834,1.269-2.834,2.834-2.834,2.834,1.269,2.834,2.834" vector-effect="non-scaling-stroke" fill="#fff" fill-rule="evenodd" stroke="#232323" stroke-linecap="square" stroke-linejoin="bevel" stroke-width=".24"/>
  <path d="M363.997,355.195c0,1.567-1.269,2.836-2.834,2.836s-2.834-1.269-2.834-2.836,1.267-2.834,2.834-2.834,2.834,1.269,2.834,2.834" vector-effect="non-scaling-stroke" fill="#fff" fill-rule="evenodd" stroke="#232323" stroke-linecap="square" stroke-linejoin="bevel" stroke-width=".24"/>
  <path d="M361.657,371.338c0,1.564-1.267,2.834-2.834,2.834s-2.834-1.269-2.834-2.834,1.269-2.834,2.834-2.834,2.834,1.269,2.834,2.834" vector-effect="non-scaling-stroke" fill="#fff" fill-rule="evenodd" stroke="#232323" stroke-linecap="square" stroke-linejoin="bevel" stroke-width=".24"/>
  <path d="M358.891,385.816c0,1.567-1.269,2.834-2.834,2.834s-2.834-1.267-2.834-2.834,1.267-2.834,2.834-2.834,2.834,1.269,2.834,2.834" vector-effect="non-scaling-stroke" fill="#fff" fill-rule="evenodd" stroke="#232323" stroke-linecap="square" stroke-linejoin="bevel" stroke-width=".24"/>
  <path d="M648.193,209.801c0,1.565-1.269,2.834-2.834,2.834s-2.834-1.269-2.834-2.834,1.267-2.834,2.834-2.834,2.834,1.269,2.834,2.834" vector-effect="non-scaling-stroke" fill="#fff" fill-rule="evenodd" stroke="#232323" stroke-linecap="square" stroke-linejoin="bevel" stroke-width=".24"/>
  <path d="M616.692,191.713c0,1.565-1.269,2.834-2.834,2.834s-2.834-1.269-2.834-2.834,1.269-2.834,2.834-2.834,2.834,1.269,2.834,2.834" vector-effect="non-scaling-stroke" fill="#fff" fill-rule="evenodd" stroke="#232323" stroke-linecap="square" stroke-linejoin="bevel" stroke-width=".24"/>
  <path d="M588.372,188.128c0,1.565-1.269,2.834-2.834,2.834s-2.836-1.269-2.836-2.834,1.269-2.834,2.836-2.834,2.834,1.269,2.834,2.834" vector-effect="non-scaling-stroke" fill="#fff" fill-rule="evenodd" stroke="#232323" stroke-linecap="square" stroke-linejoin="bevel" stroke-width=".24"/>
  <path d="M561.47,193.701c0,1.565-1.269,2.834-2.834,2.834s-2.834-1.269-2.834-2.834,1.267-2.834,2.834-2.834,2.834,1.269,2.834,2.834" vector-effect="non-scaling-stroke" fill="#fff" fill-rule="evenodd" stroke="#232323" stroke-linecap="square" stroke-linejoin="bevel" stroke-width=".24"/>
  <path d="M540.352,197.171c0,1.565-1.269,2.834-2.834,2.834s-2.834-1.269-2.834-2.834,1.267-2.834,2.834-2.834,2.834,1.269,2.834,2.834" vector-effect="non-scaling-stroke" fill="#fff" fill-rule="evenodd" stroke="#232323" stroke-linecap="square" stroke-linejoin="bevel" stroke-width=".24"/>
  <path d="M673.428,213.62c0,1.565-1.269,2.834-2.834,2.834s-2.834-1.269-2.834-2.834,1.269-2.834,2.834-2.834,2.834,1.269,2.834,2.834" vector-effect="non-scaling-stroke" fill="#fff" fill-rule="evenodd" stroke="#232323" stroke-linecap="square" stroke-linejoin="bevel" stroke-width=".24"/>
  <path d="M122.701,456.495c0,1.564-1.269,2.834-2.834,2.834s-2.834-1.269-2.834-2.834,1.269-2.834,2.834-2.834,2.834,1.267,2.834,2.834" vector-effect="non-scaling-stroke" fill="#fff" fill-rule="evenodd" stroke="#232323" stroke-linecap="square" stroke-linejoin="bevel" stroke-width=".24"/>
  <path d="M139.316,436.232c0,1.567-1.269,2.834-2.834,2.834s-2.834-1.267-2.834-2.834,1.269-2.834,2.834-2.834,2.834,1.269,2.834,2.834" vector-effect="non-scaling-stroke" fill="#fff" fill-rule="evenodd" stroke="#232323" stroke-linecap="square" stroke-linejoin="bevel" stroke-width=".24"/>
  <path d="M163.733,417.771c0,1.567-1.269,2.834-2.834,2.834s-2.834-1.267-2.834-2.834,1.269-2.834,2.834-2.834,2.834,1.269,2.834,2.834" vector-effect="non-scaling-stroke" fill="#fff" fill-rule="evenodd" stroke="#232323" stroke-linecap="square" stroke-linejoin="bevel" stroke-width=".24"/>
  <path d="M185.509,424.706c0,1.564-1.269,2.834-2.834,2.834s-2.834-1.269-2.834-2.834,1.269-2.834,2.834-2.834,2.834,1.269,2.834,2.834" vector-effect="non-scaling-stroke" fill="#fff" fill-rule="evenodd" stroke="#232323" stroke-linecap="square" stroke-linejoin="bevel" stroke-width=".24"/>
  <path d="M210.319,441.9c0,1.567-1.269,2.834-2.834,2.834s-2.834-1.267-2.834-2.834,1.269-2.834,2.834-2.834,2.834,1.269,2.834,2.834" vector-effect="non-scaling-stroke" fill="#fff" fill-rule="evenodd" stroke="#232323" stroke-linecap="square" stroke-linejoin="bevel" stroke-width=".24"/>
  <path d="M231.525,445.386c0,1.564-1.269,2.834-2.834,2.834s-2.834-1.269-2.834-2.834,1.269-2.834,2.834-2.834,2.834,1.269,2.834,2.834" vector-effect="non-scaling-stroke" fill="#fff" fill-rule="evenodd" stroke="#232323" stroke-linecap="square" stroke-linejoin="bevel" stroke-width=".24"/>
  <path d="M241.937,435.532c0,1.564-1.267,2.834-2.833,2.834s-2.834-1.269-2.834-2.834,1.269-2.834,2.834-2.834,2.833,1.269,2.833,2.834" vector-effect="non-scaling-stroke" fill="#fff" fill-rule="evenodd" stroke="#232323" stroke-linecap="square" stroke-linejoin="bevel" stroke-width=".24"/>
  <path d="M359.037,427.748c0,1.567-1.267,2.836-2.834,2.836s-2.834-1.269-2.834-2.836,1.269-2.834,2.834-2.834,2.834,1.269,2.834,2.834" vector-effect="non-scaling-stroke" fill="#fff" fill-rule="evenodd" stroke="#232323" stroke-linecap="square" stroke-linejoin="bevel" stroke-width=".24"/>
  <path d="M358.144,405.297c0,1.564-1.269,2.834-2.834,2.834s-2.834-1.269-2.834-2.834,1.267-2.834,2.834-2.834,2.834,1.269,2.834,2.834" vector-effect="non-scaling-stroke" fill="#fff" fill-rule="evenodd" stroke="#232323" stroke-linecap="square" stroke-linejoin="bevel" stroke-width=".24"/>
<style>
#g-map-Artboard_1-layer2-img rect, #g-map-Artboard_1-layer2-img circle, #g-map-Artboard_1-layer2-img path, #g-map-Artboard_1-layer2-img line, #g-map-Artboard_1-layer2-img polyline, #g-map-Artboard_1-layer2-img polygon { vector-effect: non-scaling-stroke; }
</style>
</svg>
