<?xml version="1.0" encoding="UTF-8"?>
<svg id="g-map-Artboard_1-layer7-img" xmlns="http://www.w3.org/2000/svg" baseProfile="tiny" version="1.2" viewBox="0 0 841.68 595.199">
  <!-- Generator: Adobe Illustrator 29.0.1, SVG Export Plug-In . SVG Version: 2.1.0 Build 192)  -->
  <rect x="82.252" y="135.783" width="201.57" height="61.677" fill="#fff" fill-opacity=".24"/>
  <rect x="487.523" y="409.267" width="245.034" height="67.887" fill="#fff" fill-opacity=".24"/>
  <rect x="394.353" y="379.003" width="376.699" height="69.295" fill="#fff" fill-opacity=".24"/>
  <path d="M328.382,199.609c0,1.565-1.269,2.834-2.834,2.834s-2.836-1.269-2.836-2.834,1.269-2.834,2.836-2.834,2.834,1.269,2.834,2.834" vector-effect="non-scaling-stroke" fill="#09306b" fill-rule="evenodd" stroke="#232323" stroke-linecap="square" stroke-linejoin="bevel" stroke-width=".24"/>
  <path d="M307.047,184.543c0,1.565-1.269,2.834-2.834,2.834s-2.834-1.269-2.834-2.834,1.267-2.834,2.834-2.834,2.834,1.269,2.834,2.834" vector-effect="non-scaling-stroke" fill="#09306b" fill-rule="evenodd" stroke="#232323" stroke-linecap="square" stroke-linejoin="bevel" stroke-width=".24"/>
  <path d="M263.743,226.401c0,1.565-1.267,2.834-2.834,2.834s-2.834-1.269-2.834-2.834,1.269-2.834,2.834-2.834,2.834,1.269,2.834,2.834" vector-effect="non-scaling-stroke" fill="#09306b" fill-rule="evenodd" stroke="#232323" stroke-linecap="square" stroke-linejoin="bevel" stroke-width=".24"/>
  <path d="M288.682,235.464c0,1.565-1.269,2.834-2.834,2.834s-2.834-1.269-2.834-2.834,1.269-2.834,2.834-2.834,2.834,1.269,2.834,2.834" vector-effect="non-scaling-stroke" fill="#09306b" fill-rule="evenodd" stroke="#232323" stroke-linecap="square" stroke-linejoin="bevel" stroke-width=".24"/>
  <path d="M301.389,241.576c0,1.564-1.269,2.834-2.834,2.834s-2.834-1.269-2.834-2.834,1.269-2.835,2.834-2.835,2.834,1.268,2.834,2.835" vector-effect="non-scaling-stroke" fill="#09306b" fill-rule="evenodd" stroke="#232323" stroke-linecap="square" stroke-linejoin="bevel" stroke-width=".24"/>
  <path d="M319.305,247.671c0,1.567-1.269,2.834-2.834,2.834s-2.836-1.267-2.836-2.834,1.269-2.834,2.836-2.834,2.834,1.269,2.834,2.834" vector-effect="non-scaling-stroke" fill="#09306b" fill-rule="evenodd" stroke="#232323" stroke-linecap="square" stroke-linejoin="bevel" stroke-width=".24"/>
  <path d="M419.087,224.787c0,1.565-1.267,2.834-2.834,2.834s-2.834-1.269-2.834-2.834,1.269-2.834,2.834-2.834,2.834,1.269,2.834,2.834" vector-effect="non-scaling-stroke" fill="#09306b" fill-rule="evenodd" stroke="#232323" stroke-linecap="square" stroke-linejoin="bevel" stroke-width=".24"/>
  <path d="M403.517,227.81c0,1.565-1.269,2.834-2.836,2.834s-2.834-1.269-2.834-2.834,1.269-2.834,2.834-2.834,2.836,1.269,2.836,2.834" vector-effect="non-scaling-stroke" fill="#09306b" fill-rule="evenodd" stroke="#232323" stroke-linecap="square" stroke-linejoin="bevel" stroke-width=".24"/>
  <path d="M384.912,231.724c0,1.565-1.269,2.834-2.834,2.834s-2.834-1.269-2.834-2.834,1.269-2.834,2.834-2.834,2.834,1.269,2.834,2.834" vector-effect="non-scaling-stroke" fill="#09306b" fill-rule="evenodd" stroke="#232323" stroke-linecap="square" stroke-linejoin="bevel" stroke-width=".24"/>
  <path d="M371.468,234.316c0,1.565-1.267,2.834-2.834,2.834s-2.834-1.269-2.834-2.834,1.269-2.834,2.834-2.834,2.834,1.269,2.834,2.834" vector-effect="non-scaling-stroke" fill="#09306b" fill-rule="evenodd" stroke="#232323" stroke-linecap="square" stroke-linejoin="bevel" stroke-width=".24"/>
  <path d="M360.678,228.424c0,1.565-1.269,2.834-2.834,2.834s-2.834-1.269-2.834-2.834,1.267-2.834,2.834-2.834,2.834,1.269,2.834,2.834" vector-effect="non-scaling-stroke" fill="#09306b" fill-rule="evenodd" stroke="#232323" stroke-linecap="square" stroke-linejoin="bevel" stroke-width=".24"/>
  <path d="M341.85,211.832c0,1.565-1.267,2.834-2.834,2.834s-2.834-1.269-2.834-2.834,1.269-2.834,2.834-2.834,2.834,1.269,2.834,2.834" vector-effect="non-scaling-stroke" fill="#09306b" fill-rule="evenodd" stroke="#232323" stroke-linecap="square" stroke-linejoin="bevel" stroke-width=".24"/>
  <path d="M332.077,259.526c0,1.564-1.269,2.834-2.834,2.834s-2.836-1.269-2.836-2.834,1.269-2.836,2.836-2.836,2.834,1.269,2.834,2.836" vector-effect="non-scaling-stroke" fill="#09306b" fill-rule="evenodd" stroke="#232323" stroke-linecap="square" stroke-linejoin="bevel" stroke-width=".24"/>
  <path d="M345.375,270.938c0,1.567-1.269,2.836-2.834,2.836s-2.834-1.269-2.834-2.836,1.269-2.834,2.834-2.834,2.834,1.269,2.834,2.834" vector-effect="non-scaling-stroke" fill="#09306b" fill-rule="evenodd" stroke="#232323" stroke-linecap="square" stroke-linejoin="bevel" stroke-width=".24"/>
  <path d="M357.276,284.734c0,1.564-1.269,2.834-2.834,2.834s-2.834-1.269-2.834-2.834,1.269-2.834,2.834-2.834,2.834,1.269,2.834,2.834" vector-effect="non-scaling-stroke" fill="#09306b" fill-rule="evenodd" stroke="#232323" stroke-linecap="square" stroke-linejoin="bevel" stroke-width=".24"/>
  <path d="M377.961,182.823c0,1.565-1.269,2.834-2.836,2.834s-2.834-1.269-2.834-2.834,1.269-2.834,2.834-2.834,2.836,1.269,2.836,2.834" vector-effect="non-scaling-stroke" fill="#09306b" fill-rule="evenodd" stroke="#232323" stroke-linecap="square" stroke-linejoin="bevel" stroke-width=".24"/>
  <path d="M372.798,193.315c0,1.565-1.269,2.834-2.834,2.834s-2.834-1.269-2.834-2.834,1.269-2.834,2.834-2.834,2.834,1.269,2.834,2.834" vector-effect="non-scaling-stroke" fill="#09306b" fill-rule="evenodd" stroke="#232323" stroke-linecap="square" stroke-linejoin="bevel" stroke-width=".24"/>
  <path d="M369.388,220.51c0,1.565-1.269,2.834-2.834,2.834s-2.836-1.269-2.836-2.834,1.269-2.834,2.836-2.834,2.834,1.269,2.834,2.834" vector-effect="non-scaling-stroke" fill="#09306b" fill-rule="evenodd" stroke="#232323" stroke-linecap="square" stroke-linejoin="bevel" stroke-width=".24"/>
  <path d="M371.557,234.475c0,1.565-1.269,2.834-2.834,2.834s-2.834-1.269-2.834-2.834,1.269-2.834,2.834-2.834,2.834,1.269,2.834,2.834" vector-effect="non-scaling-stroke" fill="#09306b" fill-rule="evenodd" stroke="#232323" stroke-linecap="square" stroke-linejoin="bevel" stroke-width=".24"/>
  <path d="M366.718,242.572c0,1.564-1.269,2.834-2.834,2.834s-2.836-1.269-2.836-2.834,1.269-2.834,2.836-2.834,2.834,1.27,2.834,2.834" vector-effect="non-scaling-stroke" fill="#09306b" fill-rule="evenodd" stroke="#232323" stroke-linecap="square" stroke-linejoin="bevel" stroke-width=".24"/>
  <path d="M361.352,256.659c0,1.567-1.269,2.834-2.834,2.834s-2.834-1.267-2.834-2.834,1.269-2.834,2.834-2.834,2.834,1.269,2.834,2.834" vector-effect="non-scaling-stroke" fill="#09306b" fill-rule="evenodd" stroke="#232323" stroke-linecap="square" stroke-linejoin="bevel" stroke-width=".24"/>
  <path d="M359.203,270.851c0,1.564-1.269,2.834-2.834,2.834s-2.834-1.269-2.834-2.834,1.269-2.836,2.834-2.836,2.834,1.269,2.834,2.836" vector-effect="non-scaling-stroke" fill="#09306b" fill-rule="evenodd" stroke="#232323" stroke-linecap="square" stroke-linejoin="bevel" stroke-width=".24"/>
  <path d="M368.599,204.481c0,1.565-1.269,2.834-2.834,2.834s-2.834-1.269-2.834-2.834,1.267-2.834,2.834-2.834,2.834,1.269,2.834,2.834" vector-effect="non-scaling-stroke" fill="#09306b" fill-rule="evenodd" stroke="#232323" stroke-linecap="square" stroke-linejoin="bevel" stroke-width=".24"/>
  <path d="M352.883,221.706c0,1.565-1.269,2.834-2.836,2.834s-2.834-1.269-2.834-2.834,1.269-2.834,2.834-2.834,2.836,1.269,2.836,2.834" vector-effect="non-scaling-stroke" fill="#09306b" fill-rule="evenodd" stroke="#232323" stroke-linecap="square" stroke-linejoin="bevel" stroke-width=".24"/>
  <path d="M335.763,230.741c0,1.565-1.269,2.834-2.834,2.834s-2.836-1.269-2.836-2.834,1.269-2.834,2.836-2.834,2.834,1.269,2.834,2.834" vector-effect="non-scaling-stroke" fill="#09306b" fill-rule="evenodd" stroke="#232323" stroke-linecap="square" stroke-linejoin="bevel" stroke-width=".24"/>
  <path d="M299.076,254.562c0,1.564-1.269,2.834-2.834,2.834s-2.834-1.269-2.834-2.834,1.269-2.834,2.834-2.834,2.834,1.269,2.834,2.834" vector-effect="non-scaling-stroke" fill="#09306b" fill-rule="evenodd" stroke="#232323" stroke-linecap="square" stroke-linejoin="bevel" stroke-width=".24"/>
  <path d="M425.769,90.216c0,1.565-1.267,2.834-2.834,2.834s-2.834-1.269-2.834-2.834,1.269-2.834,2.834-2.834,2.834,1.269,2.834,2.834" vector-effect="non-scaling-stroke" fill="#09306b" fill-rule="evenodd" stroke="#232323" stroke-linecap="square" stroke-linejoin="bevel" stroke-width=".24"/>
  <path d="M415.353,104.596c0,1.565-1.269,2.834-2.836,2.834s-2.834-1.269-2.834-2.834,1.269-2.834,2.834-2.834,2.836,1.269,2.836,2.834" vector-effect="non-scaling-stroke" fill="#09306b" fill-rule="evenodd" stroke="#232323" stroke-linecap="square" stroke-linejoin="bevel" stroke-width=".24"/>
  <path d="M400.014,115.658c0,1.565-1.269,2.834-2.834,2.834s-2.834-1.269-2.834-2.834,1.267-2.834,2.834-2.834,2.834,1.269,2.834,2.834" vector-effect="non-scaling-stroke" fill="#09306b" fill-rule="evenodd" stroke="#232323" stroke-linecap="square" stroke-linejoin="bevel" stroke-width=".24"/>
  <path d="M385.951,136.351c0,1.565-1.269,2.834-2.834,2.834s-2.834-1.269-2.834-2.834,1.269-2.834,2.834-2.834,2.834,1.269,2.834,2.834" vector-effect="non-scaling-stroke" fill="#09306b" fill-rule="evenodd" stroke="#232323" stroke-linecap="square" stroke-linejoin="bevel" stroke-width=".24"/>
  <path d="M385.752,149.919c0,1.565-1.269,2.834-2.834,2.834s-2.834-1.269-2.834-2.834,1.267-2.834,2.834-2.834,2.834,1.269,2.834,2.834" vector-effect="non-scaling-stroke" fill="#09306b" fill-rule="evenodd" stroke="#232323" stroke-linecap="square" stroke-linejoin="bevel" stroke-width=".24"/>
  <path d="M385.538,163.788c0,1.565-1.269,2.834-2.834,2.834s-2.834-1.269-2.834-2.834,1.267-2.834,2.834-2.834,2.834,1.269,2.834,2.834" vector-effect="non-scaling-stroke" fill="#09306b" fill-rule="evenodd" stroke="#232323" stroke-linecap="square" stroke-linejoin="bevel" stroke-width=".24"/>
  <path d="M306.013,354.861c0,1.564-1.269,2.834-2.834,2.834s-2.836-1.269-2.836-2.834,1.269-2.834,2.836-2.834,2.834,1.269,2.834,2.834" vector-effect="non-scaling-stroke" fill="#09306b" fill-rule="evenodd" stroke="#232323" stroke-linecap="square" stroke-linejoin="bevel" stroke-width=".24"/>
  <path d="M318.905,340.923c0,1.567-1.267,2.836-2.834,2.836s-2.834-1.269-2.834-2.836,1.269-2.834,2.834-2.834,2.834,1.269,2.834,2.834" vector-effect="non-scaling-stroke" fill="#09306b" fill-rule="evenodd" stroke="#232323" stroke-linecap="square" stroke-linejoin="bevel" stroke-width=".24"/>
  <path d="M337.759,329.19c0,1.567-1.269,2.834-2.836,2.834s-2.834-1.267-2.834-2.834,1.269-2.834,2.834-2.834,2.836,1.269,2.836,2.834" vector-effect="non-scaling-stroke" fill="#09306b" fill-rule="evenodd" stroke="#232323" stroke-linecap="square" stroke-linejoin="bevel" stroke-width=".24"/>
  <path d="M258.399,268.471c0,1.564-1.269,2.834-2.834,2.834s-2.836-1.269-2.836-2.834,1.269-2.834,2.836-2.834,2.834,1.267,2.834,2.834" vector-effect="non-scaling-stroke" fill="#09306b" fill-rule="evenodd" stroke="#232323" stroke-linecap="square" stroke-linejoin="bevel" stroke-width=".24"/>
  <path d="M244.029,268.692c0,1.564-1.267,2.834-2.834,2.834s-2.833-1.269-2.833-2.834,1.269-2.834,2.833-2.834,2.834,1.269,2.834,2.834" vector-effect="non-scaling-stroke" fill="#09306b" fill-rule="evenodd" stroke="#232323" stroke-linecap="square" stroke-linejoin="bevel" stroke-width=".24"/>
  <path d="M231.946,278.563c0,1.567-1.269,2.836-2.834,2.836s-2.834-1.269-2.834-2.836,1.269-2.834,2.834-2.834,2.834,1.269,2.834,2.834" vector-effect="non-scaling-stroke" fill="#09306b" fill-rule="evenodd" stroke="#232323" stroke-linecap="square" stroke-linejoin="bevel" stroke-width=".24"/>
  <path d="M276.687,266.254c0,1.564-1.269,2.834-2.834,2.834s-2.834-1.269-2.834-2.834,1.269-2.834,2.834-2.834,2.834,1.267,2.834,2.834" vector-effect="non-scaling-stroke" fill="#09306b" fill-rule="evenodd" stroke="#232323" stroke-linecap="square" stroke-linejoin="bevel" stroke-width=".24"/>
  <path d="M203.233,308.028c0,1.564-1.269,2.834-2.834,2.834s-2.834-1.269-2.834-2.834,1.269-2.834,2.834-2.834,2.834,1.269,2.834,2.834" vector-effect="non-scaling-stroke" fill="#09306b" fill-rule="evenodd" stroke="#232323" stroke-linecap="square" stroke-linejoin="bevel" stroke-width=".24"/>
  <path d="M281.385,373.008c0,1.567-1.269,2.834-2.836,2.834s-2.834-1.267-2.834-2.834,1.269-2.834,2.834-2.834,2.836,1.269,2.836,2.834" vector-effect="non-scaling-stroke" fill="#09306b" fill-rule="evenodd" stroke="#232323" stroke-linecap="square" stroke-linejoin="bevel" stroke-width=".24"/>
  <path d="M183.036,322.489c0,1.564-1.269,2.834-2.834,2.834s-2.834-1.269-2.834-2.834,1.269-2.834,2.834-2.834,2.834,1.269,2.834,2.834" vector-effect="non-scaling-stroke" fill="#09306b" fill-rule="evenodd" stroke="#232323" stroke-linecap="square" stroke-linejoin="bevel" stroke-width=".24"/>
  <path d="M499.788,206.449c0,1.565-1.269,2.834-2.834,2.834s-2.836-1.269-2.836-2.834,1.269-2.834,2.836-2.834,2.834,1.269,2.834,2.834" vector-effect="non-scaling-stroke" fill="#09306b" fill-rule="evenodd" stroke="#232323" stroke-linecap="square" stroke-linejoin="bevel" stroke-width=".24"/>
  <path d="M477.229,211.932c0,1.565-1.269,2.834-2.834,2.834s-2.834-1.269-2.834-2.834,1.269-2.834,2.834-2.834,2.834,1.269,2.834,2.834" vector-effect="non-scaling-stroke" fill="#09306b" fill-rule="evenodd" stroke="#232323" stroke-linecap="square" stroke-linejoin="bevel" stroke-width=".24"/>
  <path d="M451.512,217.44c0,1.565-1.269,2.834-2.834,2.834s-2.834-1.269-2.834-2.834,1.269-2.834,2.834-2.834,2.834,1.269,2.834,2.834" vector-effect="non-scaling-stroke" fill="#09306b" fill-rule="evenodd" stroke="#232323" stroke-linecap="square" stroke-linejoin="bevel" stroke-width=".24"/>
  <path d="M504.971,296.047c0,1.564-1.269,2.834-2.836,2.834s-2.834-1.269-2.834-2.834,1.269-2.834,2.834-2.834,2.836,1.269,2.836,2.834" vector-effect="non-scaling-stroke" fill="#09306b" fill-rule="evenodd" stroke="#232323" stroke-linecap="square" stroke-linejoin="bevel" stroke-width=".24"/>
  <path d="M377.366,318.616c0,1.564-1.269,2.834-2.834,2.834s-2.834-1.269-2.834-2.834,1.269-2.836,2.834-2.836,2.834,1.269,2.834,2.836" vector-effect="non-scaling-stroke" fill="#09306b" fill-rule="evenodd" stroke="#232323" stroke-linecap="square" stroke-linejoin="bevel" stroke-width=".24"/>
  <path d="M395.683,325.095c0,1.564-1.269,2.834-2.834,2.834s-2.834-1.269-2.834-2.834,1.267-2.836,2.834-2.836,2.834,1.269,2.834,2.836" vector-effect="non-scaling-stroke" fill="#09306b" fill-rule="evenodd" stroke="#232323" stroke-linecap="square" stroke-linejoin="bevel" stroke-width=".24"/>
  <path d="M411.351,337.571c0,1.567-1.269,2.834-2.834,2.834s-2.834-1.267-2.834-2.834,1.267-2.834,2.834-2.834,2.834,1.269,2.834,2.834" vector-effect="non-scaling-stroke" fill="#09306b" fill-rule="evenodd" stroke="#232323" stroke-linecap="square" stroke-linejoin="bevel" stroke-width=".24"/>
  <path d="M428.476,335.803c0,1.564-1.269,2.834-2.834,2.834s-2.834-1.269-2.834-2.834,1.267-2.834,2.834-2.834,2.834,1.267,2.834,2.834" vector-effect="non-scaling-stroke" fill="#09306b" fill-rule="evenodd" stroke="#232323" stroke-linecap="square" stroke-linejoin="bevel" stroke-width=".24"/>
  <path d="M453.626,318.376c0,1.567-1.269,2.836-2.834,2.836s-2.834-1.269-2.834-2.836,1.269-2.834,2.834-2.834,2.834,1.269,2.834,2.834" vector-effect="non-scaling-stroke" fill="#09306b" fill-rule="evenodd" stroke="#232323" stroke-linecap="square" stroke-linejoin="bevel" stroke-width=".24"/>
  <path d="M464.229,301.696c0,1.567-1.269,2.836-2.834,2.836s-2.834-1.269-2.834-2.836,1.267-2.834,2.834-2.834,2.834,1.269,2.834,2.834" vector-effect="non-scaling-stroke" fill="#09306b" fill-rule="evenodd" stroke="#232323" stroke-linecap="square" stroke-linejoin="bevel" stroke-width=".24"/>
  <path d="M377.366,318.616c0,1.564-1.269,2.834-2.834,2.834s-2.834-1.269-2.834-2.834,1.269-2.836,2.834-2.836,2.834,1.269,2.834,2.836" vector-effect="non-scaling-stroke" fill="#09306b" fill-rule="evenodd" stroke="#232323" stroke-linecap="square" stroke-linejoin="bevel" stroke-width=".24"/>
  <path d="M361.931,295.983c0,1.564-1.267,2.834-2.834,2.834s-2.834-1.269-2.834-2.834,1.269-2.834,2.834-2.834,2.834,1.267,2.834,2.834" vector-effect="non-scaling-stroke" fill="#09306b" fill-rule="evenodd" stroke="#232323" stroke-linecap="square" stroke-linejoin="bevel" stroke-width=".24"/>
  <path d="M369.522,311.576c0,1.564-1.267,2.834-2.834,2.834s-2.834-1.269-2.834-2.834,1.269-2.834,2.834-2.834,2.834,1.269,2.834,2.834" vector-effect="non-scaling-stroke" fill="#09306b" fill-rule="evenodd" stroke="#232323" stroke-linecap="square" stroke-linejoin="bevel" stroke-width=".24"/>
  <path d="M369.522,311.576c0,1.564-1.267,2.834-2.834,2.834s-2.834-1.269-2.834-2.834,1.269-2.834,2.834-2.834,2.834,1.269,2.834,2.834" vector-effect="non-scaling-stroke" fill="#09306b" fill-rule="evenodd" stroke="#232323" stroke-linecap="square" stroke-linejoin="bevel" stroke-width=".24"/>
  <path d="M365.95,331.28c0,1.567-1.267,2.834-2.834,2.834s-2.834-1.267-2.834-2.834,1.269-2.834,2.834-2.834,2.834,1.269,2.834,2.834" vector-effect="non-scaling-stroke" fill="#09306b" fill-rule="evenodd" stroke="#232323" stroke-linecap="square" stroke-linejoin="bevel" stroke-width=".24"/>
  <path d="M363.997,355.195c0,1.567-1.269,2.836-2.834,2.836s-2.834-1.269-2.834-2.836,1.267-2.834,2.834-2.834,2.834,1.269,2.834,2.834" vector-effect="non-scaling-stroke" fill="#09306b" fill-rule="evenodd" stroke="#232323" stroke-linecap="square" stroke-linejoin="bevel" stroke-width=".24"/>
  <path d="M361.657,371.338c0,1.564-1.267,2.834-2.834,2.834s-2.834-1.269-2.834-2.834,1.269-2.834,2.834-2.834,2.834,1.269,2.834,2.834" vector-effect="non-scaling-stroke" fill="#09306b" fill-rule="evenodd" stroke="#232323" stroke-linecap="square" stroke-linejoin="bevel" stroke-width=".24"/>
  <path d="M358.891,385.816c0,1.567-1.269,2.834-2.834,2.834s-2.834-1.267-2.834-2.834,1.267-2.834,2.834-2.834,2.834,1.269,2.834,2.834" vector-effect="non-scaling-stroke" fill="#09306b" fill-rule="evenodd" stroke="#232323" stroke-linecap="square" stroke-linejoin="bevel" stroke-width=".24"/>
  <path d="M349.773,330.112c0,1.567-1.269,2.834-2.834,2.834s-2.834-1.267-2.834-2.834,1.269-2.834,2.834-2.834,2.834,1.269,2.834,2.834" vector-effect="non-scaling-stroke" fill="#09306b" fill-rule="evenodd" stroke="#232323" stroke-linecap="square" stroke-linejoin="bevel" stroke-width=".24"/>
  <path d="M648.193,209.801c0,1.565-1.269,2.834-2.834,2.834s-2.834-1.269-2.834-2.834,1.267-2.834,2.834-2.834,2.834,1.269,2.834,2.834" vector-effect="non-scaling-stroke" fill="#09306b" fill-rule="evenodd" stroke="#232323" stroke-linecap="square" stroke-linejoin="bevel" stroke-width=".24"/>
  <path d="M616.692,191.713c0,1.565-1.269,2.834-2.834,2.834s-2.834-1.269-2.834-2.834,1.269-2.834,2.834-2.834,2.834,1.269,2.834,2.834" vector-effect="non-scaling-stroke" fill="#09306b" fill-rule="evenodd" stroke="#232323" stroke-linecap="square" stroke-linejoin="bevel" stroke-width=".24"/>
  <path d="M588.372,188.128c0,1.565-1.269,2.834-2.834,2.834s-2.836-1.269-2.836-2.834,1.269-2.834,2.836-2.834,2.834,1.269,2.834,2.834" vector-effect="non-scaling-stroke" fill="#09306b" fill-rule="evenodd" stroke="#232323" stroke-linecap="square" stroke-linejoin="bevel" stroke-width=".24"/>
  <path d="M561.47,193.701c0,1.565-1.269,2.834-2.834,2.834s-2.834-1.269-2.834-2.834,1.267-2.834,2.834-2.834,2.834,1.269,2.834,2.834" vector-effect="non-scaling-stroke" fill="#09306b" fill-rule="evenodd" stroke="#232323" stroke-linecap="square" stroke-linejoin="bevel" stroke-width=".24"/>
  <path d="M540.352,197.171c0,1.565-1.269,2.834-2.834,2.834s-2.834-1.269-2.834-2.834,1.267-2.834,2.834-2.834,2.834,1.269,2.834,2.834" vector-effect="non-scaling-stroke" fill="#09306b" fill-rule="evenodd" stroke="#232323" stroke-linecap="square" stroke-linejoin="bevel" stroke-width=".24"/>
  <path d="M673.428,213.62c0,1.565-1.269,2.834-2.834,2.834s-2.834-1.269-2.834-2.834,1.269-2.834,2.834-2.834,2.834,1.269,2.834,2.834" vector-effect="non-scaling-stroke" fill="#09306b" fill-rule="evenodd" stroke="#232323" stroke-linecap="square" stroke-linejoin="bevel" stroke-width=".24"/>
  <path d="M537.802,310.086c0,1.564-1.269,2.834-2.834,2.834s-2.836-1.269-2.836-2.834,1.269-2.834,2.836-2.834,2.834,1.267,2.834,2.834" vector-effect="non-scaling-stroke" fill="#09306b" fill-rule="evenodd" stroke="#232323" stroke-linecap="square" stroke-linejoin="bevel" stroke-width=".24"/>
  <path d="M664.435,354.849c0,1.564-1.269,2.834-2.834,2.834s-2.836-1.269-2.836-2.834,1.269-2.834,2.836-2.834,2.834,1.267,2.834,2.834" vector-effect="non-scaling-stroke" fill="#09306b" fill-rule="evenodd" stroke="#232323" stroke-linecap="square" stroke-linejoin="bevel" stroke-width=".24"/>
  <path d="M644.318,354.25c0,1.564-1.267,2.834-2.834,2.834s-2.834-1.269-2.834-2.834,1.269-2.834,2.834-2.834,2.834,1.269,2.834,2.834" vector-effect="non-scaling-stroke" fill="#09306b" fill-rule="evenodd" stroke="#232323" stroke-linecap="square" stroke-linejoin="bevel" stroke-width=".24"/>
  <path d="M618.378,360.718c0,1.567-1.269,2.834-2.834,2.834s-2.834-1.267-2.834-2.834,1.269-2.834,2.834-2.834,2.834,1.269,2.834,2.834" vector-effect="non-scaling-stroke" fill="#09306b" fill-rule="evenodd" stroke="#232323" stroke-linecap="square" stroke-linejoin="bevel" stroke-width=".24"/>
  <path d="M570.249,333.252c0,1.564-1.269,2.834-2.834,2.834s-2.834-1.269-2.834-2.834,1.267-2.834,2.834-2.834,2.834,1.267,2.834,2.834" vector-effect="non-scaling-stroke" fill="#09306b" fill-rule="evenodd" stroke="#232323" stroke-linecap="square" stroke-linejoin="bevel" stroke-width=".24"/>
  <path d="M550.377,322.326c0,1.564-1.269,2.834-2.834,2.834s-2.834-1.269-2.834-2.834,1.269-2.834,2.834-2.834,2.834,1.267,2.834,2.834" vector-effect="non-scaling-stroke" fill="#09306b" fill-rule="evenodd" stroke="#232323" stroke-linecap="square" stroke-linejoin="bevel" stroke-width=".24"/>
  <path d="M590.757,336.976c0,1.564-1.267,2.834-2.834,2.834s-2.834-1.269-2.834-2.834,1.269-2.834,2.834-2.834,2.834,1.269,2.834,2.834" vector-effect="non-scaling-stroke" fill="#09306b" fill-rule="evenodd" stroke="#232323" stroke-linecap="square" stroke-linejoin="bevel" stroke-width=".24"/>
  <path d="M607.74,345.941c0,1.564-1.269,2.834-2.834,2.834s-2.834-1.269-2.834-2.834,1.267-2.834,2.834-2.834,2.834,1.269,2.834,2.834" vector-effect="non-scaling-stroke" fill="#09306b" fill-rule="evenodd" stroke="#232323" stroke-linecap="square" stroke-linejoin="bevel" stroke-width=".24"/>
  <path d="M122.701,456.495c0,1.564-1.269,2.834-2.834,2.834s-2.834-1.269-2.834-2.834,1.269-2.834,2.834-2.834,2.834,1.267,2.834,2.834" vector-effect="non-scaling-stroke" fill="#09306b" fill-rule="evenodd" stroke="#232323" stroke-linecap="square" stroke-linejoin="bevel" stroke-width=".24"/>
  <path d="M139.316,436.232c0,1.567-1.269,2.834-2.834,2.834s-2.834-1.267-2.834-2.834,1.269-2.834,2.834-2.834,2.834,1.269,2.834,2.834" vector-effect="non-scaling-stroke" fill="#09306b" fill-rule="evenodd" stroke="#232323" stroke-linecap="square" stroke-linejoin="bevel" stroke-width=".24"/>
  <path d="M163.733,417.771c0,1.567-1.269,2.834-2.834,2.834s-2.834-1.267-2.834-2.834,1.269-2.834,2.834-2.834,2.834,1.269,2.834,2.834" vector-effect="non-scaling-stroke" fill="#09306b" fill-rule="evenodd" stroke="#232323" stroke-linecap="square" stroke-linejoin="bevel" stroke-width=".24"/>
  <path d="M185.509,424.706c0,1.564-1.269,2.834-2.834,2.834s-2.834-1.269-2.834-2.834,1.269-2.834,2.834-2.834,2.834,1.269,2.834,2.834" vector-effect="non-scaling-stroke" fill="#09306b" fill-rule="evenodd" stroke="#232323" stroke-linecap="square" stroke-linejoin="bevel" stroke-width=".24"/>
  <path d="M210.319,441.9c0,1.567-1.269,2.834-2.834,2.834s-2.834-1.267-2.834-2.834,1.269-2.834,2.834-2.834,2.834,1.269,2.834,2.834" vector-effect="non-scaling-stroke" fill="#09306b" fill-rule="evenodd" stroke="#232323" stroke-linecap="square" stroke-linejoin="bevel" stroke-width=".24"/>
  <path d="M231.525,445.386c0,1.564-1.269,2.834-2.834,2.834s-2.834-1.269-2.834-2.834,1.269-2.834,2.834-2.834,2.834,1.269,2.834,2.834" vector-effect="non-scaling-stroke" fill="#09306b" fill-rule="evenodd" stroke="#232323" stroke-linecap="square" stroke-linejoin="bevel" stroke-width=".24"/>
  <path d="M241.937,435.532c0,1.564-1.267,2.834-2.833,2.834s-2.834-1.269-2.834-2.834,1.269-2.834,2.834-2.834,2.833,1.269,2.833,2.834" vector-effect="non-scaling-stroke" fill="#09306b" fill-rule="evenodd" stroke="#232323" stroke-linecap="square" stroke-linejoin="bevel" stroke-width=".24"/>
  <path d="M359.037,427.748c0,1.567-1.267,2.836-2.834,2.836s-2.834-1.269-2.834-2.836,1.269-2.834,2.834-2.834,2.834,1.269,2.834,2.834" vector-effect="non-scaling-stroke" fill="#09306b" fill-rule="evenodd" stroke="#232323" stroke-linecap="square" stroke-linejoin="bevel" stroke-width=".24"/>
  <path d="M358.144,405.297c0,1.564-1.269,2.834-2.834,2.834s-2.834-1.269-2.834-2.834,1.267-2.834,2.834-2.834,2.834,1.269,2.834,2.834" vector-effect="non-scaling-stroke" fill="#09306b" fill-rule="evenodd" stroke="#232323" stroke-linecap="square" stroke-linejoin="bevel" stroke-width=".24"/>
  <path d="M250.738,418.937c0,1.564-1.269,2.834-2.836,2.834s-2.834-1.269-2.834-2.834,1.269-2.834,2.834-2.834,2.836,1.269,2.836,2.834" vector-effect="non-scaling-stroke" fill="#09306b" fill-rule="evenodd" stroke="#232323" stroke-linecap="square" stroke-linejoin="bevel" stroke-width=".24"/>
  <path d="M261.797,402.341c0,1.567-1.269,2.834-2.834,2.834s-2.834-1.267-2.834-2.834,1.267-2.834,2.834-2.834,2.834,1.269,2.834,2.834" vector-effect="non-scaling-stroke" fill="#09306b" fill-rule="evenodd" stroke="#232323" stroke-linecap="square" stroke-linejoin="bevel" stroke-width=".24"/>
  <path d="M270.943,389.878c0,1.564-1.269,2.834-2.836,2.834s-2.834-1.269-2.834-2.834,1.269-2.834,2.834-2.834,2.836,1.269,2.836,2.834" vector-effect="non-scaling-stroke" fill="#09306b" fill-rule="evenodd" stroke="#232323" stroke-linecap="square" stroke-linejoin="bevel" stroke-width=".24"/>
<style>
#g-map-Artboard_1-layer7-img rect, #g-map-Artboard_1-layer7-img circle, #g-map-Artboard_1-layer7-img path, #g-map-Artboard_1-layer7-img line, #g-map-Artboard_1-layer7-img polyline, #g-map-Artboard_1-layer7-img polygon { vector-effect: non-scaling-stroke; }
</style>
</svg>
